{"glyphs":{"0":{"ha":688,"x_min":0,"x_max":0,"o":"m 207 324 b 182 367 185 332 182 340 b 192 426 182 388 182 411 b 181 503 189 451 181 479 b 199 606 181 533 194 572 b 219 679 201 631 219 665 b 218 696 219 685 218 690 b 350 886 218 764 269 886 b 475 813 419 886 460 838 b 525 764 485 796 521 764 b 528 781 528 767 528 774 b 496 878 528 811 496 854 b 440 919 496 899 460 919 b 414 933 431 919 426 933 b 403 932 410 933 407 932 b 318 942 376 932 346 942 b 296 926 304 942 301 926 b 282 946 292 926 290 946 b 204 897 247 946 226 900 b 119 725 151 882 136 789 b 100 629 111 693 100 667 b 89 578 100 613 89 596 b 94 551 89 569 94 560 b 92 532 94 544 92 538 b 97 503 92 522 97 513 b 83 472 97 490 83 482 b 85 453 83 465 85 460 b 83 440 85 449 85 444 b 106 408 83 429 104 428 b 99 367 100 396 99 381 b 158 122 99 279 158 131 b 157 115 158 121 157 118 b 256 19 157 86 253 19 b 272 8 264 18 265 10 b 339 0 294 6 318 0 b 428 36 356 0 424 29 b 465 78 438 53 461 56 b 497 117 468 89 489 97 b 558 260 518 163 557 217 b 578 285 558 272 569 275 b 574 308 575 292 574 300 b 579 340 574 318 579 329 b 575 372 579 351 575 363 b 590 414 575 388 581 401 l 589 413 b 604 479 593 432 604 458 b 594 579 604 514 594 544 b 578 658 594 599 589 653 b 532 740 551 674 557 732 b 524 736 529 740 524 738 b 550 553 524 668 550 618 b 547 496 550 533 547 514 b 553 456 547 483 553 469 b 533 419 553 443 546 429 l 532 422 b 546 385 542 411 544 399 b 529 371 546 376 536 375 b 342 81 510 275 450 81 b 264 125 314 81 269 97 b 261 129 263 128 263 129 b 246 117 258 129 253 117 b 203 267 228 117 203 261 b 207 324 203 286 207 303 z m 160 283 b 165 281 161 282 164 281 b 158 285 163 282 161 283 l 160 288 z m 149 347 b 142 375 140 356 142 367 b 144 385 142 378 142 382 b 150 379 147 383 150 381 b 149 347 150 369 150 360 z m 579 589 b 576 583 578 586 578 585 b 565 600 568 588 565 590 b 571 604 565 603 568 604 b 579 589 575 604 578 594 z m 136 608 b 139 600 138 606 139 603 b 135 592 139 597 136 594 b 131 603 133 594 131 599 b 136 608 131 608 136 608 z m 175 581 b 178 579 178 581 178 581 b 178 576 178 578 178 578 b 175 578 175 576 175 576 b 175 581 175 578 175 579 z m 150 525 b 147 521 150 521 149 521 b 146 525 146 521 146 522 b 150 525 146 525 149 525 z m 589 413 b 593 392 590 406 589 397 b 604 406 603 396 604 403 b 589 413 604 410 600 411 z m 525 867 b 533 846 529 858 528 846 b 536 851 536 846 536 849 b 525 867 536 858 531 861 z m 572 701 l 575 700 l 574 706 z m 542 786 l 540 790 z m 251 164 l 250 161 z m 532 422 b 535 421 533 422 535 422 b 533 424 535 422 535 424 b 533 419 533 424 533 422 b 532 422 533 419 532 422 z m 528 865 b 524 864 526 865 525 865 b 526 863 525 864 525 863 b 525 867 525 863 528 863 b 528 865 525 867 528 865 z m 160 283 b 165 281 161 282 164 281 b 160 283 163 282 161 283 z "},"1":{"ha":564,"x_min":0,"x_max":0,"o":"m 417 586 b 400 579 413 585 406 579 b 397 585 399 579 397 582 b 401 588 397 585 400 588 b 415 585 406 586 410 586 b 421 596 417 589 421 590 b 415 615 421 603 415 610 b 428 647 415 624 428 635 b 421 658 428 654 425 658 b 413 653 418 658 415 654 l 411 653 b 414 651 411 653 414 651 b 429 699 414 671 429 688 b 426 711 429 703 426 707 b 453 813 426 732 453 768 b 494 961 467 904 494 928 b 453 997 494 981 493 997 b 353 894 371 989 403 931 b 251 778 313 865 290 814 b 206 717 239 772 219 732 b 17 464 135 639 74 551 b 14 456 15 463 14 460 b 33 438 14 446 22 438 b 175 610 50 438 164 585 b 249 715 189 646 242 713 b 367 851 289 740 319 851 b 386 828 379 851 386 838 b 385 822 386 826 385 824 b 357 679 365 774 374 724 b 336 568 343 644 351 603 b 322 456 324 540 335 493 b 310 383 315 435 310 392 b 329 338 310 365 329 346 b 300 271 329 315 313 294 b 318 225 306 258 318 236 b 290 210 318 211 290 215 b 272 117 278 175 272 151 b 282 82 272 106 282 93 b 271 14 282 54 271 22 b 304 -42 271 6 289 -42 b 340 -26 318 -42 326 -26 b 389 31 379 0 389 15 b 367 132 389 46 367 103 b 386 172 367 150 386 150 b 383 181 386 175 383 178 b 389 231 390 197 389 214 b 381 289 388 250 381 271 b 382 307 381 294 382 301 b 368 319 382 315 376 318 b 356 297 365 311 367 297 b 349 306 353 297 349 301 b 393 353 349 310 381 336 b 382 351 389 353 386 351 b 378 357 379 353 378 354 b 383 363 378 360 379 363 b 392 351 388 363 390 354 b 397 390 399 365 397 374 b 389 399 397 396 394 399 b 375 397 386 399 379 397 b 364 414 367 397 364 408 b 390 454 364 429 390 429 b 389 465 390 458 390 463 l 390 464 b 363 488 379 471 363 469 b 390 497 363 497 382 497 l 389 496 b 388 507 388 500 388 503 b 415 546 388 525 399 529 b 411 567 414 554 411 560 b 417 586 411 574 414 581 z m 328 278 b 332 274 329 276 331 275 b 331 271 332 274 331 272 b 329 279 331 274 329 276 z m 357 353 b 349 346 356 349 351 346 b 343 353 347 346 343 350 b 353 361 343 356 347 361 b 357 353 354 361 356 356 z m 389 496 b 385 481 386 489 385 485 b 390 464 385 476 386 472 l 389 465 b 400 472 393 468 400 471 b 389 496 400 482 399 492 z "},"2":{"ha":539,"x_min":0,"x_max":0,"o":"m 336 529 b 375 596 361 554 375 564 b 374 643 375 611 375 626 b 426 807 408 678 404 750 b 429 826 428 810 429 818 b 328 958 429 919 404 958 b 246 929 301 958 261 956 b 179 858 231 901 190 897 b 165 838 178 850 171 844 b 143 768 150 815 143 793 b 214 697 143 715 181 697 b 258 808 263 697 249 794 b 319 879 272 836 297 879 b 328 868 324 879 328 872 b 275 524 328 749 275 604 b 249 432 275 493 256 467 b 160 301 222 317 190 310 b -10 147 26 263 -10 149 b -28 99 -19 135 -18 113 b -42 28 -39 76 -42 51 b -39 -21 -40 13 -39 -4 b 26 -61 -18 -32 18 -61 b 128 -1 64 -61 124 -33 b 165 46 136 19 163 29 b 218 117 172 65 204 90 b 210 144 214 126 210 138 b 244 181 210 163 244 144 b 236 204 244 189 236 196 b 256 221 236 210 256 214 b 242 242 256 226 250 229 b 279 254 256 246 267 254 b 447 133 336 254 382 133 b 497 172 474 133 497 151 b 440 225 497 207 458 204 b 278 325 392 279 351 317 b 257 353 264 332 257 336 b 293 418 257 364 293 381 b 333 492 293 454 333 472 b 328 514 333 500 328 506 b 336 529 328 521 331 525 z m 182 181 b 154 151 171 169 156 164 b 54 19 143 108 85 22 b 39 32 49 19 39 26 b 163 235 39 118 85 186 b 178 238 167 238 172 238 b 185 231 181 238 182 233 b 178 207 181 222 178 215 b 182 181 178 199 181 189 z m 313 485 b 307 490 311 488 308 489 b 313 494 307 490 311 494 b 315 493 314 494 315 493 b 313 485 315 490 314 488 z m 196 121 b 197 118 196 121 197 119 b 194 114 197 117 196 115 b 193 118 194 115 193 117 b 196 121 193 119 194 121 z m 376 686 b 372 682 376 682 374 682 b 369 688 371 682 369 683 b 374 690 371 688 372 689 b 376 686 375 689 375 688 z m 335 528 b 336 529 335 528 336 529 b 335 528 336 529 335 528 z "},"3":{"ha":560,"x_min":0,"x_max":0,"o":"m 238 100 b 260 99 244 99 253 99 b 261 101 261 100 261 100 b 258 103 261 101 258 103 b 256 100 257 103 256 103 b 260 97 256 99 258 99 b 251 100 257 99 254 100 b 243 99 249 100 246 99 b 239 100 242 99 240 99 b 183 71 215 94 197 71 b 128 108 174 71 140 108 b 99 67 110 108 99 75 b 140 4 99 54 128 14 b 211 -29 182 -24 214 -29 b 271 10 232 -29 242 10 b 343 101 286 10 343 101 b 349 111 343 104 346 108 b 399 186 378 142 378 142 b 404 196 400 190 401 194 b 432 260 429 207 417 238 b 457 321 443 275 457 292 b 450 349 457 332 457 342 l 450 344 b 481 389 454 363 478 372 b 465 404 472 393 465 403 b 468 410 465 407 465 408 b 504 481 489 424 504 463 b 488 524 504 496 488 503 b 392 603 483 571 444 603 b 351 600 378 603 364 600 b 325 601 343 600 335 601 b 303 600 318 601 310 601 b 281 613 294 600 281 606 b 299 649 281 619 296 638 b 354 751 303 692 344 714 b 410 906 374 803 410 856 b 324 983 410 950 374 983 b 157 889 228 983 193 906 b 56 769 126 874 56 794 b 101 708 56 749 89 708 b 192 819 114 708 190 819 b 251 883 203 849 235 858 b 317 918 269 890 299 918 b 328 908 322 918 328 914 b 301 814 322 872 307 846 b 263 685 292 768 263 726 b 207 568 263 651 215 588 b 81 399 179 504 113 468 b 75 376 76 392 75 383 b 129 288 75 342 90 303 b 167 315 143 297 154 306 b 264 489 185 383 238 483 b 329 536 288 493 311 521 b 382 543 347 539 365 543 b 415 467 417 543 415 496 b 379 321 415 414 389 372 b 338 243 379 306 349 272 b 269 146 322 203 288 178 b 238 100 260 129 247 115 z "},"4":{"ha":604,"x_min":0,"x_max":0,"o":"m 428 24 b 447 92 433 49 429 72 b 449 97 449 93 449 94 b 432 160 449 122 432 128 b 439 206 432 175 439 190 b 429 253 439 222 429 238 b 438 283 429 264 438 278 b 429 311 438 290 429 303 b 458 385 429 335 458 356 b 472 440 458 404 464 422 b 496 592 494 490 496 547 b 494 614 496 599 494 606 b 511 668 494 633 511 647 b 521 771 515 701 521 738 b 443 814 521 808 472 814 b 350 535 385 814 415 546 b 197 500 299 525 244 515 b 181 531 181 500 181 517 b 199 642 181 543 199 610 b 192 668 199 653 192 660 b 217 782 192 693 217 750 b 257 914 217 808 257 874 b 213 964 257 949 242 964 b 181 946 203 961 181 961 b 182 924 181 939 182 931 b 178 899 182 915 181 907 b 140 736 161 846 157 790 b 136 718 138 731 136 725 b 138 703 136 713 138 708 b 119 643 138 681 119 661 b 126 622 119 636 126 629 b 103 565 126 607 111 583 b 104 558 103 563 104 561 b 65 444 104 532 65 479 b 67 431 65 440 67 435 b 56 396 67 417 56 407 b 129 346 56 372 103 350 b 236 419 178 364 203 404 b 342 456 269 433 301 453 b 353 389 349 433 353 411 b 335 282 353 354 335 319 b 336 246 335 269 336 258 b 319 176 324 224 319 200 b 321 156 319 169 321 163 b 313 124 321 143 313 135 b 317 92 313 113 317 103 b 314 57 317 79 314 68 b 325 18 314 46 322 29 b 331 -14 328 8 324 -3 b 375 -18 344 -15 360 -18 b 414 38 413 -18 397 38 b 428 24 418 38 421 31 z m 414 338 b 418 329 415 335 418 332 b 413 321 418 321 413 321 b 404 328 407 321 404 324 b 414 338 404 335 410 335 z "},"5":{"ha":557,"x_min":0,"x_max":0,"o":"m 118 42 b 136 50 121 49 128 49 b 132 22 136 38 132 29 b 168 -4 132 4 158 6 b 238 -22 188 -22 214 -17 b 340 31 290 -22 318 29 b 442 233 392 93 438 190 b 435 265 442 244 435 256 b 456 346 435 293 456 315 b 435 469 456 410 435 440 b 438 489 435 475 438 482 b 272 614 438 558 344 614 b 254 613 265 614 260 613 b 218 632 239 613 218 614 b 229 675 218 647 229 660 b 228 685 229 678 229 681 b 335 853 269 756 226 853 b 350 850 340 853 344 850 b 511 894 397 850 458 886 b 529 915 524 896 529 906 b 453 978 529 951 456 978 b 331 922 419 978 363 935 b 256 906 306 913 281 906 b 228 907 247 906 238 907 b 79 500 125 907 146 596 b 57 428 64 479 57 457 b 56 417 57 425 57 421 b 88 382 67 406 74 390 b 128 390 101 385 117 390 b 156 354 146 390 140 354 b 185 372 165 356 185 360 b 176 392 185 378 176 385 b 200 456 176 408 194 433 b 289 526 206 479 240 526 b 374 351 340 526 374 367 b 378 285 374 328 378 306 b 324 146 372 236 353 183 b 226 63 319 139 290 63 b 140 107 189 63 140 107 b 100 68 129 107 100 76 b 118 42 100 60 111 50 z m 411 233 b 419 228 413 232 419 231 b 408 219 419 224 414 219 b 401 226 406 219 401 224 b 411 233 401 232 407 232 z m 117 42 b 118 42 117 42 118 42 b 114 44 117 43 115 43 b 117 42 115 43 117 43 z "},"6":{"ha":617,"x_min":0,"x_max":0,"o":"m 208 563 b 185 553 200 560 192 556 b 176 561 181 553 176 556 b 200 618 176 583 200 592 b 204 615 201 617 203 615 b 215 622 208 615 215 622 b 214 619 215 619 215 619 b 204 622 211 619 208 622 b 200 618 203 622 201 621 b 203 601 201 613 203 607 b 199 588 203 597 201 592 l 203 589 b 200 586 203 589 200 586 b 192 596 197 589 194 593 b 207 561 196 583 197 571 b 290 672 267 561 224 621 b 325 715 304 683 325 717 b 319 728 325 719 322 724 b 297 711 313 713 297 711 b 292 711 294 711 293 711 l 296 701 b 292 711 296 700 293 708 b 386 794 329 721 385 776 b 482 853 386 811 475 850 b 528 864 497 853 511 864 b 576 846 547 864 554 846 b 603 863 586 846 603 850 b 483 965 582 903 513 965 b 392 917 447 965 419 935 b 250 781 335 881 283 839 b 171 656 211 742 193 675 b 128 561 129 618 128 572 b 133 532 128 550 133 538 b 96 472 133 519 97 501 b 78 449 94 458 82 457 b 107 408 78 419 107 417 b 82 346 107 392 82 399 b 96 328 90 336 96 333 b 69 304 96 318 69 317 b 90 283 69 290 90 297 b 83 260 90 276 83 268 b 88 226 83 251 88 239 b 83 194 86 215 83 206 b 110 129 83 175 104 139 b 103 111 107 124 103 117 b 161 32 103 90 158 42 b 288 -33 193 -32 194 -14 b 294 -35 290 -35 292 -35 b 404 21 315 -35 375 6 b 493 158 443 40 464 117 b 496 246 494 188 494 217 b 451 307 496 261 456 303 b 321 365 417 349 344 365 b 307 363 317 365 311 363 b 282 368 299 363 290 368 b 197 342 253 368 207 363 b 165 311 192 329 178 311 b 154 329 157 311 154 324 b 174 407 154 358 174 388 b 208 563 174 463 208 508 z m 372 217 b 368 158 372 197 368 178 b 369 140 368 153 369 146 b 318 57 369 117 325 64 b 253 43 300 39 276 43 b 185 168 204 104 185 135 b 296 296 185 215 250 296 b 372 217 325 296 353 236 z m 156 467 b 153 492 154 475 153 483 b 169 508 153 499 161 508 b 175 499 175 508 175 501 b 156 467 161 492 167 468 z m 256 690 b 242 675 251 685 244 675 b 239 681 240 675 239 679 b 251 694 239 688 246 690 b 256 690 251 694 253 693 z m 176 533 b 172 531 175 532 174 531 b 168 533 169 531 168 532 b 174 536 168 533 169 535 b 176 533 174 536 175 533 z m 97 369 b 94 368 96 369 94 369 b 93 372 93 369 93 372 b 96 374 94 374 94 374 b 97 369 96 374 97 372 z "},"7":{"ha":629,"x_min":0,"x_max":0,"o":"m 396 354 b 388 351 393 353 390 351 b 385 354 386 351 385 354 b 386 356 385 356 386 356 b 394 353 389 356 390 353 b 407 368 399 358 407 360 b 372 383 396 371 372 378 b 411 425 372 394 411 386 b 461 486 411 449 450 485 b 588 535 496 494 588 496 b 535 556 588 553 553 556 b 489 551 519 556 504 551 b 464 568 478 551 464 554 b 471 599 467 578 471 586 b 469 611 471 603 469 607 b 503 749 469 656 503 706 b 561 897 503 785 561 857 b 494 969 561 928 532 940 b 471 978 488 975 479 978 b 407 958 456 978 429 960 b 340 950 385 957 361 956 b 257 942 313 943 285 949 b 144 929 219 938 179 929 b 56 958 108 929 89 958 b 42 947 47 958 42 953 b 154 864 42 886 124 869 b 189 863 165 864 176 863 b 272 875 217 863 243 875 b 351 897 294 875 344 893 b 358 896 354 897 356 896 b 399 903 372 896 385 903 b 419 882 413 903 419 894 b 418 876 418 881 419 879 b 389 729 408 828 397 778 b 371 635 383 697 372 668 b 372 622 371 631 372 626 b 332 531 372 600 340 531 b 225 511 299 524 258 511 b 174 524 207 511 186 524 b 154 506 161 524 154 513 b 265 426 167 456 214 426 b 314 442 282 426 300 442 b 336 424 319 442 336 433 b 317 354 336 403 317 379 b 318 332 317 347 318 340 b 297 268 318 318 297 293 b 279 119 293 217 290 165 b 267 28 271 89 267 58 b 313 -6 267 4 294 -6 b 332 11 322 -6 326 1 b 381 94 371 17 381 10 b 375 122 381 107 379 122 b 356 99 371 114 368 99 b 347 129 349 99 347 121 b 392 185 347 169 392 151 b 367 204 392 197 367 181 b 400 232 367 215 400 215 b 392 246 400 236 399 246 b 371 239 386 244 376 239 b 360 251 364 239 360 246 b 374 300 360 265 374 281 b 372 314 374 304 372 310 b 390 339 372 333 385 326 b 396 354 392 344 393 349 z m 331 192 b 326 190 329 192 328 190 b 324 192 326 190 325 190 b 342 206 338 192 325 206 b 347 196 347 206 347 201 b 340 190 347 192 344 190 b 331 192 336 192 333 192 z m 460 633 b 453 628 457 632 456 629 b 451 631 453 629 451 631 b 458 638 451 632 456 636 b 460 633 458 636 460 635 z m 392 428 b 389 426 390 428 390 426 b 385 429 388 426 386 428 b 389 431 386 429 388 431 b 392 428 390 431 390 429 z m 404 296 b 396 288 401 293 396 293 b 404 296 401 288 400 294 z m 406 294 b 404 296 406 294 404 296 b 410 303 406 299 407 300 b 406 307 410 306 408 307 b 401 303 403 307 401 306 b 406 294 401 300 404 297 z "},"8":{"ha":604,"x_min":0,"x_max":0,"o":"m 349 603 b 346 606 347 604 347 604 b 347 608 346 607 347 608 b 365 593 347 597 358 596 b 411 689 392 628 364 689 b 458 846 417 725 429 764 b 474 868 469 851 474 860 b 435 940 474 901 461 933 b 342 985 410 947 378 985 b 263 928 335 985 276 954 b 246 901 258 918 254 908 b 196 824 221 881 218 847 b 171 744 193 796 174 774 b 142 611 167 700 142 658 b 157 533 142 583 150 560 b 206 433 174 522 197 446 b 158 354 206 421 156 353 b 60 236 122 321 96 272 b 32 200 56 219 36 214 b -69 94 11 147 -69 92 b -24 68 -69 78 -29 68 b 43 101 -6 68 18 101 b 254 -26 89 22 169 -26 b 426 38 324 -26 369 8 b 503 111 456 53 493 103 b 549 201 524 132 547 167 b 563 257 550 219 563 243 b 500 354 563 286 517 344 b 296 472 451 383 296 425 b 329 536 296 492 325 532 b 350 593 340 553 350 571 b 349 603 350 596 349 599 z m 149 236 b 168 288 151 254 156 283 b 251 386 200 300 208 386 b 338 344 275 386 307 353 b 476 249 410 324 476 286 b 431 131 476 199 457 186 b 396 103 422 113 406 115 b 254 35 360 63 278 35 b 100 128 188 35 115 54 b 89 157 97 139 89 147 b 149 236 89 190 129 225 z m 332 639 b 292 564 306 618 315 579 b 261 518 275 553 281 518 b 236 618 240 539 236 589 b 261 758 236 664 244 726 b 272 790 269 769 272 781 b 372 899 272 826 351 899 b 406 844 401 899 406 869 b 393 765 406 821 406 774 b 349 660 374 756 349 657 b 350 644 349 656 350 649 b 332 639 350 639 346 639 z "},"9":{"ha":685,"x_min":0,"x_max":0,"o":"m 394 121 b 396 132 396 124 396 128 l 394 131 b 407 143 399 135 403 139 l 406 142 b 411 146 408 144 410 146 b 418 142 413 146 414 144 l 417 143 b 428 160 424 150 428 156 b 417 183 428 165 417 179 b 433 215 417 188 433 203 b 428 258 433 224 428 247 b 450 279 428 269 450 258 b 442 293 450 285 442 288 b 451 310 442 299 451 304 b 436 322 451 318 446 313 b 478 389 439 350 454 365 b 482 401 481 392 482 396 b 479 418 482 407 479 417 b 497 439 486 425 492 432 b 475 456 488 444 475 451 b 503 500 475 454 499 492 b 508 521 503 507 506 514 b 511 517 510 519 510 518 b 503 500 511 514 506 504 b 533 525 515 507 533 514 b 529 544 533 529 529 536 b 604 711 560 575 599 674 b 643 836 619 724 643 804 b 551 889 643 869 585 889 b 483 790 526 889 525 817 b 382 704 444 765 411 704 b 367 681 376 704 371 681 b 167 561 303 664 236 561 b 126 619 132 561 126 594 b 390 861 126 754 301 861 b 460 853 413 861 435 853 b 469 865 464 853 469 860 b 363 938 469 906 378 938 b 190 850 271 938 213 853 b 113 776 165 847 136 800 b 56 660 74 738 56 686 b 157 488 56 613 79 540 b 189 485 169 488 179 486 b 300 532 224 485 264 513 b 415 672 317 583 396 658 b 471 719 435 685 461 718 b 485 706 479 719 485 711 b 457 568 485 668 481 607 b 454 553 454 564 454 557 b 456 543 454 549 456 546 b 429 433 456 510 429 457 b 435 410 429 425 435 418 b 410 354 435 392 410 376 b 411 347 410 351 411 350 b 394 301 411 335 394 322 b 374 261 394 283 378 275 b 326 139 365 194 350 143 b 253 75 303 129 288 75 b 207 89 236 75 224 89 b 171 61 190 89 182 75 b 263 -10 192 32 226 -10 b 365 36 275 -8 365 1 b 406 94 365 65 406 57 b 394 121 406 103 401 113 z m 386 172 b 381 181 383 175 381 176 b 390 190 381 185 385 190 b 394 186 393 190 394 189 b 386 172 394 181 392 172 z m 417 143 b 406 142 414 142 410 142 l 407 143 b 394 131 403 139 399 135 l 396 132 b 396 119 396 128 396 124 l 394 121 b 417 143 404 125 415 129 z "},"B":{"ha":893,"x_min":0,"x_max":0,"o":"m 276 549 b 272 556 275 551 274 553 b 275 558 272 557 275 558 b 278 553 276 557 278 554 b 276 547 278 551 276 549 b 290 586 283 560 290 572 b 283 613 290 594 283 604 b 285 624 283 615 285 619 b 283 658 283 635 283 646 b 286 665 285 661 285 663 b 283 661 285 664 283 663 b 285 658 283 660 285 660 b 339 736 297 672 339 725 b 338 747 339 740 338 743 b 360 788 338 764 349 775 b 356 799 358 789 356 794 b 360 800 356 800 358 800 b 363 796 361 800 363 799 b 358 788 361 793 360 790 b 374 868 375 811 372 838 b 389 865 379 865 383 865 b 435 899 411 865 413 894 b 451 922 447 900 447 914 l 450 924 b 549 957 476 932 522 957 b 572 907 569 957 572 938 b 551 813 572 875 561 843 b 542 789 544 806 542 797 b 549 747 542 775 549 761 b 451 624 549 717 476 653 b 393 565 433 603 413 583 b 268 463 346 543 300 494 b 267 432 267 453 267 442 b 318 376 268 407 292 376 b 419 475 340 376 399 450 b 574 593 503 558 508 572 b 611 599 586 597 599 599 b 706 526 661 599 706 581 b 664 482 706 500 681 496 b 465 263 588 418 522 346 b 374 43 419 194 397 121 b 369 18 371 35 369 26 b 419 -93 369 -25 383 -79 b 483 -119 442 -101 463 -119 b 563 -81 526 -119 553 -81 b 646 10 582 -78 644 7 b 689 79 658 33 676 54 b 729 157 701 107 706 133 b 756 256 735 192 756 217 b 778 318 756 276 778 296 b 776 332 778 322 776 328 b 893 554 776 556 893 475 b 867 588 893 568 881 588 b 792 565 851 588 803 565 b 717 628 763 565 735 613 b 603 657 682 656 651 657 b 575 651 593 657 583 651 b 554 665 567 651 554 657 b 586 700 554 686 586 679 b 610 744 586 722 610 728 b 646 811 610 761 640 781 b 664 869 649 831 663 849 b 639 979 660 900 653 972 b 626 990 631 981 626 983 b 628 1003 626 993 628 999 b 565 1032 628 1018 574 1032 b 508 1013 550 1032 519 1031 b 501 1011 507 1011 503 1011 b 438 967 472 1011 460 981 b 379 897 410 950 390 925 b 372 889 378 894 375 890 b 339 836 343 885 356 851 b 296 761 321 819 296 774 b 299 735 296 751 299 743 b 257 658 294 703 257 707 b 243 633 257 647 256 633 b 233 654 233 633 233 649 b 243 746 233 681 235 721 b 181 894 239 813 232 894 b 135 863 158 894 135 885 b 154 821 135 850 154 838 b 115 582 154 750 129 658 b 79 396 107 518 79 467 b 100 343 79 375 100 356 b 89 317 100 335 89 326 b 90 303 89 313 90 307 b 69 249 90 279 69 268 b 85 50 69 190 72 104 b 160 6 92 21 92 6 b 226 139 215 6 226 101 b 225 154 226 144 225 149 b 242 231 231 178 242 221 b 238 299 242 253 238 276 b 257 360 238 328 257 361 b 256 374 256 364 256 369 b 261 428 256 392 261 410 b 258 456 261 436 258 446 b 278 528 258 479 278 500 b 276 549 278 535 278 542 z m 693 396 b 706 344 697 371 706 360 b 632 192 706 300 651 239 b 644 168 636 185 644 175 b 617 121 644 153 617 140 b 576 60 617 88 576 86 b 578 47 576 56 578 51 b 514 -19 578 36 514 -19 b 464 -32 496 -25 482 -32 b 446 0 447 -32 446 -12 b 672 382 456 193 647 360 b 693 396 678 388 683 394 z m 450 924 b 453 922 450 922 451 922 b 450 924 453 924 451 924 z "},"C":{"ha":572,"x_min":0,"x_max":0,"o":"m 417 71 b 410 75 415 72 413 74 b 411 78 410 75 411 78 b 415 69 417 78 415 72 b 501 217 465 100 501 163 b 513 246 501 228 507 236 l 513 244 b 493 263 507 251 500 263 b 422 175 481 263 449 190 b 414 160 417 169 414 165 b 417 144 414 154 417 149 b 335 92 417 143 357 108 b 303 82 325 83 314 82 b 221 176 249 82 224 140 b 203 322 217 225 203 274 b 206 350 203 331 206 340 b 204 382 206 361 204 371 b 226 554 204 432 226 486 b 258 685 226 618 257 685 b 254 699 258 689 254 694 b 296 757 254 700 288 743 b 331 817 307 776 331 806 b 329 824 331 818 331 821 b 435 943 350 858 392 943 b 444 924 443 943 444 929 b 442 888 444 911 442 901 b 468 793 442 854 443 793 b 508 889 493 799 507 869 b 538 997 521 925 538 961 b 450 1046 538 1042 485 1025 b 364 1064 422 1063 393 1061 b 271 944 304 1064 279 950 b 199 832 217 908 199 828 b 147 742 199 772 147 768 b 149 733 147 739 147 736 b 135 701 149 725 135 717 b 140 658 135 685 140 672 b 122 576 140 631 122 610 b 111 535 122 563 111 550 b 83 422 111 456 83 456 b 85 392 83 411 85 401 b 83 363 85 382 83 372 b 89 317 83 346 89 329 b 83 294 89 310 83 303 b 92 271 83 285 92 278 b 88 253 92 264 88 258 b 104 215 88 240 104 232 b 96 179 104 203 96 190 b 115 94 96 151 115 124 b 186 10 115 65 183 21 b 215 -15 189 -7 186 -15 b 232 -14 221 -15 226 -14 b 274 -29 247 -14 261 -19 b 313 -17 288 -26 296 -17 b 315 -18 313 -17 314 -18 b 417 71 358 -18 406 39 z m 207 533 b 203 536 203 533 203 533 b 207 533 206 536 207 536 z m 435 100 b 431 99 433 100 432 99 b 429 103 431 100 429 103 b 432 104 431 104 431 104 b 435 100 433 104 435 103 z m 711 525 b 696 543 711 535 706 543 b 624 451 646 535 650 481 b 622 449 624 450 622 450 b 636 438 622 440 629 438 b 692 499 693 438 660 496 b 711 525 704 500 711 513 z m 513 244 b 525 267 514 253 519 254 b 538 229 533 251 532 229 b 547 254 544 229 547 249 b 535 321 547 275 542 321 b 508 268 521 321 508 286 b 513 244 508 261 510 253 z m 565 294 b 571 301 568 297 571 299 b 565 328 571 310 567 319 b 582 358 565 340 582 326 b 576 379 582 365 581 372 b 553 328 561 367 553 347 b 565 294 553 315 557 304 z m 624 368 b 618 400 624 401 624 400 b 600 361 607 400 601 374 b 610 347 600 356 606 347 b 624 369 625 347 624 368 b 624 368 624 369 624 369 z "},"D":{"ha":896,"x_min":0,"x_max":0,"o":"m 449 867 b 443 861 446 867 443 864 b 447 860 443 860 446 860 b 450 861 449 860 450 860 b 447 867 450 863 447 865 b 401 785 426 850 401 810 b 419 760 401 771 419 772 b 411 756 418 758 414 756 b 392 757 406 756 399 756 l 393 758 b 388 686 390 735 388 710 b 389 661 388 678 389 669 b 388 651 389 658 389 654 b 389 653 388 651 389 653 b 371 657 383 654 376 656 b 396 638 376 650 386 638 b 435 711 417 638 400 693 b 442 725 440 714 442 719 b 433 767 442 736 433 756 b 467 781 433 782 467 768 b 456 801 467 786 456 794 b 492 846 456 808 492 817 b 521 869 492 867 521 869 b 540 899 525 881 532 889 b 539 906 539 901 539 903 b 631 956 539 919 621 956 b 728 796 682 956 718 835 b 733 750 732 779 733 767 b 753 700 733 725 753 707 b 735 656 753 686 735 671 b 746 635 735 649 740 640 b 725 567 731 613 739 610 l 724 568 b 765 549 743 565 765 551 b 706 501 765 529 706 539 b 681 408 701 467 681 449 b 689 376 681 399 689 388 b 671 342 689 367 671 357 b 672 325 671 336 672 331 b 644 261 672 296 644 283 b 626 219 644 244 626 239 b 604 175 626 201 613 190 b 583 182 596 178 590 182 b 518 108 575 182 535 121 b 488 75 503 97 503 78 b 406 67 460 68 433 67 b 332 115 367 67 356 79 b 286 168 317 138 288 119 b 300 206 286 182 300 192 b 297 221 300 211 297 217 b 307 260 297 233 307 247 b 299 310 307 276 299 296 b 301 318 299 315 300 318 b 304 314 303 318 304 315 b 303 290 304 306 303 297 b 326 300 310 293 326 289 b 315 343 326 317 315 328 b 318 360 315 349 317 354 b 314 363 314 360 314 360 b 317 358 315 363 315 361 b 328 357 321 358 325 358 l 329 361 b 326 358 329 361 326 358 b 336 349 332 351 329 349 b 347 358 342 350 347 353 b 338 435 346 382 338 407 b 343 471 338 447 343 460 b 340 496 343 479 340 488 b 363 542 340 513 340 529 b 379 568 374 549 379 558 b 368 635 379 588 368 613 b 375 664 368 643 375 657 b 357 692 375 671 357 675 b 358 715 358 700 358 708 l 360 717 b 344 672 350 703 344 688 b 350 636 344 660 350 647 b 338 590 350 618 338 603 b 342 574 338 585 339 579 b 340 565 342 571 340 568 b 342 575 340 568 340 571 b 321 592 329 575 328 583 b 314 576 315 586 314 583 b 315 565 314 572 315 569 b 303 540 315 554 308 547 l 303 542 b 304 529 303 538 304 533 b 276 479 304 514 276 503 b 285 426 276 472 276 440 b 267 411 285 419 267 417 b 281 396 267 407 281 399 b 257 390 281 390 267 390 b 233 401 244 390 233 393 b 247 425 233 411 247 415 b 233 501 243 450 233 482 b 272 644 233 569 272 607 b 267 669 272 653 267 663 b 292 747 267 692 292 722 b 164 931 292 828 258 931 b 117 897 139 931 117 924 b 131 825 117 875 131 851 b 128 763 131 804 128 779 b 142 706 128 742 142 719 b 124 635 142 685 124 660 b 125 624 124 631 124 628 b 111 565 121 607 111 572 b 125 517 111 561 125 525 b 106 428 125 492 106 492 b 101 379 106 413 106 396 b 104 358 101 375 104 367 b 100 336 104 351 100 343 b 107 311 100 328 107 319 b 94 281 107 299 94 293 b 96 272 94 278 96 275 b 85 203 83 253 85 225 b 101 138 85 181 101 160 b 89 92 101 121 89 104 b 139 -92 89 67 92 -92 b 186 -83 154 -92 172 -83 b 206 -89 193 -83 197 -89 b 289 28 231 -89 267 -11 b 388 -11 324 10 354 -11 b 407 -10 394 -11 400 -11 b 419 -12 411 -11 415 -12 b 525 28 471 -12 493 25 b 532 35 531 29 532 32 b 529 53 532 43 529 47 b 586 93 529 82 586 56 b 583 114 586 100 583 108 b 626 150 583 138 626 128 b 640 188 626 165 640 176 b 639 197 640 190 640 194 b 689 278 639 240 676 278 b 692 276 690 278 690 276 b 699 278 694 276 697 278 b 704 254 703 269 701 260 l 703 256 b 713 294 711 260 713 278 b 713 314 713 301 713 308 b 758 368 725 333 738 368 b 767 376 763 369 767 372 b 765 394 767 383 765 390 b 785 413 765 404 782 400 b 789 454 785 426 788 440 b 779 458 786 456 779 456 b 782 461 779 461 781 461 b 788 453 788 461 785 456 b 825 500 807 464 815 482 b 806 532 814 511 806 518 b 826 600 806 556 826 585 b 840 722 826 642 840 681 b 833 749 840 732 833 739 b 836 757 833 750 836 754 b 824 790 836 768 824 769 b 831 817 826 799 831 808 b 807 856 831 829 814 825 b 764 949 799 889 796 944 b 642 1032 754 951 743 1032 b 501 944 603 1032 528 983 b 449 867 482 917 449 903 z m 746 451 b 740 446 744 450 743 447 b 738 447 740 446 738 447 b 742 453 738 451 740 453 b 747 451 743 453 746 451 b 746 457 747 453 746 456 b 751 460 746 458 747 460 b 746 451 749 457 747 454 z m 186 228 b 192 217 188 224 189 221 b 186 214 192 215 189 214 b 183 217 185 214 183 215 b 192 236 183 222 192 229 b 190 249 192 240 190 244 b 196 258 190 254 192 254 b 201 246 200 254 201 250 b 186 228 201 238 193 232 z m 304 471 b 314 460 310 469 314 467 b 308 451 314 458 313 451 b 299 458 303 451 299 456 b 304 472 300 463 303 467 b 300 481 303 475 301 478 b 303 483 300 481 303 483 b 306 476 304 481 306 479 b 304 471 306 475 304 472 z m 706 385 b 704 393 706 388 704 390 b 717 403 704 397 711 401 b 725 390 721 403 725 396 b 696 335 725 376 708 335 b 690 340 693 335 690 339 b 706 385 707 368 706 368 z m 257 290 b 243 344 250 297 253 319 b 249 363 243 351 243 358 b 263 314 258 336 263 325 b 257 290 263 307 260 301 z m 239 276 b 236 285 238 279 236 282 b 239 292 236 288 239 292 b 243 288 242 292 243 290 b 239 276 243 283 240 281 z m 221 368 b 217 361 219 367 218 364 b 215 365 217 363 215 364 b 218 372 215 367 217 369 b 221 368 218 371 219 369 z m 738 510 b 731 504 735 508 732 506 b 726 511 729 507 728 508 b 731 514 726 513 729 514 b 738 510 733 514 735 511 z m 774 911 b 771 910 772 911 771 910 b 768 913 769 911 768 913 b 772 917 768 914 772 917 b 774 911 774 917 774 914 z m 811 740 b 815 732 817 740 815 735 b 813 728 815 731 814 729 b 808 736 811 731 810 733 b 811 740 808 738 810 739 z m 225 436 b 229 444 226 439 228 442 b 232 439 232 442 232 442 b 229 433 232 436 231 435 b 225 436 228 433 226 436 z m 750 404 b 753 400 751 403 753 401 b 750 397 751 399 751 399 b 750 404 750 400 750 401 z m 494 40 b 492 38 494 40 493 38 b 488 40 489 38 488 39 b 493 44 488 43 488 44 b 494 40 493 44 494 42 z m 294 360 b 292 357 293 358 292 357 b 288 365 290 360 289 363 b 290 368 288 365 290 368 b 294 360 294 365 294 364 z m 157 339 b 156 335 157 338 156 336 b 153 338 154 336 153 338 b 157 339 153 339 156 339 z m 303 542 b 303 540 303 540 303 540 b 303 542 303 540 303 542 z m 360 717 b 358 715 360 717 358 717 b 360 717 358 715 360 717 z m 703 256 b 696 251 700 256 696 254 b 699 247 696 251 697 247 b 703 256 700 247 703 250 z m 681 239 b 678 242 679 240 678 242 b 674 239 676 242 674 240 b 676 236 674 238 675 236 b 681 239 678 236 679 238 z m 393 758 b 392 757 393 758 392 757 b 386 763 389 758 388 761 b 383 761 385 763 383 761 b 388 757 383 757 385 757 b 393 758 389 757 390 757 z m 388 651 b 389 653 388 651 389 653 b 388 651 389 653 388 651 z m 724 568 l 725 567 b 721 568 724 568 722 568 b 718 565 719 568 718 567 b 721 560 718 564 719 563 b 724 568 722 563 724 565 z "},"E":{"ha":649,"x_min":0,"x_max":0,"o":"m 261 164 b 257 194 258 179 257 186 b 268 244 257 203 268 226 b 261 278 268 256 261 267 b 263 293 261 282 263 288 b 256 313 263 300 256 307 b 264 338 256 321 264 329 b 260 394 264 356 260 374 b 483 503 260 488 483 394 b 379 542 483 536 431 542 b 292 539 343 542 310 539 b 251 593 256 539 251 549 b 254 642 251 610 254 626 b 247 864 254 715 247 789 b 268 882 247 874 258 882 b 611 860 382 865 497 860 b 649 879 635 864 649 871 b 643 903 649 886 643 896 b 644 922 643 910 644 915 b 550 968 644 964 585 968 b 524 965 542 968 532 965 b 367 972 471 965 419 972 b 338 971 357 972 347 971 b 292 978 321 971 307 978 b 265 976 283 978 274 976 b 153 996 246 976 186 982 b 149 997 151 996 150 997 b 114 832 119 997 114 869 b 115 801 114 822 115 811 b 110 710 115 772 110 733 b 117 667 110 696 117 682 b 111 646 117 660 111 653 b 113 624 111 639 113 632 b 108 589 113 613 108 601 b 111 554 108 578 110 565 b 97 518 111 539 97 529 b 119 454 97 497 119 472 b 108 422 119 444 108 432 b 111 289 108 378 111 333 b 110 276 111 285 110 281 b 119 239 110 263 119 251 b 104 186 110 229 104 185 b 183 -7 104 93 110 -7 b 435 4 268 -3 353 4 b 553 -1 474 4 514 -1 b 618 56 590 -1 618 1 b 513 96 618 89 553 93 b 492 90 506 92 499 90 b 472 92 485 90 479 92 b 310 82 418 92 353 82 b 272 93 292 82 272 83 b 285 138 272 108 285 126 b 261 164 285 153 272 156 z m 183 218 b 169 236 174 221 169 228 b 178 250 169 240 171 250 b 188 233 185 250 188 238 b 183 217 188 228 186 222 b 193 197 190 217 193 200 b 186 178 193 192 190 188 b 179 203 182 186 179 194 b 183 218 179 207 181 213 z m 231 313 b 221 335 224 322 221 328 b 229 356 221 339 222 347 b 236 336 236 349 236 342 b 231 313 236 332 235 325 z m 179 551 b 171 581 174 563 171 571 b 175 596 171 585 171 596 b 182 592 176 596 182 593 b 179 551 181 579 181 565 z m 219 613 b 214 626 217 617 214 621 b 218 635 214 628 214 635 b 225 625 222 635 225 632 b 219 613 225 621 224 617 z m 171 388 b 167 382 168 385 171 382 b 164 388 165 382 164 385 b 168 390 165 389 167 390 b 171 388 168 390 169 389 z m 222 553 b 219 550 221 551 219 550 b 215 557 218 551 217 554 b 218 560 215 557 218 560 b 222 553 221 558 222 556 z m 147 226 b 143 229 144 226 143 226 b 144 231 143 231 144 231 b 147 226 147 231 147 228 z "},"F":{"ha":583,"x_min":0,"x_max":0,"o":"m 124 381 b 108 322 113 361 108 342 b 113 254 108 299 113 276 b 110 157 113 221 110 189 b 121 108 110 139 121 124 b 119 79 121 99 119 89 b 143 -8 119 49 131 22 b 135 -32 143 -21 135 -21 b 139 -35 136 -33 138 -35 b 165 -28 149 -32 158 -28 b 190 -39 175 -28 181 -39 b 293 58 282 -39 293 31 b 283 118 293 75 283 96 b 285 171 283 136 285 153 b 276 294 285 213 276 253 b 278 308 276 299 278 303 b 267 315 278 311 271 315 b 249 313 261 315 256 313 b 243 324 244 313 243 319 b 261 439 243 350 261 397 b 388 468 267 465 340 468 b 450 467 425 468 431 467 b 501 497 469 467 501 472 b 400 565 501 557 442 565 b 276 557 354 565 346 557 b 250 644 249 557 250 563 b 260 703 250 665 260 689 b 257 729 260 711 257 719 b 261 765 257 742 261 753 b 260 783 261 771 260 778 b 265 826 260 797 265 813 b 257 878 265 844 258 863 b 474 926 257 913 474 925 b 540 918 496 926 518 918 b 583 963 581 918 583 940 b 508 993 583 988 532 993 b 499 992 503 993 499 993 b 500 992 499 992 499 992 b 446 997 482 996 464 997 b 232 974 378 997 303 974 b 190 978 218 974 207 978 b 97 940 139 978 97 967 b 106 878 97 918 106 899 b 104 799 106 853 104 825 b 113 693 104 758 113 721 b 111 633 113 672 111 653 b 122 557 111 604 122 579 b 115 526 122 547 115 538 b 119 463 115 506 119 483 b 107 414 119 456 107 415 b 124 381 107 406 114 394 z m 242 399 b 232 372 240 392 240 378 b 224 404 226 383 224 392 b 233 433 224 413 225 433 b 242 399 243 424 240 414 z m 199 403 b 193 390 197 397 197 390 b 182 406 185 390 182 399 b 192 421 182 413 185 421 b 199 403 196 421 199 408 z m 194 288 b 190 301 192 292 190 297 b 196 321 190 308 193 314 b 200 304 199 315 200 310 b 194 288 200 299 199 293 z m 193 564 b 197 558 194 561 197 560 b 192 553 197 554 194 553 b 189 557 190 554 189 556 b 193 564 190 558 192 561 z "},"G":{"ha":829,"x_min":0,"x_max":0,"o":"m 433 -50 b 444 -51 438 -50 442 -51 b 476 -11 471 -51 456 -22 b 565 106 531 17 526 76 b 654 278 563 104 626 219 b 771 294 690 296 729 290 b 801 329 781 304 801 321 b 757 351 801 349 779 351 b 707 350 736 351 722 350 b 686 356 700 350 693 351 b 699 406 690 372 689 393 b 750 621 711 419 749 621 b 667 740 750 706 717 740 b 626 732 654 740 639 732 b 615 733 622 732 618 733 b 533 668 593 733 556 682 b 201 476 421 599 300 499 b 178 511 189 476 178 499 b 201 606 178 539 201 578 b 224 663 201 640 217 640 b 328 835 229 718 292 797 b 482 929 371 881 432 929 b 597 883 525 929 569 883 b 633 906 610 883 633 890 b 526 992 633 957 563 972 b 431 1029 496 1007 467 1028 b 407 1039 422 1029 414 1039 b 361 1022 393 1039 393 1022 b 324 993 336 1022 340 1000 b 275 967 308 986 279 983 b 194 900 268 944 201 915 b 165 864 185 878 169 886 b 154 847 165 856 161 849 b 140 810 136 840 144 824 b 97 757 122 794 97 778 b 103 731 97 749 103 742 b 49 588 57 685 64 638 b 35 536 43 571 35 554 b 36 525 35 532 36 529 b 28 496 36 514 28 506 b 113 396 28 431 113 394 b 169 368 125 378 157 368 b 204 374 182 368 193 374 b 225 360 213 374 218 360 b 236 365 229 360 232 361 b 249 363 240 364 244 363 b 328 393 282 363 317 393 b 418 472 356 393 406 456 b 454 497 429 486 449 486 b 503 546 461 518 497 546 b 517 539 507 546 513 539 b 563 583 525 539 549 568 b 585 514 571 564 585 544 b 576 463 585 497 576 479 b 579 426 576 450 579 438 b 549 321 579 404 565 353 b 292 128 442 274 379 229 b 194 -62 250 79 194 -4 b 292 -122 194 -117 269 -122 b 375 -99 319 -122 353 -122 b 433 -50 397 -76 406 -107 z m 404 -31 b 310 -56 369 -31 342 -56 b 286 -50 303 -56 290 -56 b 469 207 293 63 422 165 b 528 243 486 222 513 243 b 542 229 536 243 542 236 b 532 194 539 217 536 206 b 536 192 535 194 536 193 b 533 196 535 192 535 193 b 515 149 519 183 515 167 b 517 122 515 140 517 132 b 449 14 483 94 461 58 b 403 -29 429 0 417 -8 b 407 -28 404 -29 406 -29 b 404 -26 406 -26 406 -26 b 403 -28 404 -26 403 -26 b 404 -31 403 -29 404 -29 z m 561 235 b 558 232 560 233 560 232 b 557 235 558 233 557 235 b 560 239 557 236 558 238 b 561 235 560 238 561 236 z "},"H":{"ha":813,"x_min":0,"x_max":0,"o":"m 706 713 b 694 738 701 721 694 728 b 696 747 694 740 696 743 b 692 765 696 751 692 760 b 718 783 692 776 714 768 b 751 944 731 875 751 926 b 674 1010 751 1000 729 1010 b 582 956 631 1010 582 1004 b 533 743 582 903 538 797 b 511 633 533 703 511 668 b 513 607 511 625 513 614 b 454 567 513 574 500 597 b 357 536 431 550 386 543 b 250 500 324 528 299 503 b 231 504 243 500 238 504 b 208 489 218 504 221 489 b 203 499 204 489 203 494 b 238 558 203 528 238 529 b 235 572 238 563 235 568 b 242 596 235 581 242 589 b 235 628 242 606 235 617 b 256 675 235 646 256 661 b 253 690 256 679 253 685 b 261 715 253 699 261 707 b 253 742 261 725 253 732 b 283 840 253 776 283 815 b 257 858 283 854 257 840 b 264 940 263 885 264 908 b 236 999 264 969 260 999 b 140 979 207 999 160 989 b 129 890 136 949 139 919 b 128 885 129 889 128 888 b 131 849 128 872 131 861 b 126 796 131 831 126 814 b 146 761 126 778 146 772 b 143 753 146 758 144 754 b 122 657 125 728 122 692 b 124 610 122 640 124 625 b 118 564 124 592 122 575 b 99 458 106 532 110 472 b 83 418 88 446 83 432 b 89 313 83 386 89 347 b 85 257 89 293 85 275 b 88 219 85 244 88 232 b 86 193 88 210 86 201 b 93 83 86 157 92 119 b 90 65 90 76 90 71 b 104 -12 90 39 104 17 b 124 -100 104 -44 124 -69 b 122 -108 124 -103 122 -106 b 172 -158 122 -131 160 -158 b 224 -64 197 -158 224 -96 b 211 0 224 -43 211 -24 b 197 103 211 35 200 68 b 175 79 189 93 189 79 b 168 113 164 79 169 113 b 149 200 168 142 149 126 b 164 232 149 213 164 222 b 143 257 164 244 146 244 b 140 319 143 278 142 299 b 167 358 150 333 158 346 b 143 350 158 356 151 353 b 140 357 143 350 140 354 b 143 361 140 358 142 361 b 175 333 172 361 164 333 b 178 339 176 333 178 336 b 176 349 178 342 176 346 b 186 368 176 358 179 368 b 197 354 190 368 194 354 b 268 406 207 354 231 406 b 451 464 311 406 415 464 b 482 382 468 464 472 401 b 485 368 483 378 485 374 b 472 307 485 349 472 331 b 521 229 472 283 521 240 b 500 210 521 219 507 215 b 488 229 496 215 493 221 b 471 185 482 211 471 196 b 492 -10 471 117 488 61 b 521 -43 493 -25 507 -43 b 596 78 556 -43 596 65 b 576 150 596 103 576 135 b 594 192 576 165 594 181 b 581 207 594 204 583 204 b 594 251 581 228 594 233 b 593 261 594 254 593 258 b 596 269 593 265 594 268 b 611 332 608 288 611 310 b 608 389 611 353 608 372 b 633 424 608 410 613 424 b 644 407 636 424 639 417 b 700 524 654 453 657 497 b 757 607 728 540 757 585 b 742 633 757 613 753 633 b 697 610 732 633 728 610 b 681 633 686 610 681 615 b 706 713 681 665 683 686 z m 601 629 b 600 628 601 628 600 628 b 603 628 601 628 601 628 l 601 625 b 601 629 601 625 601 629 z m 569 293 b 560 306 567 297 563 301 b 567 315 560 307 563 315 b 572 307 569 313 572 310 b 568 293 572 303 569 297 b 579 275 571 286 579 282 b 571 265 579 269 576 268 b 565 272 569 265 565 269 b 569 293 565 279 568 288 z m 178 479 b 179 475 179 478 179 476 b 178 471 179 474 179 472 b 174 472 176 471 175 472 b 179 478 175 475 178 476 b 158 517 168 488 158 504 b 176 535 158 525 167 532 b 188 507 188 535 188 517 b 178 479 188 499 188 479 z m 125 115 b 126 114 125 113 126 114 b 107 176 106 133 107 151 b 119 214 107 190 108 207 b 124 210 122 214 124 213 b 121 199 124 206 121 201 b 136 153 121 186 136 169 b 125 115 136 140 125 125 z m 565 151 b 553 125 564 146 564 131 b 539 147 539 125 539 138 b 556 179 539 157 544 179 b 565 151 564 179 563 165 z m 132 76 b 139 29 136 61 139 44 b 136 6 139 21 136 13 b 118 67 132 7 118 51 b 132 76 118 69 122 74 z m 126 357 b 119 350 124 354 121 351 b 111 378 110 350 111 374 b 115 381 111 378 114 381 b 126 357 126 375 125 364 z m 522 111 b 525 103 525 111 525 107 b 518 82 525 93 525 82 b 506 97 510 82 506 93 b 522 111 506 104 511 111 z m 207 607 b 210 590 208 601 210 596 b 207 578 210 586 208 582 b 204 590 204 583 204 586 b 207 607 204 594 204 599 z m 213 717 b 204 724 207 717 204 718 b 215 738 204 731 215 738 b 222 728 221 738 222 731 b 213 717 222 721 218 718 z m 501 315 b 496 308 501 313 499 311 b 493 317 496 311 493 314 b 499 324 493 319 496 321 b 501 315 500 321 501 318 z m 574 386 b 567 376 572 382 571 376 b 561 382 564 376 561 378 b 569 390 561 386 565 390 b 574 386 571 390 574 389 z m 569 335 b 565 333 568 335 567 333 b 564 336 565 333 564 336 b 568 339 564 336 565 339 b 571 338 568 339 569 339 b 569 335 571 338 569 336 z m 668 681 b 665 678 667 679 667 678 b 663 679 664 678 663 679 b 664 686 663 682 664 685 b 668 681 668 686 668 682 z m 207 650 b 206 646 207 649 207 647 b 204 650 206 647 204 649 b 206 654 204 651 206 653 b 207 650 207 653 207 651 z m 185 610 b 181 618 183 613 181 615 b 185 626 181 621 183 624 b 189 618 186 624 189 621 b 185 610 189 615 186 613 z m 153 24 b 156 22 153 24 156 22 b 154 18 156 21 154 19 b 151 19 153 19 151 19 b 153 24 151 21 151 22 z m 561 221 b 564 213 563 218 564 215 b 561 210 564 211 563 210 b 558 213 560 210 558 211 b 561 221 558 215 560 218 z m 160 279 b 171 296 169 285 168 285 b 168 297 171 296 169 297 b 158 293 165 297 158 296 b 160 279 158 289 160 285 z m 707 711 b 706 713 707 711 706 713 b 717 738 710 719 717 732 b 714 740 717 739 717 740 b 703 724 706 740 703 729 b 707 711 703 719 704 715 z m 167 158 b 163 167 167 163 165 164 b 158 158 161 164 160 161 b 163 153 158 156 160 153 b 167 158 164 153 165 156 z m 124 156 b 122 160 124 157 122 158 b 119 156 121 158 119 157 b 122 153 119 156 121 154 b 124 156 122 154 124 154 z "},"I":{"ha":785,"x_min":0,"x_max":0,"o":"m 811 63 b 813 61 811 63 813 63 b 810 61 813 61 810 61 b 826 51 814 54 819 51 b 843 63 833 51 843 53 b 815 92 843 76 815 79 b 854 126 815 99 854 107 b 819 149 854 139 819 140 b 775 182 815 169 783 182 b 706 175 753 182 729 175 b 510 156 640 171 572 171 b 399 140 474 146 436 144 b 358 153 382 140 374 153 b 344 151 354 153 349 151 b 325 161 339 151 325 151 b 326 175 325 165 326 171 b 313 197 326 185 324 192 l 313 194 b 317 232 315 204 317 218 b 338 278 317 236 335 263 b 364 339 340 301 351 319 b 347 385 358 351 347 375 b 361 414 347 397 361 408 b 349 433 361 417 349 426 b 394 481 349 431 397 483 b 399 489 396 483 399 488 b 394 501 396 493 394 497 b 407 558 394 517 406 557 b 421 638 418 575 421 606 b 415 781 421 693 415 735 b 424 797 415 789 418 797 b 442 796 429 796 435 796 b 524 828 482 796 515 828 b 547 807 529 828 535 810 b 597 801 565 803 581 801 b 632 822 628 801 625 822 b 688 818 643 822 672 818 b 742 883 722 818 742 853 b 678 917 731 908 713 917 b 664 915 672 917 668 915 b 565 926 632 915 601 926 b 525 924 553 926 539 924 b 476 936 508 924 493 936 b 431 929 461 936 446 929 b 336 936 400 929 368 936 b 276 931 317 936 296 931 b 246 936 267 931 256 936 b 218 931 238 936 228 931 b 146 942 196 931 172 942 b 128 939 140 942 133 940 b 25 946 93 942 60 946 b 8 922 11 946 8 931 b 29 854 8 908 28 856 b 207 799 67 797 89 806 b 258 724 250 796 258 792 b 242 682 258 707 242 697 b 246 654 242 672 246 664 b 240 600 246 636 240 618 b 253 554 240 585 246 568 b 228 508 240 539 228 524 b 236 481 228 499 236 489 b 215 438 236 469 215 456 b 222 396 215 421 222 404 b 201 311 222 382 204 340 b 186 94 192 236 186 156 b 6 46 131 61 67 72 b -69 6 -21 33 -69 24 b -11 -69 -69 -10 -11 -69 b 44 -82 -1 -75 32 -82 b 119 -62 68 -76 97 -76 b 251 -25 139 -50 242 -25 b 271 -26 258 -25 265 -26 b 321 -6 293 -26 306 -6 b 338 -8 326 -6 332 -8 b 394 6 357 -8 374 6 b 456 28 417 6 438 28 b 471 26 461 28 467 26 b 478 28 474 26 475 28 b 497 15 485 28 488 15 b 582 35 521 15 568 35 b 618 42 594 35 607 33 b 629 40 622 42 625 40 b 708 57 656 40 683 57 b 751 46 726 57 738 46 b 796 67 772 46 790 67 b 811 63 799 67 803 65 z m 610 817 b 608 819 608 817 608 818 b 610 817 610 818 610 818 b 590 815 604 817 597 815 b 586 818 589 815 588 817 b 590 825 586 821 588 825 b 610 817 596 825 603 819 z m 332 426 b 317 431 328 426 317 425 b 325 438 317 435 321 438 b 332 426 329 438 329 435 z "},"J":{"ha":685,"x_min":0,"x_max":0,"o":"m 514 403 b 503 388 510 397 507 392 b 503 389 503 388 503 389 b 501 386 501 388 501 388 b 515 403 501 392 510 400 b 550 550 521 440 526 540 b 567 579 568 554 567 567 b 586 683 567 615 586 647 b 578 731 586 700 578 714 b 590 807 579 758 590 779 b 615 907 590 846 615 876 b 510 994 615 951 551 969 b 496 999 504 997 500 999 b 438 965 479 999 456 975 b 328 907 399 946 368 917 b 182 829 265 890 221 833 b 42 767 147 803 72 767 b 11 786 29 767 22 786 b 0 767 1 786 0 774 b 67 724 0 729 49 724 b 243 769 124 724 203 769 b 342 819 286 769 338 819 b 408 844 365 822 369 838 b 428 853 415 844 419 853 b 439 822 438 853 439 833 b 438 781 439 807 438 794 b 439 760 438 774 439 767 b 436 704 439 742 438 722 b 450 683 436 693 446 690 b 446 647 449 672 447 660 b 450 622 449 639 450 631 b 443 529 450 592 443 560 b 449 488 443 515 444 501 b 433 450 449 472 433 465 b 436 440 433 447 435 444 b 426 364 435 414 439 389 b 425 358 426 363 425 361 b 431 336 425 351 431 343 b 415 304 431 325 415 314 b 426 282 415 297 421 293 b 428 283 428 282 428 282 b 413 232 421 282 432 242 b 368 97 379 215 393 122 b 344 58 358 86 363 65 b 308 -15 335 32 308 7 b 240 -54 308 -36 256 -46 b 193 -37 217 -51 197 -37 b 85 39 154 -37 114 39 b 47 51 71 40 60 51 b 14 8 29 51 14 15 b 57 -43 14 -19 57 -42 b 108 -82 100 -43 97 -82 b 128 -65 115 -82 124 -65 b 163 -81 131 -65 149 -81 b 210 -129 164 -81 196 -129 b 313 -106 239 -129 279 -111 b 374 -54 342 -101 347 -81 b 396 -56 382 -54 389 -56 b 444 -4 411 -40 444 -15 b 464 39 446 13 461 24 b 456 58 461 46 458 51 b 457 63 456 60 456 61 b 490 160 469 94 490 124 b 492 165 490 161 490 164 b 511 271 511 189 506 239 b 492 296 503 288 492 281 b 494 310 492 300 494 306 b 485 326 494 318 485 321 b 486 329 485 326 485 328 b 494 308 493 329 494 313 b 526 394 514 331 526 374 b 514 403 526 397 522 400 z m 367 47 b 368 44 368 46 368 44 b 365 42 368 43 368 42 b 367 47 365 43 365 44 z m 164 -53 b 147 -39 153 -50 154 -54 b 157 -37 150 -39 154 -37 b 164 -54 164 -42 164 -47 b 168 -51 164 -51 167 -51 b 164 -53 168 -51 167 -53 z m 550 654 b 546 674 547 665 546 669 b 550 679 546 678 549 679 b 553 674 551 679 553 676 b 550 654 551 668 551 664 z m 460 313 b 463 306 460 310 463 308 b 456 299 463 303 460 300 b 453 301 454 299 453 300 b 460 313 453 307 456 308 z m 56 18 b 53 11 56 17 54 14 b 49 17 51 11 49 15 b 51 21 49 18 50 19 b 56 18 53 21 54 19 z m 499 433 l 503 433 l 501 429 z "},"K":{"ha":706,"x_min":0,"x_max":0,"o":"m 558 836 b 503 758 544 811 526 781 b 392 628 456 714 406 635 b 279 525 361 613 324 525 b 240 569 244 525 240 551 b 247 651 240 588 247 622 b 246 669 247 657 246 664 b 265 751 246 685 265 731 b 283 874 265 822 283 843 b 303 960 283 897 303 929 b 157 1086 303 1040 263 1079 b 139 1021 144 1065 139 1046 b 115 828 139 957 115 893 b 97 738 115 800 97 769 b 108 676 97 711 108 696 b 104 446 108 599 104 522 b 118 18 104 303 118 161 b 175 -74 118 -8 149 -65 b 203 -82 185 -76 194 -79 b 218 -49 218 -69 210 -54 b 240 6 239 -35 224 -11 b 250 49 249 13 250 32 b 242 100 250 72 249 82 l 243 100 b 236 113 239 104 236 108 b 243 122 236 115 239 119 l 242 122 b 240 136 242 126 240 132 b 244 165 240 146 244 156 b 236 243 244 196 236 222 b 251 296 236 256 246 296 b 354 175 267 296 321 210 b 572 54 408 117 506 54 b 642 93 604 54 642 61 b 615 119 642 111 638 119 b 501 179 578 119 510 171 b 358 400 435 233 392 324 b 356 410 357 403 356 407 b 411 489 356 440 401 456 b 486 578 414 499 489 578 b 560 647 521 592 528 639 b 654 783 621 664 654 783 b 686 814 654 792 679 799 b 733 892 697 843 733 868 b 667 964 733 938 707 943 b 615 922 636 944 626 947 b 558 836 604 899 585 846 z m 168 767 b 183 776 172 771 179 776 b 186 771 186 776 186 774 b 183 764 186 767 185 764 b 172 768 179 765 175 768 b 168 767 171 768 169 767 z m 224 557 b 228 583 224 565 224 578 b 231 575 231 581 231 579 b 222 558 231 568 228 563 b 225 546 224 554 225 551 b 221 542 225 543 224 543 b 213 551 219 542 213 546 b 224 557 213 558 219 557 z m 165 192 b 157 190 163 192 160 190 b 150 199 153 190 150 194 b 158 208 150 201 153 208 b 165 200 163 207 165 204 b 164 192 165 197 164 194 z m 171 310 b 171 279 171 303 171 290 b 167 247 171 265 171 251 b 147 285 156 247 147 279 b 156 333 147 300 156 318 b 147 361 156 342 147 353 b 163 378 147 369 153 378 b 171 310 168 378 169 319 z m 233 319 b 226 307 231 315 232 307 b 206 360 211 314 207 360 b 206 357 206 360 206 358 b 211 371 206 363 206 365 b 233 319 228 371 232 328 z m 183 500 b 179 513 181 504 179 508 b 183 529 179 518 179 525 b 188 511 186 522 188 526 b 183 500 188 507 186 503 z m 156 575 b 147 571 153 574 150 572 b 142 575 143 571 142 572 b 153 578 142 578 146 578 b 156 575 153 576 154 576 z m 167 501 b 163 496 167 497 165 496 b 160 501 161 496 160 499 b 164 504 160 503 163 504 b 167 501 165 504 165 503 z m 163 157 l 165 156 l 164 153 z m 215 149 b 219 144 219 149 219 146 b 217 142 218 142 217 142 b 214 146 215 142 214 143 b 215 149 214 146 215 147 z m 197 101 b 194 100 196 100 196 100 b 193 104 194 101 193 103 b 197 101 194 104 197 104 z m 225 282 l 228 281 l 226 278 z m 164 614 l 165 610 l 163 610 z "},"L":{"ha":683,"x_min":0,"x_max":0,"o":"m 678 188 b 606 221 643 206 640 221 b 504 201 571 221 538 208 b 286 151 431 185 358 164 b 264 249 264 151 264 228 b 265 319 264 272 265 292 b 243 407 265 375 243 396 b 261 450 243 424 261 435 b 265 494 261 465 265 481 b 260 528 265 507 260 517 b 267 574 260 543 267 558 b 264 606 267 585 264 593 b 274 833 264 678 274 758 b 263 961 274 874 263 917 b 264 983 263 968 263 975 b 224 1029 264 1013 244 1029 b 114 979 185 1029 114 1010 b 107 892 114 950 107 921 b 113 856 107 879 113 868 b 97 681 106 803 97 713 b 104 585 97 649 104 617 b 97 472 104 547 97 510 b 110 397 97 450 110 422 b 108 342 110 379 108 360 b 113 249 108 310 113 279 b 108 207 113 235 108 221 b 118 101 108 171 118 135 b 97 67 118 85 97 82 b 203 10 97 39 168 10 b 403 61 269 15 339 61 b 494 90 438 61 478 90 b 514 86 501 90 508 86 b 532 94 521 86 526 93 b 683 161 589 100 683 94 b 678 188 683 169 682 178 z m 225 339 b 215 354 217 339 215 346 b 225 363 217 358 222 363 b 229 351 228 363 228 357 b 225 339 229 349 228 343 z m 231 469 b 228 465 231 467 229 465 b 215 486 218 465 215 478 b 228 504 215 493 217 504 b 235 488 233 504 232 494 b 231 469 233 483 232 476 z "},"M":{"ha":967,"x_min":0,"x_max":0,"o":"m 867 -6 b 854 -18 861 -11 858 -18 b 844 -12 851 -18 847 -12 b 835 -19 842 -12 838 -19 b 831 -8 832 -19 831 -17 b 833 17 831 0 833 8 b 829 33 833 22 829 28 b 868 86 829 49 868 79 b 868 122 868 96 868 107 b 831 89 854 100 844 89 b 833 157 831 114 833 135 b 829 197 833 171 829 183 b 832 250 829 214 832 233 b 819 301 832 260 819 279 b 818 383 819 329 818 351 b 822 424 818 401 818 424 b 832 422 825 424 828 422 b 843 454 836 422 843 447 b 840 511 843 475 840 492 b 847 547 840 526 847 536 b 836 608 847 568 836 585 b 854 699 836 647 854 671 b 850 753 854 717 850 736 b 854 796 850 767 854 781 b 824 847 854 825 843 826 b 840 881 829 857 840 872 b 817 918 840 893 817 901 b 818 935 817 922 818 929 b 776 993 818 954 800 993 b 761 989 772 992 767 990 b 763 988 763 989 763 989 b 761 988 763 988 761 988 b 765 1001 763 992 765 997 b 732 1017 760 1015 744 1017 b 715 1014 726 1017 721 1014 b 689 1019 706 1014 697 1017 b 632 967 669 1000 644 993 b 583 908 621 942 596 933 b 413 617 515 815 471 711 b 406 613 411 614 408 613 b 379 657 390 613 379 629 b 340 756 379 689 346 726 b 319 814 336 778 324 792 b 274 972 308 871 276 921 b 229 1008 274 1001 261 1008 b 144 918 167 1008 144 914 b 153 890 144 910 153 901 b 129 628 153 781 129 710 b 142 603 129 618 142 608 b 113 554 142 601 113 574 b 121 532 113 547 117 539 b 101 468 110 517 101 488 b 108 408 101 449 108 429 b 104 375 108 397 104 386 b 107 343 104 365 107 354 b 103 304 107 331 103 317 b 104 296 103 301 104 299 b 97 271 100 288 97 279 b 119 82 97 218 119 147 b 128 47 119 68 121 54 b 178 -22 144 36 142 -22 b 228 24 200 -22 207 17 b 240 63 229 36 240 49 b 236 81 240 68 236 75 b 247 103 236 89 247 89 b 236 122 247 106 236 115 b 240 135 236 126 238 131 b 233 154 239 142 233 149 b 242 171 233 160 242 165 b 231 188 242 179 233 181 l 233 185 b 232 186 233 185 232 186 b 243 213 238 194 243 203 b 236 238 243 219 236 228 b 243 260 236 244 243 253 b 207 321 243 297 207 299 b 240 383 207 353 240 335 b 242 431 240 399 242 415 b 240 465 242 442 240 454 b 269 588 240 508 244 563 b 282 560 276 579 282 571 b 281 547 282 556 281 551 b 368 433 281 515 343 443 b 406 424 379 426 392 424 b 546 622 501 424 511 513 b 544 631 544 625 544 628 b 583 749 544 636 561 738 b 600 811 603 757 597 790 b 618 869 613 828 610 850 b 651 890 628 876 644 876 b 668 908 654 897 657 908 b 710 778 692 908 708 789 b 722 607 715 721 714 664 b 735 465 728 563 735 511 b 732 436 735 456 732 446 b 746 329 732 400 746 368 b 772 279 746 292 772 282 b 757 224 772 256 757 233 b 775 133 757 172 775 146 b 756 60 775 113 756 93 b 758 39 756 53 758 46 b 746 6 758 26 746 15 b 764 -78 746 -22 764 -49 b 763 -94 764 -83 764 -89 b 772 -136 765 -103 772 -129 b 772 -135 772 -136 772 -135 b 771 -136 771 -135 771 -136 b 813 -175 776 -153 799 -175 b 865 -110 843 -175 840 -122 b 869 -103 868 -108 869 -106 b 867 -6 869 -71 868 -40 z m 826 836 b 822 847 822 838 824 842 b 828 840 825 844 828 843 b 826 836 828 839 826 838 z m 822 542 b 826 528 825 533 826 531 b 825 503 826 521 825 514 b 819 521 821 510 819 515 b 822 542 819 528 821 533 z m 124 461 b 131 468 124 464 128 468 b 136 461 133 468 136 465 b 131 456 136 460 132 456 b 124 461 128 456 125 458 z m 138 324 b 136 322 138 324 138 322 b 133 325 136 322 135 324 b 143 332 133 329 138 332 b 144 328 143 332 144 329 b 138 324 143 326 140 324 z m 142 358 b 132 365 139 358 132 363 b 144 381 132 369 140 381 b 150 371 149 376 150 376 b 142 358 150 364 146 358 z m 165 542 b 163 554 165 544 163 550 b 165 558 163 556 165 557 b 168 556 167 557 168 557 b 165 542 168 551 167 547 z m 175 410 b 176 410 175 410 176 410 z m 183 413 b 182 413 183 413 183 413 b 185 417 183 414 185 415 b 186 414 186 415 186 415 b 183 413 186 413 186 413 z m 188 489 b 185 497 186 492 185 494 b 186 514 185 501 185 506 b 189 494 188 504 189 499 b 188 489 189 492 188 490 z m 228 557 b 229 551 228 554 229 553 b 226 549 229 551 228 550 b 225 553 226 550 225 551 b 228 557 225 554 226 556 z m 210 340 b 210 346 210 342 210 344 b 211 343 210 344 211 343 b 210 340 211 342 211 340 z m 206 401 b 203 417 206 407 203 413 b 204 449 204 428 204 438 b 203 517 204 471 203 493 b 206 554 203 531 203 542 b 213 533 211 553 213 543 b 213 518 213 528 213 522 b 228 476 213 492 228 501 l 226 475 b 231 468 228 472 231 469 b 206 401 231 450 217 415 z m 763 478 b 760 481 760 478 760 479 b 760 485 760 482 760 483 b 763 478 763 485 763 479 z m 801 726 b 804 719 804 725 804 722 b 801 714 804 717 804 714 b 799 722 800 717 799 719 b 801 726 799 724 800 725 z m 794 508 b 804 481 804 508 804 489 b 800 472 804 478 800 472 b 796 476 797 474 796 474 b 797 493 796 483 797 490 b 792 506 794 499 793 501 b 794 508 792 506 794 508 z m 790 393 b 797 396 792 394 794 396 b 808 379 804 396 807 386 b 797 353 806 372 803 353 b 792 357 794 353 792 354 b 796 371 792 361 796 365 b 788 386 796 376 793 381 b 790 393 788 386 788 392 z m 793 315 b 799 317 793 317 799 317 b 804 307 803 317 804 314 b 801 299 804 304 803 301 b 790 308 797 300 790 301 b 793 315 790 311 792 314 z m 815 143 b 808 103 815 132 817 107 b 793 160 803 107 793 146 b 800 196 793 172 794 196 b 817 179 810 196 817 188 b 814 144 817 168 815 156 b 815 143 815 144 815 143 z "},"N":{"ha":826,"x_min":0,"x_max":0,"o":"m 460 646 b 426 699 436 654 450 689 b 424 703 425 700 424 701 b 426 718 424 707 426 714 b 414 732 426 726 419 732 b 404 729 410 731 407 729 b 350 860 404 736 363 818 b 279 974 336 904 310 942 b 232 1025 260 993 263 1025 b 150 986 210 1025 150 1003 b 121 769 135 915 131 840 b 119 758 121 765 119 763 b 125 722 119 746 125 735 b 117 663 125 703 117 682 b 126 601 117 642 126 619 b 119 575 126 593 119 585 b 121 558 119 568 121 564 b 104 524 121 543 104 536 b 115 493 104 513 115 503 b 119 431 118 472 119 451 b 97 390 119 413 97 407 b 110 353 97 378 106 365 b 124 258 117 328 124 286 b 115 214 124 244 115 231 b 129 160 115 193 129 178 b 117 90 129 140 117 115 b 183 -25 117 65 136 -25 b 243 72 221 -25 243 72 b 221 172 243 142 221 157 b 243 208 221 188 243 189 b 242 231 243 215 242 224 b 256 268 242 244 256 260 b 239 340 256 292 239 319 b 253 418 239 364 253 385 b 236 469 253 449 236 465 b 253 531 236 482 253 500 b 236 613 253 561 236 592 b 272 714 236 646 256 714 b 310 657 286 714 303 668 b 322 668 313 660 317 668 b 381 515 351 668 351 515 b 396 522 385 515 390 522 b 408 508 404 522 408 511 b 407 499 408 506 407 501 b 447 393 407 438 438 407 b 499 299 467 367 501 297 b 536 251 511 294 536 258 b 554 199 536 226 554 210 b 594 88 558 167 583 124 b 633 3 603 57 614 28 b 693 54 665 14 693 24 b 692 85 693 64 692 75 b 701 174 692 114 701 139 b 683 285 701 211 683 243 b 663 390 683 322 682 371 b 658 400 660 393 658 397 b 668 444 660 415 657 432 b 669 449 669 446 669 447 b 644 464 669 457 654 458 b 663 497 644 474 663 479 b 661 504 663 500 661 501 b 668 514 661 507 661 511 b 678 486 668 503 668 486 b 690 504 688 486 690 506 b 681 551 690 521 681 535 b 688 590 681 564 683 578 b 683 596 688 592 686 596 b 663 585 679 596 672 590 b 690 653 667 606 690 635 b 726 750 690 686 726 700 b 757 1003 726 835 757 918 b 714 1051 757 1032 742 1051 b 658 1028 693 1051 658 1051 b 619 646 658 892 626 772 b 635 628 629 632 635 632 b 614 604 635 622 614 618 b 606 528 614 579 606 553 b 618 507 606 517 618 513 b 610 449 618 497 614 461 b 617 429 610 438 617 435 b 600 394 617 425 610 394 b 565 442 593 394 565 432 b 524 515 565 465 528 482 b 497 574 521 533 513 574 b 489 571 496 574 492 571 b 467 626 479 571 490 618 b 458 635 460 628 458 631 b 460 646 458 638 460 642 z m 194 467 b 218 496 204 482 217 494 b 226 436 225 481 225 453 b 213 418 226 428 221 418 b 194 467 199 418 197 454 z m 213 222 b 204 201 210 219 211 208 b 194 214 197 204 194 207 b 207 247 194 225 199 243 b 213 222 211 239 211 242 z m 193 588 b 200 563 199 578 200 569 b 196 546 200 557 200 550 b 193 565 193 546 193 554 b 193 588 193 572 193 581 z m 163 638 b 160 657 161 644 160 651 b 168 667 160 663 164 667 b 178 656 175 667 178 661 b 163 638 178 646 172 640 z m 167 606 b 164 613 165 607 164 610 b 169 619 164 617 167 619 b 176 615 171 619 176 617 b 167 606 176 608 171 604 z m 174 532 b 164 518 174 528 168 518 b 160 533 160 518 160 529 b 167 538 163 535 165 538 b 174 532 169 538 171 535 z m 229 274 b 226 268 229 271 228 268 b 222 274 225 268 222 271 b 226 279 222 276 225 279 b 229 274 228 279 229 276 z m 147 358 b 142 353 147 354 144 353 b 140 358 142 354 140 357 b 143 367 140 361 142 364 b 147 358 146 363 147 364 z m 699 785 b 700 781 699 783 700 782 b 697 778 699 778 699 778 b 694 781 696 778 694 778 b 699 785 694 782 696 785 z m 165 463 l 163 464 l 164 467 z m 164 424 b 161 426 163 425 161 426 b 165 429 161 428 165 429 b 167 425 167 429 167 428 b 164 424 167 425 165 424 z m 669 549 b 664 543 668 547 667 546 b 663 551 664 546 663 549 b 665 554 663 553 664 554 b 669 549 667 553 668 550 z m 228 315 b 229 310 228 314 229 311 b 226 307 229 308 228 308 b 225 311 226 308 225 310 b 228 315 225 313 226 314 z m 699 742 l 694 742 l 697 746 z m 461 644 b 460 646 461 644 460 646 b 465 644 461 646 464 644 b 467 651 467 644 467 649 b 461 644 464 649 463 647 z "},"O":{"ha":854,"x_min":0,"x_max":0,"o":"m 696 840 b 636 940 674 883 704 879 b 589 985 618 943 601 978 b 468 1013 549 1004 514 1013 b 344 990 425 1013 376 990 b 310 994 333 990 321 994 b 153 840 222 994 192 908 b 69 488 74 703 69 551 b 72 438 69 471 72 454 b 71 418 72 431 71 425 b 81 354 71 394 81 372 b 78 326 81 346 78 336 b 110 224 78 299 111 222 b 203 82 142 196 172 88 b 294 6 238 60 264 21 b 414 -24 333 -14 372 -24 b 678 140 508 -24 640 44 b 757 356 740 219 756 329 b 754 354 757 356 756 356 b 757 353 756 354 757 353 b 756 357 757 354 757 356 b 782 433 769 357 772 419 b 785 443 785 436 785 440 b 779 456 785 447 783 451 b 776 453 778 456 778 454 b 781 454 778 454 779 454 b 778 481 779 463 778 472 b 779 506 778 489 779 497 b 761 596 779 540 761 582 b 774 642 761 601 764 624 b 743 742 763 675 750 707 b 696 840 735 782 696 826 z m 340 133 b 344 131 343 132 344 132 b 343 128 344 129 344 129 b 340 135 342 129 340 129 b 338 133 339 133 338 133 b 335 136 336 133 335 135 b 338 138 335 136 338 138 b 340 133 339 136 339 135 z m 372 121 b 369 122 371 121 371 122 b 371 119 369 121 371 121 b 374 122 372 121 372 121 b 275 254 343 168 299 203 b 246 306 268 268 246 301 b 249 322 246 311 249 317 b 226 376 249 344 226 360 b 231 400 226 383 231 390 b 219 481 231 426 219 453 b 221 500 219 486 221 493 b 215 522 221 507 215 514 b 244 647 215 564 239 607 b 313 821 251 700 293 764 b 426 965 326 861 413 965 b 486 950 447 965 481 954 b 550 918 503 933 532 940 b 597 879 561 904 593 888 b 690 722 618 833 690 768 b 688 708 690 718 688 714 b 689 704 688 707 688 706 b 703 632 701 682 694 656 b 718 482 718 589 718 529 b 511 101 718 340 631 158 b 478 93 500 96 489 93 b 372 121 451 93 399 121 z m 742 701 b 736 699 740 700 739 699 b 733 704 733 699 733 701 b 742 701 736 703 739 703 z m 250 224 b 249 226 250 225 249 225 b 251 228 249 228 250 228 b 253 225 253 228 253 226 b 250 224 253 225 251 224 z m 696 839 l 696 843 b 694 840 696 843 694 842 b 696 839 694 840 696 840 z "},"P":{"ha":797,"x_min":0,"x_max":0,"o":"m 288 344 b 289 347 288 346 288 347 b 286 347 288 347 288 347 b 289 346 288 346 289 346 b 246 407 289 368 247 407 b 232 463 232 419 232 436 b 251 528 232 475 249 506 b 264 585 253 546 263 574 b 246 728 264 614 246 679 b 260 786 246 749 260 768 b 264 886 260 819 264 853 b 215 956 264 938 260 956 b 158 883 154 956 164 919 b 138 743 150 835 146 788 b 139 725 138 736 139 732 b 128 672 131 697 128 686 b 131 640 128 665 129 656 b 103 529 131 604 103 568 b 106 393 103 485 106 438 b 97 315 106 367 97 342 b 107 172 97 268 99 190 b 119 119 115 154 119 136 b 115 64 119 101 115 79 b 122 21 115 49 122 35 b 117 -31 122 4 117 -14 b 150 -71 117 -47 136 -71 b 188 -57 160 -71 175 -62 b 210 -78 194 -64 203 -78 b 222 -62 221 -78 222 -71 b 268 69 222 -11 268 -61 b 254 160 268 103 267 138 b 238 240 239 188 246 222 b 233 258 233 246 233 253 b 267 296 233 283 240 296 b 304 268 292 296 293 268 b 338 296 314 268 328 283 l 338 294 b 372 306 356 300 360 293 b 296 349 343 318 322 339 b 288 344 293 349 290 346 z m 129 438 b 129 435 129 436 129 436 b 131 436 131 435 131 435 b 126 436 131 436 129 436 b 132 422 128 432 131 426 b 128 418 132 417 131 418 b 125 421 125 418 125 418 b 129 438 125 424 128 432 z m 169 471 b 169 463 169 468 169 465 b 168 493 169 472 168 483 b 193 579 168 522 193 561 b 188 599 193 585 188 592 b 199 613 188 606 190 613 b 204 586 204 613 204 593 b 169 471 204 564 185 474 z m 128 279 b 129 275 128 278 129 276 b 126 272 129 274 128 274 b 125 276 126 274 125 275 b 128 279 125 278 126 279 z m 581 411 b 554 418 572 411 563 411 l 557 415 b 554 417 557 415 554 417 b 574 424 560 421 569 424 b 581 410 576 424 581 419 b 610 446 590 418 610 429 b 606 478 610 457 606 467 b 619 508 606 488 608 508 b 638 453 631 508 625 468 b 660 500 656 453 660 485 l 657 499 b 717 625 672 536 711 578 b 713 649 717 633 713 640 b 735 749 713 678 735 717 b 733 764 735 754 733 760 b 742 847 733 789 742 819 b 729 871 742 857 729 861 b 732 886 729 878 732 882 b 679 971 732 907 696 946 b 664 969 674 971 668 969 b 628 994 640 969 654 994 b 606 983 621 994 614 983 b 590 989 601 983 596 989 b 569 983 585 989 576 983 b 554 986 564 983 560 986 b 483 943 531 986 500 956 l 486 943 b 436 908 471 925 447 928 b 424 893 433 903 429 896 b 382 829 400 876 388 829 b 314 740 353 813 314 761 b 319 713 314 732 314 713 b 335 736 328 721 317 736 b 421 803 361 736 418 797 b 510 890 442 867 506 889 b 556 908 529 892 538 908 b 611 775 603 908 611 788 b 544 497 611 686 586 569 b 539 475 542 490 539 483 b 544 468 539 471 542 468 b 567 490 558 468 546 490 b 568 489 568 490 568 489 b 554 488 567 489 558 488 b 567 463 554 478 561 463 b 578 465 569 463 574 465 b 586 458 581 465 586 463 b 518 396 586 450 529 403 b 442 343 493 379 449 364 b 464 332 449 339 463 332 b 549 389 468 332 508 389 b 558 388 551 389 556 388 b 581 411 568 388 578 403 z m 422 293 b 439 290 426 293 433 290 b 454 299 440 290 454 292 b 447 307 454 304 454 307 b 422 293 439 303 433 293 z m 383 268 b 371 276 379 272 381 276 b 358 263 364 276 358 268 b 372 256 360 257 368 256 b 383 268 379 256 383 261 z m 408 261 b 414 272 410 265 413 269 l 414 274 b 408 261 411 269 408 265 z m 414 272 b 424 293 419 281 421 285 b 414 272 415 290 417 279 z m 406 261 b 408 261 406 261 408 261 b 404 263 406 261 404 263 b 407 264 404 263 406 263 b 406 261 406 263 406 261 z m 486 943 b 485 943 486 943 485 943 b 488 944 485 943 488 944 z "},"Q":{"ha":801,"x_min":0,"x_max":0,"o":"m 647 879 b 644 865 646 875 644 869 b 649 831 644 854 649 842 b 643 817 649 826 649 817 b 633 843 635 817 633 833 b 647 879 633 858 636 868 b 586 933 611 897 629 933 b 582 908 585 925 583 917 b 592 911 586 910 589 911 b 600 908 594 911 597 910 b 596 906 600 906 599 906 b 575 926 586 906 575 917 b 589 932 575 929 579 932 b 558 963 583 943 571 963 b 542 954 551 963 546 957 b 546 954 543 954 544 954 b 544 951 546 953 546 951 b 543 956 544 951 543 953 b 507 911 536 946 518 911 b 490 943 499 911 490 932 b 493 957 490 947 492 951 b 486 963 493 960 492 963 b 464 943 479 957 472 950 b 435 953 454 944 444 953 b 419 949 429 953 425 949 b 349 956 397 949 375 956 b 260 975 318 956 285 975 b 168 849 222 975 181 869 b 97 643 131 786 97 676 b 71 503 97 594 71 547 b 78 458 71 489 78 474 b 69 392 78 436 69 415 b 74 313 69 365 74 339 b 72 269 74 299 72 283 b 132 96 72 171 118 114 b 163 61 149 90 154 74 b 253 -4 185 28 215 7 b 293 -26 268 -10 279 -24 b 372 -44 317 -35 347 -44 b 451 -35 399 -44 425 -35 b 483 -18 464 -25 472 -18 b 544 15 513 -18 524 15 b 661 -83 565 15 621 -83 b 696 -53 678 -83 688 -67 b 614 79 681 1 614 24 b 668 194 614 124 661 172 b 729 418 689 268 719 336 b 725 458 729 432 725 446 b 732 507 725 476 732 496 b 685 749 732 615 731 749 b 661 740 676 749 669 744 b 647 879 661 772 661 879 z m 636 715 b 629 700 632 711 629 706 b 658 588 629 663 658 626 b 628 454 658 535 628 497 b 531 196 628 360 567 196 b 483 217 518 196 500 217 b 446 201 471 217 458 207 b 471 139 446 171 458 171 b 472 132 472 138 472 135 b 394 81 472 103 410 81 b 267 169 313 81 267 161 b 268 169 267 169 268 169 b 219 349 229 203 219 292 b 222 383 219 360 222 371 b 221 408 222 393 221 400 b 236 489 221 433 235 458 b 239 599 239 526 238 563 b 246 636 239 611 246 624 b 244 646 246 640 244 643 b 282 746 244 667 272 724 b 404 910 299 786 350 910 b 503 881 474 910 475 881 b 542 849 517 881 542 850 b 581 789 546 826 567 817 b 575 836 579 808 575 824 b 579 854 575 842 576 849 l 575 851 l 578 854 b 643 765 628 849 599 810 b 644 760 644 764 644 761 b 636 715 644 749 638 729 z m 700 674 b 699 678 700 675 699 676 b 703 682 699 681 700 682 b 708 660 710 682 708 665 b 703 654 708 657 706 654 b 699 664 700 654 699 660 b 700 674 699 667 700 671 z m 136 376 b 129 367 135 374 132 371 b 125 381 128 371 126 376 b 132 392 125 385 128 392 b 136 376 136 388 133 383 z m 128 442 b 135 426 133 442 135 431 b 129 419 133 424 131 422 b 125 428 128 422 125 425 b 128 442 126 433 128 438 z m 131 488 b 128 497 129 490 128 494 b 131 506 128 500 129 503 b 133 499 132 503 133 501 b 131 488 133 494 132 490 z m 601 886 b 596 881 601 881 597 881 b 590 888 594 883 592 885 b 593 890 592 889 593 890 b 601 886 596 889 599 888 z m 157 443 b 154 442 156 442 154 442 b 151 444 153 442 151 444 b 154 449 151 447 153 449 b 157 443 156 449 157 447 z "},"R":{"ha":742,"x_min":0,"x_max":0,"o":"m 229 494 b 226 532 228 507 228 521 b 231 533 228 533 229 533 b 233 529 232 533 233 532 b 229 494 232 517 231 506 b 249 550 243 511 249 529 b 246 597 249 568 246 583 b 256 681 246 621 256 644 b 244 888 256 750 244 814 b 161 964 244 925 199 964 b 115 856 97 964 126 917 b 99 649 101 788 99 718 b 107 590 99 629 107 608 b 104 567 107 583 104 575 b 108 521 104 553 108 536 b 97 350 108 468 100 408 b 110 304 97 332 110 315 b 100 224 110 282 100 254 b 107 178 100 207 107 193 b 99 118 107 158 99 138 b 160 -44 99 56 107 -33 b 217 -49 179 -49 197 -47 b 246 -44 224 -42 239 -44 b 311 131 278 -44 301 83 b 315 151 313 138 315 144 b 314 163 314 156 314 160 b 333 240 314 192 328 240 b 432 117 351 240 413 146 b 515 -14 461 72 493 26 b 556 -74 526 -36 550 -50 b 650 -161 567 -97 633 -157 b 675 -164 658 -162 667 -164 b 707 -135 693 -164 707 -151 b 701 -111 707 -128 701 -118 b 714 -81 701 -104 714 -94 b 665 -10 714 -79 678 -32 b 654 24 658 0 661 17 b 588 124 624 49 617 93 b 564 168 576 135 578 158 b 469 321 518 206 499 281 b 439 363 461 331 439 353 b 524 446 439 400 514 404 b 578 532 529 469 569 499 b 619 632 586 567 619 618 b 640 668 624 650 640 632 b 661 729 640 693 661 710 b 668 822 661 761 668 794 b 660 926 668 853 661 892 b 564 989 633 958 596 989 b 450 922 494 989 479 946 b 392 844 422 900 419 865 b 363 775 369 826 376 790 b 338 707 343 754 353 722 b 301 575 317 686 319 601 b 250 465 279 543 293 500 b 229 494 244 482 243 485 z m 560 832 b 539 710 554 788 554 747 b 535 690 536 704 535 697 b 493 596 528 651 496 625 b 468 525 493 575 468 551 b 469 513 468 521 469 517 b 431 485 469 490 438 506 b 372 458 415 478 388 458 b 358 492 363 458 358 481 b 376 528 358 507 367 508 b 406 633 388 563 400 597 b 410 647 406 638 407 643 b 461 803 443 697 433 764 b 536 890 478 825 513 890 b 560 832 561 890 558 847 z m 503 497 b 499 499 501 497 499 499 b 510 508 501 506 497 508 b 503 497 510 504 506 503 z "},"S":{"ha":718,"x_min":0,"x_max":0,"o":"m 538 169 b 538 171 538 171 538 171 b 538 169 538 169 538 169 z m 554 206 b 553 207 554 207 554 207 b 554 206 554 207 554 207 z m 501 114 l 500 113 b 501 114 500 113 501 113 z m 882 450 b 813 465 858 457 831 465 b 676 450 771 465 719 450 b 604 496 636 450 643 493 b 574 519 590 496 589 517 b 519 539 554 524 536 539 b 471 542 503 540 488 542 b 132 460 354 542 238 481 b 111 500 121 460 111 488 b 131 538 111 513 131 524 b 160 582 131 563 160 567 b 156 599 160 588 157 593 b 174 622 161 606 168 614 b 179 621 175 622 178 621 b 178 622 179 621 178 622 b 267 714 194 664 239 678 b 343 781 283 736 343 779 b 404 821 367 789 383 806 b 568 890 449 854 513 890 b 594 886 576 890 585 886 b 619 901 606 886 619 886 b 514 992 619 929 553 978 b 465 964 499 983 475 974 b 413 933 449 951 436 935 b 336 879 400 933 360 892 b 174 751 283 851 235 786 b 163 735 168 749 165 740 b 165 725 164 731 165 728 b 118 672 165 708 128 696 b 100 649 114 663 108 654 b 46 553 68 624 46 594 b 14 489 43 525 14 519 b 21 443 14 471 21 458 b 19 429 21 439 19 433 b 147 363 19 365 147 363 b 363 444 206 363 297 407 b 442 465 385 461 417 451 b 457 464 447 464 451 464 b 499 467 471 464 485 467 b 532 419 524 467 532 438 b 481 361 532 383 508 376 b 406 318 468 338 424 338 b 321 260 383 294 349 278 b 203 138 275 231 219 175 b 129 36 190 108 129 75 b 208 -56 129 -19 164 -56 b 386 13 307 -56 356 4 b 413 1 394 13 401 1 b 519 83 411 1 519 63 b 514 88 518 86 517 88 b 492 82 507 88 499 83 b 485 90 488 82 485 86 b 501 113 485 96 496 106 b 500 113 501 113 501 113 b 553 207 529 147 542 176 b 550 214 550 208 550 213 b 613 283 550 239 607 283 b 628 281 617 283 624 281 b 664 350 643 281 658 339 b 818 414 731 396 763 414 b 847 410 828 414 838 410 b 885 442 858 410 885 432 b 882 450 885 446 883 450 z m 429 74 b 428 71 429 72 429 71 b 426 72 428 71 426 72 b 428 74 426 72 426 74 b 426 74 428 74 428 74 b 428 74 426 74 428 74 l 429 75 b 431 74 429 75 431 75 b 429 74 431 74 429 74 z m 469 189 b 425 133 453 175 425 154 b 368 64 425 124 375 89 b 285 14 363 43 283 19 b 288 14 285 14 285 14 b 275 17 285 14 279 17 b 236 4 261 17 249 8 b 232 25 233 11 232 18 b 365 183 232 85 353 178 b 411 222 382 193 411 222 b 481 261 431 229 461 261 b 492 242 492 261 492 250 b 469 189 492 222 486 204 z m 500 146 b 499 144 500 146 499 144 b 494 150 494 144 496 147 b 499 151 496 151 499 151 b 503 149 500 151 503 149 b 500 146 503 147 501 146 z m 614 311 b 614 313 614 311 614 311 b 615 313 614 313 614 313 l 618 313 l 617 313 b 615 310 617 311 617 310 b 614 311 615 310 614 311 z "},"T":{"ha":760,"x_min":0,"x_max":0,"o":"m 426 193 b 425 192 426 193 425 192 b 429 204 426 194 429 200 b 424 224 429 210 424 217 b 444 321 424 251 440 290 b 451 440 450 360 444 400 b 449 517 451 465 449 492 b 454 636 449 557 454 597 b 451 663 454 644 451 653 b 492 867 451 717 460 860 b 596 904 526 874 572 886 b 617 897 603 903 610 897 b 642 910 625 897 629 910 b 829 976 694 921 829 915 b 724 1021 829 1021 743 1021 b 482 986 640 1021 564 994 b 435 978 467 985 451 978 b 367 994 411 978 390 994 b 318 975 351 994 318 988 b 321 958 318 968 321 964 b 99 896 321 940 119 900 b 46 889 81 892 64 889 b 1 897 32 889 15 897 b -28 871 -14 897 -28 883 b 36 794 -28 826 32 797 b 117 775 63 782 86 775 b 308 819 181 775 261 819 b 328 774 314 819 328 811 b 321 743 328 763 321 754 b 331 701 321 731 331 715 b 315 656 331 686 315 671 b 317 631 315 647 317 639 b 308 526 317 596 308 560 b 326 482 308 510 326 494 b 310 400 313 454 310 442 b 314 357 310 385 314 369 b 308 300 314 338 308 319 b 336 149 313 250 304 183 l 333 153 b 332 150 333 151 332 151 b 333 149 332 150 333 149 b 336 151 333 149 335 150 b 332 142 333 149 332 144 b 349 63 332 119 344 85 b 346 50 347 58 346 54 b 383 -1 346 29 369 13 b 453 47 417 7 453 11 b 435 103 453 67 435 94 b 426 135 435 115 426 125 b 431 153 426 140 431 146 b 422 179 431 163 422 171 b 425 183 422 182 424 183 l 424 183 b 426 193 425 186 425 190 z m 424 183 b 425 171 425 179 425 175 b 424 183 425 175 425 179 z m 426 193 b 425 192 426 193 425 192 b 426 193 425 192 426 193 z "},"U":{"ha":972,"x_min":0,"x_max":0,"o":"m 533 447 b 544 458 542 453 544 456 b 533 482 544 463 533 474 b 542 508 533 489 542 499 b 539 526 542 514 539 521 b 553 581 539 544 553 561 b 599 617 553 600 599 594 b 581 632 599 624 581 629 b 608 675 581 635 608 675 b 638 713 624 683 638 713 b 653 708 643 713 649 708 b 685 760 679 708 665 760 b 703 665 694 760 703 685 b 697 631 703 653 697 643 b 704 567 697 606 704 585 b 694 486 704 543 697 515 b 696 479 696 483 696 482 b 692 457 696 472 692 465 b 694 442 692 453 694 447 b 685 376 694 422 685 400 b 690 351 685 368 690 361 b 685 321 690 342 685 331 b 688 281 685 307 688 294 b 671 197 688 279 671 194 b 676 169 671 188 676 179 b 675 153 676 164 675 158 b 679 82 675 129 679 104 b 672 -58 679 35 672 -14 b 718 -182 672 -94 688 -182 b 789 -107 743 -182 765 -115 b 807 -46 808 -100 807 -65 b 822 19 807 -21 822 0 b 815 53 822 31 815 42 b 831 81 815 64 826 64 b 833 126 832 96 833 111 b 832 157 832 138 832 147 b 835 232 835 179 835 206 b 833 300 835 256 833 278 b 839 401 833 333 836 369 b 836 417 836 407 836 411 b 843 457 836 431 843 443 b 840 488 843 468 840 478 b 850 547 840 507 850 522 b 867 606 850 571 867 593 b 874 669 867 628 874 647 b 872 683 874 674 872 679 b 889 761 872 701 889 725 b 889 825 889 782 889 803 b 839 958 889 878 858 958 b 803 946 822 958 815 946 b 764 969 786 946 778 969 b 714 936 761 969 719 936 b 714 938 714 936 714 936 b 674 878 700 918 678 903 b 604 742 667 839 604 771 b 599 724 604 735 604 726 b 510 585 551 690 532 633 b 486 546 504 571 499 556 b 465 504 474 535 476 515 b 446 451 450 489 458 465 b 390 342 417 417 411 385 b 246 90 357 274 286 90 b 217 125 226 90 238 121 b 194 200 207 125 219 185 b 190 208 192 201 190 207 b 213 299 200 242 210 268 b 193 349 213 313 193 300 b 224 393 193 356 224 381 b 213 422 224 401 213 411 b 229 499 213 439 229 471 b 218 558 221 515 218 539 b 225 632 218 592 225 606 b 224 651 224 639 224 646 b 225 703 224 668 225 686 b 222 740 225 715 222 728 b 226 771 225 750 226 760 b 225 807 226 782 225 794 b 226 829 225 814 226 822 b 161 903 226 860 221 903 b 110 886 142 903 122 901 b 115 850 111 874 114 863 b 113 800 115 832 113 815 b 115 783 113 794 115 789 b 106 732 115 768 106 750 b 92 474 99 646 103 557 b 85 297 83 415 85 356 b 88 217 85 271 88 243 b 86 178 88 203 86 190 b 106 97 86 154 106 128 b 210 -46 106 44 160 -46 b 246 -39 224 -46 238 -39 b 261 -42 250 -39 256 -42 b 363 31 315 -42 360 29 b 426 153 401 43 418 153 b 436 144 431 153 432 144 b 440 157 440 144 440 149 b 481 279 440 201 481 235 b 513 376 481 318 513 350 b 528 449 513 397 513 449 b 533 447 529 449 531 447 z m 808 490 b 810 486 810 489 810 488 b 807 483 810 485 808 483 b 804 486 806 483 806 486 b 810 489 806 488 808 489 b 808 488 810 488 810 488 b 808 490 808 488 808 489 z m 764 183 b 765 181 764 183 765 182 b 763 182 764 181 763 181 b 782 233 772 194 764 233 b 790 203 792 233 790 213 b 764 183 790 188 775 183 z m 418 338 b 417 344 418 339 417 342 b 425 354 417 347 421 354 b 432 331 433 354 432 338 b 422 303 432 324 431 303 b 417 318 418 303 417 310 b 418 338 417 324 418 332 z m 654 750 b 653 772 654 758 653 765 b 660 778 653 776 656 778 b 665 768 664 778 665 771 b 654 750 663 763 658 757 z m 201 488 b 197 479 200 485 199 482 b 193 492 196 485 193 488 b 197 503 193 494 193 499 b 201 488 201 493 201 492 z m 806 728 b 800 724 803 725 803 724 b 797 729 799 724 797 726 b 801 736 797 732 800 735 b 806 728 804 732 806 732 z m 794 22 b 792 24 792 22 792 24 b 792 28 792 25 792 28 b 796 25 793 28 794 26 b 794 22 796 25 796 24 z m 186 271 b 183 279 185 274 183 276 b 188 285 183 282 185 285 b 194 281 190 285 194 283 b 186 271 192 276 193 271 z m 424 279 b 429 269 429 279 429 274 b 425 267 429 268 426 268 b 422 271 424 268 422 269 b 424 279 422 274 424 276 z m 804 592 b 801 590 803 592 801 590 b 799 594 800 592 799 593 b 801 597 799 597 800 597 b 804 594 804 597 804 596 b 804 592 804 593 804 593 z m 793 551 b 782 542 790 546 788 542 b 778 549 779 542 778 544 b 785 556 778 553 781 556 b 793 551 789 556 789 554 z m 793 504 b 790 506 792 504 790 506 b 793 513 790 507 792 510 b 796 511 794 511 794 511 b 793 504 794 508 794 506 z m 769 518 l 772 518 l 771 514 z m 196 439 b 199 438 197 439 199 438 b 197 433 199 436 199 435 b 194 435 196 435 194 435 b 196 439 194 436 196 438 z m 572 667 b 575 660 572 664 574 661 b 571 656 575 658 572 657 b 569 664 571 658 569 661 b 572 667 569 665 571 667 z m 831 -32 b 826 -28 831 -29 831 -28 b 822 -31 824 -28 822 -31 b 826 -33 822 -32 824 -33 b 831 -32 828 -33 829 -32 z "},"V":{"ha":742,"x_min":0,"x_max":0,"o":"m 551 497 b 578 531 556 518 572 517 b 618 628 594 599 618 585 b 663 683 618 676 660 654 b 674 726 664 697 663 722 b 717 788 697 733 688 769 b 742 853 721 789 742 844 b 713 867 742 863 721 867 b 651 821 693 867 654 828 b 549 633 622 757 582 682 b 531 579 538 617 542 593 b 472 464 508 549 536 464 b 472 421 472 449 472 436 b 425 365 472 397 435 396 b 332 163 407 314 364 163 b 319 194 318 163 319 193 b 289 278 319 249 289 260 b 286 350 289 301 286 325 b 267 390 265 365 267 372 b 271 431 267 404 271 417 b 257 479 271 447 257 461 b 260 510 257 489 260 500 b 250 563 260 528 250 543 b 233 674 250 599 250 643 b 231 681 232 675 231 678 b 239 707 231 689 239 699 b 236 718 239 711 238 715 b 215 851 217 761 229 808 b 126 1024 193 917 203 1015 b 69 1000 108 1024 69 1017 b 94 735 69 913 82 801 b 101 700 104 722 101 706 b 119 668 101 688 119 681 b 111 599 119 651 111 629 b 126 553 111 582 114 567 b 138 465 132 547 136 486 b 158 349 140 425 138 386 b 185 260 181 307 178 301 b 206 160 189 226 206 182 b 250 19 206 106 250 74 b 333 -56 250 -51 333 -56 b 349 -51 339 -56 343 -51 b 367 -56 356 -51 360 -56 b 404 -36 378 -56 388 -39 b 450 25 442 -29 444 -17 b 479 78 450 50 476 54 b 493 136 479 96 493 115 b 492 149 493 140 493 144 b 508 225 492 167 508 183 b 533 315 508 260 533 288 b 508 361 533 339 508 319 b 514 385 508 374 508 385 b 529 346 522 385 519 346 b 535 350 531 346 535 347 b 531 371 532 357 531 364 b 553 460 531 393 553 411 b 533 474 553 469 533 468 b 551 497 533 476 546 490 z m 632 726 b 631 722 632 725 631 724 b 626 729 629 725 628 728 b 629 733 626 731 628 732 b 632 726 633 733 631 725 z m 517 450 b 521 440 518 447 521 442 b 517 438 521 439 518 438 b 514 447 514 438 514 444 b 517 450 514 449 517 450 z m 578 597 b 571 593 575 594 575 593 b 565 600 568 593 565 596 b 568 607 565 603 565 604 b 578 597 575 607 579 596 z "},"W":{"ha":1131,"x_min":0,"x_max":0,"o":"m 981 181 b 986 265 983 210 986 238 b 978 310 986 279 978 296 b 1000 338 978 319 990 338 b 1008 335 1003 336 1006 335 b 1013 343 1011 335 1013 338 b 1010 364 1011 350 1010 357 b 1042 500 1010 407 1042 447 b 1035 554 1042 518 1035 535 b 1043 638 1035 575 1043 617 b 1026 714 1043 654 1026 688 b 1029 733 1026 721 1029 726 b 1026 764 1029 744 1026 754 b 1047 846 1026 794 1047 799 b 1029 889 1047 864 1046 889 b 969 833 1000 889 969 858 b 974 750 969 806 974 776 b 964 668 974 722 964 688 b 969 644 964 661 969 653 b 965 624 969 639 967 631 b 974 589 972 613 974 601 b 972 558 974 579 972 568 b 974 535 972 550 974 542 b 960 489 974 518 960 504 b 953 438 958 471 953 456 b 954 422 953 432 954 428 b 950 396 954 414 950 404 b 954 379 950 390 954 385 b 943 372 954 376 949 372 b 939 374 942 372 940 374 b 925 353 922 374 925 363 b 903 204 925 304 903 257 b 881 150 903 183 901 161 b 817 24 847 132 835 31 b 742 -68 799 -1 769 -68 b 678 19 704 -68 679 18 b 640 126 656 51 661 93 b 619 175 633 138 619 178 b 621 189 619 179 621 185 b 613 256 621 211 615 233 b 542 585 601 356 611 585 b 357 401 444 585 392 458 b 272 229 324 347 292 292 b 239 183 267 214 253 183 b 210 257 214 183 224 246 b 193 383 196 278 193 378 b 189 421 193 396 189 408 b 190 436 189 426 190 432 b 175 496 176 447 175 492 b 189 582 175 524 189 553 b 188 601 189 589 189 594 b 190 614 189 606 190 610 b 188 639 190 622 188 631 b 192 669 188 649 192 658 b 190 699 192 679 190 689 b 226 953 197 785 226 885 b 164 1021 226 993 221 1021 b 121 872 125 1021 126 904 b 118 857 119 867 118 863 b 119 843 118 853 119 847 b 111 807 119 831 111 819 b 83 567 111 708 83 628 b 90 449 83 526 90 489 b 89 386 90 428 89 407 b 115 229 89 335 104 278 b 131 188 129 218 129 201 b 217 71 131 125 178 71 b 238 79 224 71 232 79 b 260 72 246 79 251 72 b 329 142 288 72 326 129 b 354 215 338 165 343 192 b 379 288 364 238 365 268 b 449 403 376 285 418 403 b 482 307 447 403 478 321 b 494 256 488 292 494 263 b 493 239 494 250 493 244 b 517 185 493 221 517 200 b 543 17 519 139 525 35 b 585 -76 564 -6 571 -72 b 640 -149 608 -90 607 -129 b 725 -181 672 -168 672 -181 b 797 -147 754 -181 781 -151 b 879 -74 836 -136 860 -106 b 919 -12 892 -53 911 -36 b 954 122 939 25 954 83 b 953 129 954 125 953 126 b 981 181 953 149 968 168 z m 949 311 b 946 318 946 311 946 313 b 949 319 946 319 946 319 z m 963 558 b 963 557 963 557 963 557 b 963 558 963 557 963 557 b 960 565 963 560 963 563 b 953 550 956 561 953 558 b 958 539 953 544 956 542 b 963 558 963 543 961 546 z m 992 308 b 989 311 992 310 990 311 b 985 306 988 311 985 307 b 989 301 985 306 986 301 b 992 308 992 301 992 304 z "},"X":{"ha":774,"x_min":0,"x_max":0,"o":"m 288 21 b 279 8 283 13 282 8 b 275 14 275 8 275 13 b 282 22 275 19 278 22 b 289 19 285 22 286 21 b 282 32 286 24 282 28 b 307 94 282 56 283 81 b 328 139 322 104 328 119 b 322 136 325 138 324 136 b 315 142 319 136 317 138 b 322 153 315 144 318 153 b 328 144 326 150 328 149 b 326 138 328 142 328 139 b 333 156 331 144 333 150 b 326 178 333 163 326 169 b 357 219 326 192 346 219 b 510 28 376 219 453 85 b 576 -36 531 6 543 -15 b 640 -83 607 -36 619 -83 b 646 -82 642 -83 644 -82 b 671 -97 657 -82 664 -97 b 717 -103 686 -100 701 -103 b 774 -51 747 -103 774 -81 b 682 36 768 -24 732 36 b 646 79 676 36 660 67 l 647 79 b 626 86 640 81 633 86 b 615 81 622 86 619 85 b 582 94 606 85 582 86 b 583 104 582 97 583 101 b 553 185 583 121 553 153 b 563 211 553 194 563 201 b 519 278 551 244 546 268 b 499 326 510 294 511 313 b 482 308 494 318 490 308 b 463 426 469 308 463 426 b 469 472 463 440 461 460 b 528 606 490 506 528 594 b 517 625 528 615 522 618 b 556 672 535 643 556 646 b 608 783 556 715 596 756 b 671 944 632 835 654 892 b 611 992 671 967 642 992 b 499 782 583 992 499 785 b 440 674 492 746 460 707 b 399 585 424 644 417 614 b 328 722 356 599 350 672 b 267 836 310 761 306 829 b 214 947 260 839 228 915 b 135 1032 200 978 160 1032 b 28 938 96 1032 39 971 b 101 792 51 893 96 828 b 110 774 101 785 106 779 b 210 551 150 701 194 574 b 281 390 243 503 250 442 b 286 364 285 382 286 374 b 193 119 286 279 213 199 b 163 56 186 94 172 85 b 128 -69 149 14 135 -26 b 163 -90 128 -85 151 -90 b 217 -79 181 -90 207 -79 b 238 -86 225 -79 229 -86 b 297 10 285 -67 297 -58 b 288 21 297 13 290 17 z m 272 739 b 272 742 272 740 272 742 b 274 740 272 742 272 742 b 271 740 274 740 272 740 b 274 742 272 740 272 742 b 275 739 275 742 275 740 b 272 739 275 739 274 739 z m 494 667 b 504 683 497 675 501 678 b 494 668 504 676 497 674 b 497 658 496 665 497 661 b 490 626 497 647 490 638 b 492 619 490 624 490 622 b 438 528 474 619 456 528 b 426 531 435 528 431 529 l 428 528 l 425 529 b 443 572 428 544 443 574 b 438 593 443 575 442 582 b 469 626 446 606 457 626 b 492 619 475 626 483 624 b 482 650 488 629 482 639 b 494 667 482 657 486 663 z m 267 115 l 265 117 b 235 90 260 96 249 90 b 231 97 233 90 231 96 b 258 117 235 108 246 117 b 267 115 261 117 264 117 z m 342 569 b 321 629 321 583 321 610 b 325 635 321 632 321 635 b 340 568 338 635 339 588 b 350 550 343 563 346 556 b 343 544 350 549 347 544 b 339 554 339 544 339 551 b 342 569 339 560 340 564 z m 303 207 b 260 139 299 194 279 139 b 249 147 256 139 249 144 b 282 219 256 175 251 189 b 276 240 279 225 276 235 b 321 272 276 265 321 272 b 324 258 322 272 324 263 b 301 207 324 239 310 224 z m 538 232 b 535 219 538 229 536 224 b 519 254 528 224 519 243 b 526 260 519 258 525 260 b 538 232 535 260 536 242 z m 475 157 b 479 161 478 160 479 161 b 506 122 494 153 506 142 b 499 118 506 119 499 118 b 475 157 493 118 481 144 z m 618 54 b 611 44 615 49 615 44 b 594 60 604 44 594 54 b 604 67 594 65 599 67 b 618 54 613 67 617 63 z m 228 14 b 225 24 225 17 225 21 b 236 43 225 31 231 43 b 240 38 239 43 240 40 b 228 14 240 32 231 19 z m 336 504 b 333 497 335 503 333 500 b 331 501 332 499 331 500 b 335 508 331 504 331 504 b 336 504 335 507 336 506 z m 269 797 l 272 796 l 271 793 z m 415 318 l 415 321 l 419 319 z m 650 108 b 653 113 651 110 653 113 b 625 160 643 138 640 160 b 622 154 622 160 622 157 b 650 108 622 143 631 108 z m 647 79 b 646 79 647 79 646 79 b 650 76 647 79 649 78 z m 272 739 b 274 740 272 740 274 740 b 275 739 274 740 275 740 b 272 739 275 739 274 739 z "},"Y":{"ha":813,"x_min":0,"x_max":0,"o":"m 675 497 b 675 494 675 497 675 496 b 674 497 675 494 675 496 b 690 508 683 497 690 506 b 676 531 690 511 676 518 b 692 561 676 544 692 553 b 686 575 692 564 686 571 b 699 607 686 583 699 594 b 693 628 699 614 693 621 b 724 708 693 625 710 686 b 719 749 724 726 719 739 b 744 854 719 774 744 813 b 683 1003 744 908 739 1003 b 561 929 638 1003 579 976 b 511 879 554 911 522 903 b 453 814 497 851 475 832 b 429 776 447 792 447 793 b 342 649 379 728 349 658 b 235 499 313 606 250 499 b 197 728 211 499 197 688 b 203 790 197 749 203 769 b 114 943 203 874 201 918 b 76 857 69 943 76 896 b 69 736 76 817 69 776 b 74 675 69 717 74 696 b 71 647 71 665 71 656 b 117 426 71 535 96 490 b 169 361 125 400 169 363 b 185 356 174 357 179 356 b 204 357 192 356 197 357 b 225 351 211 357 218 351 b 278 374 238 351 261 365 b 276 374 278 374 276 374 b 294 369 281 374 289 369 b 376 501 331 369 365 489 b 457 701 438 563 443 663 b 465 740 461 714 456 729 b 475 731 469 733 474 731 b 513 772 476 731 513 774 b 553 826 513 796 553 797 b 596 876 553 847 583 876 b 604 865 604 876 604 871 b 588 699 603 808 588 753 b 592 675 588 692 592 683 b 572 572 592 653 572 607 b 583 499 572 554 583 525 b 560 465 583 485 560 482 b 563 449 560 461 563 456 b 447 361 563 414 499 371 b 279 226 408 346 293 249 b 211 125 257 192 211 144 b 206 65 211 106 206 86 b 207 49 206 60 207 54 b 193 8 207 29 193 19 b 206 -35 193 0 203 -19 b 239 -93 208 -61 201 -82 b 357 -161 293 -119 304 -161 b 385 -157 367 -161 375 -157 b 399 -161 389 -157 394 -157 b 474 -118 419 -161 438 -118 b 493 -122 479 -118 486 -122 b 553 -61 508 -122 544 -75 b 542 -47 546 -61 542 -54 b 547 -33 542 -37 546 -33 b 554 -51 553 -33 554 -44 b 551 -62 554 -54 553 -58 b 568 -10 560 -44 568 -28 b 564 17 568 -1 564 8 b 590 94 564 35 588 81 b 594 125 593 104 593 115 b 649 206 635 128 601 164 b 665 247 661 215 651 236 b 678 275 674 254 678 264 b 674 311 678 288 674 297 b 663 294 671 303 668 300 b 656 328 654 310 660 303 b 767 404 656 378 732 385 b 882 432 794 419 849 432 b 900 428 890 432 900 428 b 924 465 917 443 922 454 b 889 481 924 476 900 479 b 858 479 879 481 868 479 b 843 481 853 479 849 481 b 778 463 815 481 794 463 b 758 465 772 463 765 465 b 694 456 740 465 715 456 b 682 467 688 456 682 460 b 685 479 682 471 685 475 b 675 497 685 486 681 492 z m 490 42 b 507 17 499 24 507 25 b 496 -6 507 11 503 6 b 481 0 492 -3 486 0 b 439 -37 463 0 464 -32 b 353 -72 411 -43 408 -72 b 306 -1 321 -69 306 -26 b 307 18 306 6 307 11 b 303 33 307 24 303 29 b 454 264 303 135 381 211 b 529 306 476 279 499 301 b 544 289 538 306 544 297 b 528 229 542 267 538 254 b 553 206 542 222 553 215 b 535 174 553 196 542 174 b 526 182 531 174 526 176 b 529 193 526 186 528 189 b 522 199 529 197 528 199 b 514 178 517 199 514 182 b 532 144 514 164 532 156 b 490 42 532 113 506 72 z m 633 538 b 638 528 636 536 638 532 b 629 515 638 524 638 519 b 625 526 626 515 625 522 b 633 538 625 531 628 538 z m 639 253 b 640 257 640 254 640 256 b 643 250 642 254 643 253 b 640 244 643 249 642 246 b 639 253 640 247 640 250 z m 399 -131 b 401 -128 399 -128 400 -128 b 403 -129 403 -128 403 -129 b 401 -132 403 -131 403 -132 b 399 -131 400 -132 400 -131 z m 640 218 b 636 211 639 215 638 211 b 629 215 633 213 632 214 b 632 219 631 217 631 219 b 640 218 635 219 638 218 z m 538 826 b 535 826 536 826 535 826 b 536 831 535 828 535 829 b 539 829 536 831 539 831 b 538 826 539 828 538 826 z m 631 319 b 633 310 632 317 633 313 b 631 308 633 310 632 308 b 628 311 629 308 628 310 b 631 319 628 314 629 317 z m 432 -150 b 447 -142 438 -149 447 -151 b 442 -136 447 -140 446 -136 b 432 -150 440 -136 435 -147 z m 433 -149 b 436 -153 433 -150 433 -153 b 432 -150 436 -151 435 -151 b 433 -149 432 -150 433 -149 z "},"Z":{"ha":939,"x_min":0,"x_max":0,"o":"m 428 144 b 401 131 419 140 413 132 b 393 140 396 131 393 139 b 407 147 393 143 401 147 b 428 144 414 146 421 144 b 454 165 440 150 454 158 b 451 179 454 169 453 172 l 453 179 b 424 171 444 176 432 171 b 414 182 419 171 414 178 b 463 210 414 190 453 210 b 474 189 474 210 474 197 l 472 190 b 542 257 499 192 521 233 b 532 290 539 268 535 279 b 517 288 526 289 522 288 b 508 297 510 288 508 293 b 544 326 508 310 538 326 b 585 290 556 326 578 303 l 585 289 b 644 335 585 319 618 335 b 699 332 663 335 681 332 b 778 393 740 332 778 353 b 692 432 778 424 692 414 b 757 496 701 461 753 469 b 774 531 760 514 774 519 b 772 538 774 532 772 536 b 800 561 772 543 796 544 b 846 610 804 575 833 592 b 911 718 878 654 911 693 b 903 739 911 725 903 732 b 907 761 903 747 907 757 b 788 886 893 775 833 886 b 772 883 782 886 776 883 b 744 886 763 883 753 886 b 414 815 633 886 524 826 b 307 793 378 811 342 796 b 144 781 253 789 200 781 b 85 861 90 781 111 835 b 32 894 74 871 44 894 b 0 817 10 872 0 842 b 189 610 0 735 92 610 b 311 629 221 610 274 624 b 399 660 342 633 372 642 b 433 672 408 667 419 672 b 446 671 438 672 442 671 b 511 701 463 671 483 701 b 536 699 518 701 526 699 b 589 708 553 699 569 708 b 597 697 592 708 597 704 b 556 643 597 685 569 651 b 446 506 526 604 446 521 b 333 410 436 460 358 410 b 242 429 301 410 278 418 b 235 431 239 429 238 431 b 208 394 222 431 217 411 b 290 328 226 344 221 369 b 307 306 299 321 307 314 b 267 265 307 283 267 275 b 282 251 267 257 282 260 b 243 183 282 219 243 218 b 213 129 243 181 214 132 b 207 114 210 124 207 119 b 211 83 207 104 211 93 b 188 -6 211 53 188 24 b 265 -57 188 -46 253 -57 b 565 6 354 -57 497 6 b 739 -29 624 6 683 -7 b 794 -40 758 -37 768 -40 b 832 -26 808 -40 824 -39 b 842 -29 835 -28 839 -29 b 865 -6 851 -29 865 -15 b 861 7 865 -1 861 3 b 872 26 861 13 869 18 b 669 89 818 81 725 64 b 639 96 660 93 650 96 b 599 93 625 96 611 93 b 574 94 590 93 582 94 b 460 78 533 94 499 78 b 425 125 435 78 425 90 b 428 144 425 131 426 138 z m 556 454 b 556 451 556 454 556 453 b 553 453 554 453 554 453 b 556 454 554 453 554 453 z m 483 267 b 483 264 483 265 483 265 b 485 265 485 264 485 265 b 472 260 475 265 472 264 b 474 250 472 258 474 256 b 457 235 468 243 461 235 b 456 240 457 236 456 239 b 468 250 456 246 465 250 b 474 249 469 250 472 249 b 483 267 478 254 481 261 z m 689 478 l 686 476 b 689 464 688 471 689 467 b 681 456 689 463 686 456 b 674 460 679 456 674 457 b 689 478 674 464 682 472 z m 376 90 b 394 107 379 93 393 107 b 401 103 397 107 400 104 b 388 88 400 93 396 88 b 375 90 383 88 379 89 b 378 97 376 93 376 96 b 375 94 376 97 375 96 b 376 90 375 93 376 92 z m 400 222 b 406 229 401 224 404 229 b 410 225 408 229 410 226 b 403 219 410 222 407 219 b 399 224 400 219 400 221 b 388 178 399 210 399 189 b 379 192 379 182 379 182 b 400 222 379 200 392 214 z m 529 424 l 529 426 l 533 425 z m 585 289 b 565 293 578 290 571 292 b 560 289 561 293 560 292 b 565 285 560 285 561 285 b 579 290 571 286 574 290 b 585 289 581 290 583 290 z m 472 190 b 453 179 465 188 457 189 l 451 179 b 472 190 461 179 471 179 z "},"":{"ha":760,"x_min":0,"x_max":0,"o":"m 682 -15 b 657 117 682 24 657 68 b 615 297 657 171 615 239 b 628 346 615 314 628 329 b 579 456 628 376 579 415 b 574 506 579 474 574 489 b 575 560 574 524 575 543 b 535 786 568 650 547 786 b 539 808 535 793 539 801 b 533 871 539 826 533 843 b 461 1047 533 929 532 1047 b 331 961 399 1047 371 1054 b 247 782 304 900 275 842 b 214 685 229 756 236 714 b 196 639 214 667 203 654 b 167 528 183 603 167 564 b 131 396 167 490 131 457 b 111 354 131 376 129 354 b 89 356 104 354 97 356 b 78 343 83 356 78 350 b 89 285 78 325 89 304 b 60 128 89 235 61 181 b 44 88 60 114 47 100 b 0 -71 35 36 0 -24 b 36 -101 0 -93 28 -101 b 122 7 81 -101 111 -17 b 232 238 143 50 164 238 b 289 258 250 238 281 258 b 301 257 293 258 297 257 b 338 271 314 257 325 271 b 440 301 369 271 413 301 b 483 174 479 301 483 168 b 497 97 483 150 497 126 b 496 74 497 90 496 82 b 518 -24 496 44 510 8 b 563 -106 525 -54 526 -90 b 596 -133 575 -111 581 -133 b 690 -64 610 -133 688 -67 b 683 -11 689 -43 692 -33 z m 596 224 b 594 224 594 224 594 224 z m 278 379 b 257 378 271 379 264 379 b 243 408 242 378 243 397 b 299 578 243 443 299 556 b 297 589 299 581 297 585 b 339 671 297 611 333 628 b 383 782 346 692 369 782 b 428 521 410 782 417 599 b 440 454 432 493 440 476 b 306 382 440 396 435 403 b 297 381 303 382 300 381 b 278 382 290 381 285 382 b 278 379 278 381 278 381 z "},"":{"ha":876,"x_min":0,"x_max":0,"o":"m 308 -137 b 306 -131 307 -135 307 -132 b 308 -136 307 -132 307 -133 b 307 -140 308 -137 307 -139 b 411 -197 331 -181 369 -187 b 489 -176 438 -194 465 -194 b 551 -147 497 -168 551 -147 b 597 -108 586 -147 571 -135 b 740 72 646 -40 740 33 b 754 104 740 81 754 90 b 794 226 757 150 794 190 b 803 300 794 250 803 275 b 801 318 803 306 801 313 b 807 340 801 326 803 333 b 804 361 806 347 804 354 b 807 378 804 367 806 372 b 776 451 807 411 781 443 b 713 514 768 479 732 514 b 707 513 711 514 708 513 b 671 536 692 513 688 532 b 622 543 656 539 639 543 b 438 501 557 543 501 522 b 317 424 411 497 353 447 b 304 442 308 424 304 435 b 313 518 308 468 313 492 b 325 571 313 539 325 556 b 393 725 325 618 356 692 b 411 757 403 733 408 744 b 490 832 424 810 482 814 b 646 938 515 886 571 924 b 664 908 661 938 664 917 b 661 865 663 894 661 879 b 697 696 661 804 668 746 b 704 693 699 693 701 693 b 765 803 729 693 760 799 b 794 996 797 835 789 935 b 701 1064 794 1044 731 1064 b 497 1003 604 1064 563 1028 b 458 957 472 993 485 957 b 439 960 453 957 444 960 b 364 889 419 960 368 899 b 275 788 343 854 292 829 b 239 750 268 772 256 750 b 228 760 231 750 228 756 b 232 793 228 771 232 782 b 231 815 232 800 231 808 b 243 926 231 851 243 890 b 190 986 243 964 222 986 b 133 967 149 986 133 978 b 135 932 133 958 135 943 b 113 788 135 897 122 828 b 114 758 113 778 114 768 b 103 713 114 742 103 728 b 104 681 103 701 104 690 b 103 675 104 679 104 676 b 86 611 93 664 88 611 b 86 613 86 611 86 611 b 90 592 86 606 90 599 b 82 556 90 581 82 569 b 89 479 82 531 89 503 b 81 385 89 447 82 417 b 69 338 72 369 69 354 b 85 235 69 306 85 258 b 83 218 85 229 83 224 b 90 164 83 200 90 182 b 86 118 90 149 86 133 b 171 15 86 58 108 15 b 182 17 175 15 178 15 b 247 -76 225 17 219 -54 b 308 -137 274 -99 283 -119 z m 533 -64 b 486 -82 513 -74 486 -62 b 471 -93 486 -87 485 -93 b 451 -92 465 -93 458 -92 b 421 -100 440 -92 432 -100 b 404 -99 415 -100 410 -99 b 388 -100 399 -99 393 -100 b 282 46 325 -100 282 14 b 303 111 282 56 300 86 b 299 167 303 129 299 149 b 471 407 299 247 397 372 b 601 453 522 431 549 453 b 707 314 682 453 707 379 b 678 185 707 258 681 206 b 589 26 678 143 629 58 b 586 13 586 21 586 17 b 589 -8 586 4 589 -1 b 532 -67 589 -40 558 -49 b 535 -64 533 -65 535 -65 b 536 -67 536 -67 536 -67 b 533 -64 536 -67 535 -67 z m 290 428 b 285 411 290 422 290 411 b 276 425 278 411 276 421 b 286 439 276 426 281 439 b 290 428 288 439 290 435 z m 532 -67 b 535 -64 533 -65 535 -65 b 536 -68 536 -67 536 -67 b 533 -65 536 -68 535 -67 b 532 -67 533 -65 532 -67 z "},"":{"ha":990,"x_min":0,"x_max":0,"o":"m 283 461 b 279 496 283 472 279 485 b 303 575 279 532 303 551 b 300 596 303 582 300 589 b 301 614 300 601 301 607 b 293 619 299 615 296 617 b 296 624 293 621 294 624 b 300 613 301 621 300 617 b 318 651 310 618 318 642 b 308 697 318 661 308 682 b 315 740 308 713 311 726 b 354 788 339 747 336 776 b 386 851 382 804 365 840 l 385 851 b 396 892 392 867 389 888 b 410 932 411 899 410 918 b 407 950 410 938 407 944 b 424 958 407 957 413 958 b 489 1001 444 958 465 989 l 488 1000 b 524 1033 493 1013 499 1033 b 607 1058 543 1043 586 1058 b 633 1006 631 1058 633 1024 b 600 874 633 958 614 917 b 608 822 603 858 608 840 b 579 783 608 804 585 799 b 500 688 571 750 526 721 b 360 567 436 607 401 603 b 293 510 338 547 314 529 b 283 461 290 493 286 478 b 347 413 306 454 308 413 b 471 531 379 413 439 500 b 685 660 531 588 583 660 b 783 578 733 654 776 640 b 703 501 783 557 732 521 b 481 225 603 424 551 331 b 406 14 449 167 406 72 b 472 -117 406 -69 440 -117 b 535 -142 496 -122 510 -142 b 603 -112 575 -142 601 -114 b 649 -78 614 -96 636 -100 b 724 22 669 -40 711 -14 b 760 75 731 42 760 58 b 793 149 763 100 790 147 b 838 258 811 167 838 244 b 835 275 838 264 835 271 b 861 350 835 296 861 322 b 860 365 861 356 860 360 b 878 486 860 404 878 439 b 906 536 878 508 890 522 b 968 571 931 540 944 563 b 990 607 979 574 990 590 b 961 647 990 621 978 647 b 876 621 940 647 890 621 b 819 674 860 621 824 650 b 682 725 814 704 711 725 b 636 718 667 725 650 718 b 611 733 628 718 611 724 b 649 776 611 758 649 750 b 674 818 649 797 671 801 b 708 871 676 846 707 853 b 732 961 711 904 732 933 b 692 1104 732 1008 724 1075 b 697 1094 693 1101 696 1099 b 693 1089 697 1090 694 1089 b 689 1093 690 1089 689 1090 b 693 1107 690 1097 693 1103 b 671 1126 693 1124 683 1126 b 617 1142 653 1126 643 1142 b 544 1118 572 1142 567 1118 b 492 1075 518 1118 513 1085 b 407 981 440 1050 411 983 b 375 928 379 963 390 942 b 324 839 350 907 324 850 b 328 804 324 828 326 818 b 265 696 260 790 293 696 b 254 710 261 696 254 703 b 265 826 254 747 265 789 b 214 986 260 868 253 986 b 176 988 201 988 189 988 b 144 954 160 986 144 972 b 168 907 144 936 168 928 b 106 574 168 765 106 619 b 85 439 106 528 85 485 b 101 388 85 419 89 404 b 106 376 104 383 106 381 b 93 346 106 365 93 357 b 94 326 93 340 94 333 b 69 264 94 303 69 290 b 81 236 69 254 81 246 b 72 210 81 228 72 221 b 82 85 72 168 82 128 b 83 68 82 79 82 74 b 172 -4 101 0 83 14 b 244 147 236 -4 242 99 b 260 233 246 176 250 206 b 263 249 261 238 263 243 b 261 265 263 254 261 260 b 263 289 261 274 263 282 b 257 319 263 300 257 310 b 279 401 257 350 279 393 b 278 411 279 404 278 408 b 283 461 278 428 283 442 z m 767 438 b 782 376 765 438 782 393 b 747 290 782 360 753 293 b 700 207 724 267 713 233 b 715 178 700 193 715 190 b 681 126 715 161 681 153 b 682 115 681 122 682 118 b 638 57 682 88 638 90 b 640 42 638 53 640 47 b 558 -35 640 26 556 -36 b 511 -44 544 -39 526 -44 b 490 0 490 -44 490 -18 b 596 256 490 100 572 225 b 692 376 626 296 660 336 b 696 381 693 378 693 379 b 767 438 726 390 742 421 z m 740 254 b 738 256 739 254 739 256 b 742 257 739 257 740 257 b 744 256 743 257 743 256 b 740 254 743 254 742 254 z m 385 851 b 388 853 386 853 386 853 b 386 854 386 854 386 854 b 385 851 386 853 386 851 z m 488 1000 b 489 1001 488 1000 489 1001 b 490 996 489 999 489 996 b 492 997 492 996 492 996 b 488 1000 492 999 490 1000 z "},"":{"ha":639,"x_min":0,"x_max":0,"o":"m 189 188 b 211 131 200 164 211 154 b 190 68 211 110 207 89 b 188 118 189 85 188 103 b 200 172 188 138 190 156 b 189 189 197 178 193 183 b 150 10 150 139 150 71 b 218 -94 150 -31 158 -94 b 263 -83 233 -94 246 -83 b 300 -56 275 -83 286 -56 b 325 -69 307 -56 317 -69 b 375 11 338 -69 339 -10 b 432 104 393 21 429 104 b 447 76 447 104 438 76 b 472 115 464 76 463 108 b 554 201 506 140 517 193 b 607 251 578 207 579 251 b 679 290 626 251 644 290 b 750 369 715 290 750 368 b 718 390 750 385 731 390 b 592 329 639 390 601 332 b 469 232 536 310 485 254 b 443 203 461 222 453 213 b 428 171 433 194 438 179 b 410 178 419 175 417 178 b 299 78 385 178 333 78 b 288 89 289 78 290 79 b 321 179 288 122 317 156 b 324 213 322 190 324 201 b 306 194 319 207 311 194 b 297 215 296 194 297 208 b 313 238 297 229 301 238 b 325 235 315 238 319 236 b 319 244 324 239 321 240 b 324 250 319 247 321 250 b 329 246 328 250 329 246 b 321 214 324 235 321 228 b 325 210 321 213 321 210 b 340 243 342 210 340 231 b 331 311 340 265 335 288 b 376 361 349 328 376 349 b 361 389 376 369 361 379 b 369 406 361 394 364 406 b 388 394 376 406 379 394 b 397 404 394 394 397 399 b 394 425 397 411 394 418 b 400 450 394 433 400 442 b 392 469 400 457 392 464 b 396 482 392 474 394 479 b 393 493 396 486 394 489 b 396 492 394 493 396 492 b 393 493 394 493 394 493 b 394 490 393 493 393 492 b 443 529 406 500 436 529 b 442 503 442 521 442 511 b 450 456 442 486 443 471 l 449 456 b 476 539 453 490 444 519 b 485 563 483 543 485 551 b 514 674 485 589 514 631 b 533 724 514 679 525 710 l 532 722 b 521 739 525 725 521 731 b 542 835 521 769 542 803 b 493 949 542 854 513 897 b 438 1004 483 975 467 996 b 408 1019 428 1006 421 1018 b 369 1022 394 1019 382 1022 b 185 971 239 1022 197 982 b 108 900 158 947 135 922 b 0 753 72 869 0 778 b 97 707 0 724 65 707 b 228 835 139 707 179 822 b 274 883 256 842 265 883 b 351 926 304 886 321 926 b 388 822 396 926 383 861 b 336 560 388 729 349 649 b 304 499 317 544 325 518 b 261 400 281 476 285 429 b 239 344 249 383 249 353 b 199 250 214 318 219 275 b 189 224 192 240 189 232 b 192 206 189 218 192 211 b 189 188 192 200 189 193 z m 432 654 b 431 653 431 654 431 653 b 428 656 429 653 428 654 b 429 657 428 656 429 656 b 433 656 431 657 432 657 b 432 657 432 656 432 657 b 432 654 432 656 432 656 z m 475 635 b 479 640 475 639 476 640 b 471 628 479 640 471 628 b 467 633 469 628 468 631 b 475 635 469 633 472 635 z m 264 240 b 271 207 265 231 271 217 b 251 182 271 200 261 182 b 244 201 244 182 244 194 b 264 240 244 211 254 232 b 250 246 257 243 253 246 b 226 219 242 246 236 219 b 218 224 222 219 218 221 b 253 301 218 251 232 293 b 276 321 263 304 276 311 b 275 331 275 324 275 328 b 318 415 275 367 297 415 b 332 383 333 415 332 394 b 304 325 332 358 319 354 b 306 310 304 319 306 314 b 267 239 306 306 286 239 b 264 240 267 239 265 240 z m 246 138 b 231 97 244 131 238 97 b 228 100 231 97 228 100 b 229 110 229 103 229 107 b 219 139 229 119 219 129 b 235 158 219 144 226 158 b 246 138 247 158 246 149 z m 371 472 b 379 447 374 464 376 456 b 368 438 379 442 374 438 b 354 458 358 438 354 451 b 371 472 354 468 361 472 z m 404 556 b 397 567 399 556 397 563 b 417 582 400 576 408 581 b 425 572 422 582 425 576 b 404 556 421 563 414 557 z m 471 575 b 475 567 472 572 475 569 b 468 561 475 563 472 561 b 461 567 464 561 461 564 b 471 575 461 571 467 574 z m 471 718 l 475 719 l 475 717 z m 290 168 b 289 165 289 167 289 165 b 285 167 288 165 285 165 b 286 169 285 168 285 169 b 290 168 288 169 289 169 z m 272 389 l 271 386 l 268 388 z m 449 456 b 450 456 449 456 450 456 b 414 439 428 453 428 453 l 415 442 b 426 433 419 439 422 436 l 425 433 b 449 456 432 443 435 446 z m 532 722 b 533 724 532 722 533 724 b 532 722 532 724 532 722 z m 425 433 b 429 436 426 433 428 435 z m 415 442 b 417 438 415 440 415 439 b 418 440 418 439 418 440 b 414 439 417 440 415 439 b 415 442 414 439 415 442 z m 393 493 b 394 490 393 493 394 490 b 393 493 393 492 393 493 b 396 492 394 493 394 493 b 393 493 396 492 394 493 z "},"":{"ha":990,"x_min":0,"x_max":0,"o":"m 365 11 b 378 10 369 10 374 10 l 378 11 b 454 122 390 21 433 122 b 497 104 467 122 485 111 b 747 32 574 63 661 32 b 915 139 813 32 907 65 b 946 188 918 164 943 171 b 958 361 960 249 958 301 b 938 435 958 388 938 406 b 910 528 918 458 932 493 b 890 568 903 539 890 558 b 969 622 890 606 944 601 b 974 624 971 624 972 624 b 997 619 981 624 989 619 b 1042 624 1013 619 1026 624 b 1061 622 1049 624 1054 622 b 1129 665 1092 622 1129 635 b 1085 701 1129 682 1101 696 b 1072 700 1081 701 1076 700 b 1028 703 1058 700 1043 703 b 871 679 983 703 917 679 b 786 775 832 679 800 746 b 664 890 749 815 696 890 b 628 956 646 908 628 915 b 629 986 628 965 628 976 b 533 1043 629 1044 539 1043 b 521 1029 528 1043 521 1035 b 524 1001 521 1019 524 1011 b 483 958 524 976 513 958 b 421 967 463 958 443 967 b 390 965 411 965 400 965 b 329 972 369 965 350 972 b 297 965 319 972 308 965 b 278 976 289 965 288 976 b 153 881 236 976 163 897 b 113 822 142 861 117 836 b 85 701 106 781 85 743 b 86 685 85 696 86 690 b 79 664 86 678 79 671 b 82 657 79 661 81 660 b 126 532 107 618 85 563 b 179 476 147 517 160 493 b 296 447 224 461 253 447 b 328 449 306 447 317 449 b 342 446 332 447 338 446 b 371 456 351 446 361 456 b 407 439 382 456 407 447 b 365 313 407 401 382 313 b 347 319 361 313 354 315 b 179 364 297 349 236 364 b -3 282 117 364 28 344 b -67 144 -19 239 -67 207 b -65 126 -67 139 -65 132 b -69 96 -65 118 -69 107 b -54 -6 -69 64 -68 14 b -12 -100 -32 -35 -36 -74 b 154 -183 25 -144 93 -183 b 272 -128 188 -183 251 -165 b 357 -24 290 -93 357 -74 b 365 11 357 -10 357 -4 z m 811 450 b 825 338 817 414 825 375 b 814 294 815 324 814 308 b 815 251 814 279 815 265 b 743 147 811 206 800 147 b 489 251 656 151 489 219 b 532 447 489 294 532 379 b 621 515 543 494 594 515 b 749 563 664 519 704 544 b 754 564 750 563 753 564 b 799 496 790 564 785 510 b 814 465 808 486 814 476 b 811 450 814 461 813 456 z m 342 547 b 207 628 288 547 217 574 b 190 676 203 644 192 661 b 222 756 190 724 224 758 b 393 910 257 842 310 910 b 499 857 429 910 499 899 b 453 608 499 774 453 676 b 342 547 453 546 390 550 z m 96 -100 b 33 50 51 -56 33 -7 b 35 94 33 64 35 78 b 33 111 33 100 33 106 b 168 282 33 196 69 282 b 332 194 208 282 332 231 b 333 181 332 190 333 185 b 275 56 333 144 288 88 b 125 -92 250 -8 192 -83 b 96 -100 115 -92 107 -96 z m 658 610 b 593 603 636 607 615 606 b 579 615 585 603 579 608 b 617 793 579 681 603 793 b 714 653 646 793 714 696 b 658 610 714 638 678 622 z m 864 504 b 863 568 864 529 863 549 b 864 572 863 569 864 572 b 881 547 876 572 881 557 b 864 504 881 535 872 522 z m 378 11 b 364 10 374 10 369 10 l 365 11 b 371 3 368 7 368 3 b 378 11 375 3 375 8 z m 378 10 b 364 10 374 10 369 10 b 378 10 369 10 374 10 z "},"":{"ha":678,"x_min":0,"x_max":0,"o":"m 678 899 b 672 942 675 913 672 926 b 674 960 672 947 674 954 b 569 999 674 992 607 999 b 542 994 560 999 551 994 b 389 1004 492 994 436 1004 b 356 1003 378 1004 367 1003 b 299 1011 336 1003 318 1011 b 158 1028 251 1011 204 1011 b 114 860 113 1028 114 893 b 117 824 114 847 117 836 b 107 721 117 790 107 754 b 117 683 107 708 117 694 b 113 661 117 676 113 668 b 114 639 113 654 114 646 b 110 558 114 613 110 583 b 97 522 110 544 97 535 b 119 456 97 501 119 474 b 108 400 119 439 108 424 b 107 315 108 375 107 343 b 119 235 107 260 119 246 b 110 208 119 226 110 217 b 111 193 110 203 111 199 b 106 172 111 186 106 181 b 113 83 106 142 113 113 b 181 -31 113 26 128 -31 b 457 -21 272 -31 363 -21 b 586 -24 500 -21 542 -24 b 647 29 615 -24 647 -19 b 532 78 647 83 539 78 b 442 69 500 78 467 69 b 428 71 436 69 432 71 b 307 64 388 71 347 64 b 282 76 294 64 282 67 b 293 125 282 92 293 113 b 264 172 293 146 264 135 b 279 235 264 193 279 217 b 269 265 279 246 269 254 b 271 279 269 269 271 275 b 269 314 271 290 269 303 b 272 351 269 326 272 339 b 269 396 272 365 271 382 b 504 510 269 492 504 393 b 435 547 504 532 458 547 b 414 544 428 547 422 544 b 375 550 401 544 388 550 b 303 547 351 550 325 547 b 258 594 264 547 258 556 b 260 651 258 613 260 632 b 256 726 260 676 256 701 b 257 772 257 742 257 757 b 254 874 257 807 254 840 b 286 907 254 893 256 907 b 635 883 399 889 525 883 b 678 899 651 883 664 889 z m 193 165 b 174 228 182 175 178 208 b 181 236 174 231 178 236 b 197 188 190 236 197 203 b 193 165 197 181 196 172 z m 235 300 b 228 332 229 311 228 321 b 235 351 228 336 228 351 b 243 328 242 351 243 335 b 235 300 243 319 240 310 z m 181 553 b 174 586 176 564 174 575 b 181 608 174 592 174 608 b 185 590 185 608 185 596 b 181 553 185 578 182 565 z m 235 643 b 224 625 232 636 229 625 b 219 639 221 625 219 633 b 226 650 219 643 221 650 b 235 643 231 650 231 647 z m 228 564 b 224 560 225 561 228 560 b 221 565 222 560 221 561 b 225 568 221 565 224 567 b 228 564 225 567 226 565 z m 172 382 b 169 379 171 381 171 381 b 168 383 168 381 168 382 b 171 386 168 385 169 385 b 172 382 171 385 172 383 z "},"":{"ha":675,"x_min":0,"x_max":0,"o":"m 675 915 b 674 972 675 933 674 953 b 571 1013 674 1006 607 1013 b 540 1008 561 1013 550 1008 b 349 1018 476 1008 413 1018 b 276 1025 326 1018 301 1025 b 160 1042 236 1025 197 1026 b 114 871 113 1042 114 907 b 117 842 114 861 115 851 b 110 736 117 804 110 776 b 115 697 110 722 115 710 b 108 611 115 669 108 640 b 111 575 108 600 111 588 b 97 533 111 557 97 547 b 121 469 97 514 121 489 b 110 428 121 457 110 443 b 111 342 110 399 111 369 b 110 300 111 328 110 314 b 121 247 110 282 121 264 b 103 183 121 232 103 200 b 111 110 103 161 111 132 b 197 -17 111 44 119 -17 b 446 -7 278 -17 363 -7 b 579 -10 490 -7 536 -10 b 647 44 617 -10 647 -8 b 554 92 647 83 588 92 b 511 86 540 92 526 86 b 488 89 503 88 496 89 b 311 76 432 89 364 76 b 281 93 296 76 281 78 b 294 136 283 103 294 122 b 265 183 294 157 265 158 b 278 251 265 207 278 235 b 271 272 278 258 275 265 b 267 326 271 290 269 308 b 271 347 269 333 271 340 b 265 413 271 368 265 390 b 482 479 265 476 461 447 b 504 525 496 499 504 514 b 343 563 504 553 456 563 b 296 561 326 563 307 561 b 258 618 260 561 258 574 b 261 661 258 633 261 646 b 256 739 261 688 256 713 b 257 789 257 756 257 772 b 254 893 257 824 254 858 b 275 921 254 901 258 921 b 368 911 306 921 336 913 b 636 897 457 906 547 897 b 675 915 651 897 664 904 z m 193 176 b 171 239 183 201 176 221 b 181 257 171 243 175 257 b 196 201 189 257 196 217 b 193 176 196 193 196 185 z m 186 590 b 181 567 185 583 185 567 b 171 600 174 567 171 590 b 183 625 171 611 174 625 b 186 621 185 625 186 624 b 185 590 186 613 186 601 b 186 590 185 590 185 590 z m 236 321 b 228 344 231 328 228 336 b 238 365 228 351 229 365 b 243 346 243 365 243 351 b 236 321 243 338 242 329 z m 224 664 b 232 654 231 660 232 660 b 225 640 232 649 229 644 b 221 650 224 643 221 646 b 224 664 221 654 222 658 z m 149 238 b 150 233 149 236 150 235 b 147 229 150 232 149 231 b 146 233 147 231 146 232 b 149 238 146 235 147 236 z m 175 397 b 171 394 174 396 172 394 b 168 401 169 397 168 399 b 171 406 168 403 171 404 b 175 397 172 403 174 400 z m 224 581 b 228 576 226 581 228 581 b 225 572 228 575 226 574 b 222 576 224 574 222 575 b 224 581 222 578 224 579 z m 238 286 b 239 282 238 285 239 283 b 236 281 239 282 238 281 b 233 283 235 281 233 282 b 238 286 233 283 235 285 z m 410 1247 b 408 1247 410 1247 408 1247 b 413 1274 411 1258 413 1267 b 350 1308 413 1296 372 1308 b 314 1188 324 1308 314 1188 b 353 1115 314 1165 322 1115 b 401 1207 369 1115 400 1204 b 410 1247 406 1219 407 1233 z m 436 1201 b 454 1135 438 1186 439 1135 b 536 1267 460 1135 536 1229 b 468 1301 536 1289 478 1301 b 463 1303 465 1301 464 1303 b 436 1201 442 1303 440 1231 z "},"":{"ha":1282,"x_min":0,"x_max":0,"o":"m 311 136 b 372 282 328 183 332 256 b 372 319 372 294 372 307 b 397 386 372 351 397 367 b 390 422 397 397 390 410 b 435 603 390 463 428 588 b 465 626 438 615 451 626 b 500 499 488 626 488 517 b 508 429 511 482 504 449 b 611 289 526 346 564 289 b 742 381 661 289 733 328 b 767 408 744 394 760 393 b 804 486 779 433 800 456 b 831 533 804 500 825 514 b 879 647 840 569 850 615 b 929 718 889 657 911 718 b 939 703 938 718 939 710 b 924 549 939 651 924 600 b 925 501 924 533 925 518 b 915 404 925 469 915 436 b 917 325 915 378 917 351 b 915 293 917 314 915 303 b 953 136 915 210 940 181 b 964 82 957 118 960 100 b 994 51 974 71 989 67 b 1103 6 1006 21 1065 6 b 1135 29 1114 6 1124 24 b 1165 39 1144 35 1156 35 b 1192 65 1178 43 1176 63 b 1282 231 1238 76 1282 225 b 1271 257 1282 240 1281 257 b 1136 138 1232 257 1172 138 b 1071 308 1072 138 1071 314 b 1139 701 1071 443 1094 578 b 1179 904 1163 769 1179 847 b 1083 983 1179 958 1117 961 b 1078 985 1082 985 1079 985 b 1008 940 1040 985 1019 946 b 964 888 982 928 983 903 b 797 710 883 824 804 731 b 750 636 788 683 763 665 b 644 458 728 583 674 458 b 631 525 636 458 631 510 b 633 565 631 539 633 551 b 607 699 631 614 631 650 b 524 750 590 722 550 750 b 471 728 506 750 485 738 b 401 710 450 714 426 711 b 378 824 394 757 397 783 b 143 1025 294 992 247 1025 b -100 882 64 1025 -58 954 b -194 676 -137 817 -194 725 b -131 613 -194 657 -172 613 b -36 792 -74 613 -82 756 b 22 865 -6 817 -17 857 b 53 903 32 868 40 893 b 129 928 76 917 101 928 b 269 690 238 928 263 735 b 279 592 274 658 279 622 b 178 458 279 556 210 507 b 18 210 121 372 60 300 b -25 108 3 178 -25 132 b -24 90 -25 101 -24 96 b -58 3 -24 21 -57 21 b -61 -35 -60 -10 -61 -21 b 19 -112 -61 -69 -51 -101 b 74 -139 36 -115 44 -139 b 119 -100 76 -139 110 -115 b 189 -68 147 -92 189 -90 b 188 -64 189 -67 188 -65 b 200 -44 189 -47 193 -44 b 211 -46 203 -44 207 -46 b 260 15 221 -46 260 -6 b 256 33 260 21 256 28 b 301 111 256 78 299 72 b 311 136 303 121 304 129 z m 54 8 b 90 124 54 42 78 110 b 122 193 108 144 113 168 b 183 328 139 239 183 296 b 213 367 190 343 210 347 b 257 419 217 390 243 408 b 274 401 267 419 271 408 b 243 274 274 374 257 310 b 242 268 243 272 242 269 b 243 225 242 254 243 238 b 193 124 243 215 193 132 b 203 92 193 113 203 101 b 176 53 203 82 189 57 b 69 -24 124 36 97 -24 b 54 8 54 -24 54 4 z m 321 263 b 317 253 319 260 318 257 b 313 265 311 253 313 258 b 317 267 314 265 317 267 b 321 263 318 265 321 264 z m 382 494 b 386 490 385 493 386 492 b 382 482 386 486 382 483 b 378 492 381 486 379 489 b 382 494 378 493 381 494 z m 363 308 l 358 310 l 361 313 z m 310 135 b 311 136 310 135 311 136 b 310 126 311 132 310 129 b 314 121 311 122 313 121 b 319 131 317 121 319 126 b 310 135 317 132 313 133 z m 288 58 b 289 57 288 58 289 57 b 293 61 290 57 292 58 b 289 63 293 63 290 63 b 288 58 289 61 288 60 z m 286 60 l 288 56 b 286 60 288 57 288 58 z "},"":{"ha":810,"x_min":0,"x_max":0,"o":"m 567 269 b 594 289 575 276 589 289 b 599 288 596 289 597 289 b 596 285 599 288 596 285 b 586 288 592 285 589 286 b 588 276 586 283 588 281 b 581 264 588 272 588 265 b 568 271 575 264 571 265 b 476 190 546 244 476 219 b 485 182 476 186 478 182 b 518 197 493 189 510 197 b 479 154 518 178 492 154 b 463 156 474 154 468 156 b 446 144 456 156 450 153 b 458 136 449 143 456 138 b 408 110 454 128 425 119 b 388 118 401 113 394 115 b 303 60 356 86 342 92 b 254 43 288 47 272 43 b 139 143 179 43 139 139 b 72 260 135 188 113 260 b 28 204 43 260 28 213 b 53 153 28 185 50 174 b 94 65 56 118 85 97 b 151 -11 103 36 142 22 b 271 -57 158 -40 229 -57 b 324 -25 300 -57 300 -32 b 424 32 392 -7 424 8 b 414 44 424 38 414 42 b 488 65 414 53 475 65 b 546 113 507 65 526 104 b 639 208 578 121 601 185 b 671 253 646 226 657 240 b 754 468 747 324 754 431 b 649 624 754 532 685 604 b 533 660 601 636 572 660 b 456 681 508 660 456 668 b 521 786 456 721 515 769 b 542 810 524 800 539 800 b 593 950 561 858 593 892 b 404 1088 593 1040 485 1088 b 67 860 264 1088 131 993 b 60 831 61 851 60 836 b 156 756 60 801 133 756 b 226 829 211 756 203 803 b 244 863 236 839 240 850 b 418 989 269 929 358 989 b 469 971 435 989 469 989 b 422 872 469 946 442 900 b 210 608 357 779 297 683 b 188 536 200 582 188 558 b 258 446 188 500 233 446 b 388 525 285 446 339 506 b 515 568 438 544 474 568 b 658 465 583 568 658 542 b 647 401 658 444 654 422 b 610 329 639 376 614 357 b 567 269 590 313 575 311 z "},"":{"ha":1014,"x_min":0,"x_max":0,"o":"m 718 835 b 700 842 711 836 700 835 b 704 847 700 846 701 847 b 742 817 706 847 742 825 b 751 728 743 789 751 756 b 743 694 751 715 743 706 b 751 626 743 674 751 646 b 739 543 751 603 743 569 b 742 532 742 539 742 535 b 739 507 742 524 739 515 b 742 496 739 503 739 500 b 731 429 738 472 731 444 b 735 403 731 419 735 413 b 732 361 735 388 732 375 b 735 331 732 351 735 340 b 715 236 735 294 715 238 b 725 153 715 214 725 181 b 717 -43 725 88 719 22 b 764 -165 717 -75 735 -165 b 822 -107 786 -165 806 -128 b 857 -21 824 -74 857 -101 b 875 40 857 8 875 25 b 865 90 875 53 867 72 b 888 146 885 100 888 124 b 882 176 888 156 882 167 b 892 467 882 274 892 369 b 901 510 892 482 901 499 b 894 544 901 522 894 532 b 914 644 900 575 903 631 b 931 733 926 660 929 706 b 928 751 931 739 929 744 b 944 801 928 763 944 782 b 893 1042 944 893 936 1042 b 853 1025 878 1042 865 1025 b 810 1051 843 1025 829 1046 b 768 1019 796 1040 790 1019 b 706 919 742 1019 708 926 b 644 813 683 881 644 836 b 646 801 644 808 644 806 b 563 681 607 763 581 728 b 489 540 543 632 513 588 b 429 408 489 496 435 463 b 426 397 429 404 428 400 b 375 288 404 364 394 324 b 269 124 351 242 299 124 b 229 190 261 124 229 169 b 231 207 229 196 231 201 b 214 244 231 222 222 233 b 232 335 217 269 232 308 b 211 393 232 354 211 374 b 247 444 211 399 247 428 b 233 475 247 453 233 463 b 250 535 233 496 250 517 b 240 640 250 551 240 592 b 244 697 240 668 244 679 b 243 731 244 708 243 719 b 246 760 243 742 246 751 b 242 807 246 776 242 790 b 247 838 246 817 247 828 b 244 876 247 850 244 864 b 247 901 244 885 247 893 b 178 978 247 950 233 978 b 124 954 154 978 124 978 b 129 914 124 943 129 929 b 126 868 129 899 126 883 b 128 849 126 863 128 856 b 118 801 128 835 118 819 b 97 363 118 654 97 503 b 100 289 97 339 100 314 b 97 232 100 269 97 250 b 118 136 97 197 118 169 b 189 -7 118 71 168 10 b 229 -24 200 -18 214 -24 b 265 -15 244 -24 257 -15 b 276 -17 269 -17 272 -17 b 393 60 347 -17 378 46 b 450 179 422 86 449 133 b 456 185 450 182 453 185 b 467 178 464 185 464 178 b 472 192 474 178 472 185 b 515 321 472 240 515 275 b 550 433 515 365 550 406 b 539 465 550 444 539 461 b 560 500 554 472 546 490 b 581 515 567 506 581 507 b 572 535 581 522 572 528 b 579 567 574 546 579 556 b 578 585 579 572 578 579 b 600 631 578 603 586 618 b 594 639 597 633 594 636 b 639 674 594 658 639 658 b 636 696 639 679 636 689 b 683 768 636 733 658 746 b 675 774 679 769 675 771 b 681 779 675 778 676 779 b 683 776 681 779 683 776 b 682 767 683 772 682 769 b 718 835 714 768 718 792 z m 843 250 b 819 217 843 235 838 217 b 813 221 818 217 815 219 b 832 272 821 235 815 272 b 843 250 842 272 840 257 z m 464 375 b 453 346 463 367 464 351 b 449 367 447 346 449 356 b 457 397 449 381 450 397 b 464 375 464 397 464 383 z m 857 799 b 853 786 857 793 856 786 b 849 793 851 786 849 792 b 856 803 849 797 850 803 b 857 799 856 803 857 800 z m 846 468 b 842 469 844 468 843 469 b 847 476 844 472 846 475 b 851 475 849 476 850 476 b 846 468 849 472 847 471 z m 218 546 b 215 542 218 543 218 542 b 213 544 214 542 213 542 b 217 551 213 546 214 549 b 218 546 217 550 218 549 z m 846 567 b 849 564 847 565 847 565 b 843 558 847 563 846 560 b 840 561 843 558 840 560 b 846 567 840 564 842 567 z m 206 325 b 213 321 210 325 213 324 b 203 314 213 318 206 315 b 200 318 203 315 201 317 b 206 325 200 322 201 325 z m 819 453 l 821 451 z m 500 451 b 500 454 500 453 500 453 b 503 457 500 456 500 457 b 500 451 503 453 503 454 z m 835 599 b 829 606 831 600 829 601 b 836 613 829 611 833 613 b 843 604 843 613 843 608 b 835 599 842 601 838 600 z m 822 568 l 819 569 l 821 572 z m 611 731 b 614 722 613 728 613 725 b 610 719 614 721 611 719 b 608 728 610 722 608 725 b 611 731 608 728 610 729 z m 853 653 b 851 656 851 654 851 656 b 854 657 851 657 854 657 b 856 653 854 656 856 654 b 853 653 856 653 853 653 z m 460 315 b 456 311 458 314 457 313 b 453 319 456 314 454 317 b 457 322 453 321 456 322 b 460 315 457 319 458 317 z m 846 51 l 842 51 l 844 56 z m 885 -10 b 886 -6 885 -8 886 -6 b 882 -3 885 -3 883 -3 b 875 -8 878 -3 876 -7 b 885 -10 878 -8 882 -10 z m 600 631 b 599 622 600 628 599 625 b 600 631 599 625 600 628 z m 568 486 b 565 482 567 485 565 483 b 567 478 565 481 565 479 b 569 482 567 479 569 481 b 568 486 569 483 568 485 z "},"":{"ha":1017,"x_min":0,"x_max":0,"o":"m 718 835 b 699 842 711 836 699 835 b 703 847 700 846 701 847 b 742 817 704 847 742 824 b 750 731 743 789 750 758 b 743 696 750 719 743 707 b 750 624 743 668 750 644 b 739 543 750 600 742 569 b 742 532 740 539 742 536 b 738 506 742 524 738 515 b 740 496 738 503 738 499 b 731 426 738 472 731 449 b 735 399 731 417 735 408 b 731 361 733 385 731 374 b 735 332 731 351 735 342 b 715 236 735 293 715 236 b 721 206 715 225 721 215 b 719 185 721 199 719 192 b 724 113 719 161 724 138 b 715 -43 724 61 718 8 b 744 -153 715 -86 744 -124 b 764 -165 746 -158 756 -165 b 822 -107 783 -165 804 -128 b 857 -21 822 -75 857 -100 b 875 40 857 7 875 25 b 864 90 875 51 868 74 b 888 144 881 99 888 111 b 881 181 888 157 881 168 b 888 256 881 206 888 229 b 892 443 888 318 892 381 b 890 469 892 451 890 461 b 900 508 890 483 900 496 b 894 542 900 521 894 529 b 922 675 894 586 922 665 b 929 735 922 694 929 714 b 926 754 929 740 926 747 b 944 801 926 757 943 785 b 947 872 944 822 947 849 b 942 917 947 889 946 906 b 893 1042 921 950 931 1042 b 853 1025 879 1042 865 1025 b 810 1051 843 1025 829 1046 b 768 1019 796 1040 789 1019 b 704 921 740 1019 710 931 b 643 811 683 881 643 838 b 644 801 643 807 644 804 b 561 681 611 756 581 731 b 488 540 540 631 511 588 b 428 408 488 494 433 461 b 425 397 428 404 428 400 b 375 288 403 364 393 324 b 268 124 353 244 296 124 b 235 161 242 124 271 149 b 229 186 231 169 229 178 b 231 204 229 193 229 199 b 213 244 231 221 222 232 b 231 333 215 268 231 307 b 211 394 231 354 211 374 b 247 444 211 399 247 429 b 232 475 247 454 232 464 b 250 533 232 494 250 515 b 240 639 250 550 240 589 b 246 758 240 686 246 689 b 240 806 246 775 240 789 b 246 836 240 815 246 825 b 244 872 246 847 244 860 b 246 899 244 881 246 890 b 171 978 246 951 232 978 b 124 954 150 978 124 976 b 129 910 124 942 129 926 b 126 869 129 896 126 882 b 128 851 126 863 128 857 b 118 801 128 836 118 819 b 104 528 113 710 114 618 b 97 351 97 469 97 411 b 99 281 97 328 99 304 b 97 224 99 261 97 243 b 118 136 97 194 118 168 b 229 -24 118 39 199 -24 b 264 -15 243 -24 256 -15 b 275 -17 268 -17 272 -17 b 393 60 351 -17 368 44 b 450 179 422 89 450 138 b 456 185 450 182 453 185 b 467 178 463 185 463 178 b 472 183 471 178 472 179 b 471 194 471 188 471 192 b 514 319 471 247 514 271 b 549 433 514 363 549 397 b 538 464 549 444 538 457 b 558 500 543 464 551 493 b 581 515 567 506 581 506 b 572 535 581 522 572 528 b 579 565 572 544 579 554 b 576 585 579 571 576 578 b 600 631 576 603 586 618 b 594 640 597 633 594 636 b 639 674 594 660 639 657 b 636 696 639 679 636 689 b 682 768 636 733 658 744 b 674 775 678 769 674 771 b 679 779 674 778 676 779 b 682 776 681 779 682 776 b 681 767 682 772 682 769 b 718 835 718 769 713 792 z m 818 238 b 835 272 818 250 817 272 b 842 246 839 272 842 251 b 821 217 842 232 835 217 b 813 224 817 217 813 217 b 818 238 814 228 817 233 z m 450 379 b 458 400 450 385 449 390 b 463 374 458 394 463 382 b 456 346 463 367 463 346 b 447 351 454 346 447 350 b 450 379 447 358 449 365 z m 218 547 b 214 542 215 544 218 542 b 213 543 214 542 213 542 b 215 553 213 544 214 551 b 218 547 215 551 217 550 z m 850 476 b 846 468 849 474 847 471 b 842 469 846 468 843 468 b 850 476 844 472 843 476 z m 857 799 b 851 788 854 793 857 788 b 849 792 849 788 849 789 b 853 803 849 796 849 803 b 857 799 856 803 854 800 z m 847 563 b 842 558 846 561 843 560 b 840 563 840 560 840 561 b 843 567 840 565 842 567 b 847 563 844 567 847 565 z m 503 451 b 497 453 500 451 497 451 b 500 457 497 454 499 456 b 503 451 501 457 503 454 z m 833 599 b 828 604 832 600 828 601 b 836 613 828 610 831 613 b 842 606 840 613 842 610 b 833 599 842 601 836 600 z m 207 314 b 201 318 201 314 201 315 b 206 324 201 324 201 324 b 211 318 208 324 211 322 b 207 314 210 317 208 315 z m 611 731 b 613 722 611 728 613 725 b 610 719 613 721 611 719 b 607 728 608 722 607 725 b 611 731 607 728 610 729 z m 854 653 b 850 654 853 653 850 653 b 853 657 851 654 851 656 b 856 656 853 657 856 657 b 854 653 856 654 854 653 z m 456 324 b 458 315 457 321 458 318 b 456 311 458 314 457 313 b 453 319 454 314 453 317 b 456 324 453 321 454 322 z m 482 1104 b 572 1151 518 1104 531 1101 b 606 1175 583 1163 597 1160 b 663 1329 633 1228 663 1257 b 690 1368 663 1349 690 1346 b 635 1410 690 1392 646 1410 b 451 1235 543 1410 539 1264 b 443 1233 449 1233 446 1233 b 369 1306 414 1233 385 1296 b 299 1338 347 1319 314 1336 b 281 1310 286 1338 281 1328 b 458 1103 281 1165 417 1103 b 482 1104 465 1103 475 1104 z m 883 -10 b 886 -6 885 -8 886 -6 b 881 -3 885 -3 882 -3 b 875 -8 878 -3 875 -6 b 883 -10 878 -8 881 -10 z m 600 631 b 599 622 599 628 599 625 b 600 631 599 625 599 628 z m 565 485 b 564 481 565 483 564 482 b 567 479 564 481 567 479 b 568 483 568 481 568 482 b 565 485 568 483 567 485 z "},"":{"ha":771,"x_min":0,"x_max":0,"o":"m 243 81 b 243 71 243 78 243 75 b 242 81 243 75 243 78 b 256 128 253 94 256 94 b 239 154 256 142 239 146 b 246 175 239 161 246 168 b 240 193 246 181 240 185 b 256 232 240 206 256 218 b 254 243 256 236 254 239 b 260 251 254 243 258 251 b 308 193 269 251 297 208 b 604 -4 375 96 501 -4 b 674 47 640 -4 674 3 b 599 81 671 68 625 65 b 442 229 525 121 476 160 b 369 369 419 274 369 351 b 424 442 369 403 417 418 b 472 504 432 474 472 482 b 510 549 474 510 510 549 b 592 626 544 568 556 608 b 650 693 626 643 626 657 b 717 796 707 794 708 778 b 771 885 731 828 771 853 b 703 954 771 925 733 943 b 604 843 636 954 646 875 b 596 824 599 840 600 829 b 581 813 593 818 585 817 b 575 797 576 808 578 800 b 522 735 554 779 546 751 b 461 664 499 717 485 685 b 417 608 444 650 433 618 b 297 492 372 582 343 492 b 249 510 282 492 249 497 b 250 532 249 517 250 524 b 246 536 250 535 249 536 b 222 515 226 536 242 515 b 219 518 221 515 219 518 b 240 533 219 532 231 531 b 239 549 239 538 239 543 b 256 626 239 568 256 600 b 278 753 256 686 278 724 b 278 769 278 758 278 764 b 293 849 278 797 293 821 b 314 957 293 886 314 918 b 300 1029 314 983 313 1017 b 160 1085 258 1068 211 1085 b 143 1026 151 1063 143 1058 b 115 815 143 960 115 886 b 97 700 115 776 97 743 b 108 631 97 683 108 654 b 101 597 108 619 101 608 b 106 561 101 586 106 572 b 104 507 106 543 104 525 b 106 435 104 483 106 460 b 100 338 106 403 100 368 b 106 306 100 326 104 317 b 115 153 108 256 113 204 b 122 21 118 108 115 65 b 118 -8 122 11 118 0 b 122 -39 118 -18 122 -29 b 118 -54 122 -44 121 -49 b 206 -147 149 -117 156 -136 b 256 -42 229 -147 256 -39 b 257 21 256 -21 257 0 b 243 81 257 44 256 54 z m 233 292 b 244 253 246 279 244 269 b 240 244 244 247 243 244 b 231 249 238 244 235 246 b 219 201 224 238 222 219 b 215 232 217 211 215 222 b 235 293 215 267 224 275 b 214 319 214 297 214 300 b 219 329 214 324 214 326 b 235 301 228 324 235 313 b 233 292 235 299 235 294 z m 165 338 b 178 213 178 301 176 251 b 169 194 178 210 172 194 b 160 211 168 194 165 199 b 147 236 151 219 147 226 b 158 289 147 254 158 271 b 149 321 158 300 149 313 b 165 338 149 326 154 332 z m 185 465 b 181 481 182 469 181 475 b 185 500 181 488 182 493 b 190 483 190 500 190 489 b 185 465 190 478 189 471 z m 175 140 b 151 146 168 142 157 140 b 169 158 154 156 157 158 b 178 150 175 158 178 156 b 175 140 178 146 178 146 z m 168 468 b 165 460 168 461 165 461 b 160 465 163 461 160 464 b 165 471 160 468 163 469 b 168 468 165 471 167 469 z m 161 542 b 156 544 158 542 156 542 b 160 550 156 546 157 550 b 165 544 164 550 165 549 b 161 542 164 543 163 542 z m 190 753 b 186 747 190 749 189 747 b 179 751 182 747 179 749 b 186 758 179 756 185 758 b 190 753 188 758 189 756 z m 243 81 b 242 81 243 81 242 81 b 243 71 243 78 243 75 b 243 81 243 75 243 78 z m 197 135 l 194 133 z "},"":{"ha":679,"x_min":0,"x_max":0,"o":"m 525 986 b 529 976 526 983 529 981 b 526 967 529 974 526 971 b 521 972 521 971 521 969 b 526 993 521 979 526 983 b 500 1036 526 1008 510 1022 b 489 1033 496 1035 492 1033 b 471 1049 481 1033 479 1049 b 453 1043 465 1049 458 1043 b 397 1065 443 1043 422 1065 b 329 968 357 1065 344 1000 b 333 953 329 963 333 956 b 313 935 333 951 317 943 b 288 856 301 910 290 883 b 208 686 251 801 242 736 b 146 540 176 638 179 578 b 144 535 144 539 144 538 b 167 518 144 525 154 522 b 186 471 169 501 168 489 l 185 469 b 194 508 194 481 194 496 b 253 638 194 551 253 592 b 274 704 267 663 271 675 b 304 756 301 704 304 732 b 304 774 304 763 304 768 b 339 825 318 790 339 810 b 338 843 339 831 338 838 b 347 860 338 850 339 860 b 397 697 372 860 397 699 b 396 550 397 653 396 601 b 411 422 396 499 411 449 b 404 349 411 401 404 369 b 421 265 404 322 421 297 b 419 221 421 250 419 236 b 422 188 419 210 422 199 b 414 140 422 171 414 157 b 433 93 414 121 433 115 b 432 28 433 75 432 51 b 454 -79 432 -21 436 -72 b 478 -114 471 -86 463 -114 b 564 -42 506 -114 564 -40 b 582 33 567 -15 582 6 b 563 65 581 46 582 63 b 556 76 557 65 556 71 b 556 92 556 82 556 86 b 550 107 556 99 554 104 b 540 63 543 107 542 74 b 532 56 540 61 536 60 b 526 108 528 74 526 92 b 539 186 526 135 531 160 l 540 183 b 517 175 531 181 517 175 b 507 186 511 175 507 181 b 514 214 507 196 514 206 b 511 226 514 218 511 222 b 536 256 511 236 528 247 b 524 296 532 269 528 283 b 508 303 514 297 508 299 b 533 354 508 315 526 342 b 525 392 528 367 525 379 b 542 558 525 443 542 503 b 549 597 542 571 549 585 b 540 646 549 611 540 628 b 538 813 540 703 538 757 b 539 924 538 850 539 886 b 525 986 539 946 536 967 z m 514 568 b 494 429 508 510 494 475 b 499 394 494 418 499 406 b 490 235 499 369 494 235 b 476 274 475 235 476 263 b 482 360 476 303 482 332 b 481 390 482 369 481 381 b 482 432 481 404 482 418 b 479 465 482 444 479 454 b 481 494 479 475 481 485 b 479 510 481 500 479 506 b 514 568 479 531 492 549 z m 497 154 b 488 114 496 142 499 119 b 478 160 479 125 478 144 b 490 192 478 171 478 185 b 497 154 497 182 496 165 z m 344 896 b 339 890 344 892 343 890 b 335 894 338 890 335 892 b 339 900 335 897 336 900 b 344 896 342 900 344 899 z m 457 397 b 453 396 456 397 454 396 b 450 401 451 396 450 400 b 453 404 450 401 450 403 b 457 397 457 404 457 403 z m 160 488 b 146 501 156 493 151 501 b 69 322 126 501 83 358 b 29 206 57 290 31 224 b -1 104 26 171 -1 125 b -29 14 -1 78 -21 39 b -69 -136 -46 -35 -53 -87 b -36 -161 -69 -153 -47 -161 b 79 65 24 -161 72 46 b 117 214 97 114 93 175 b 133 264 125 229 131 246 b 131 275 132 268 131 271 b 153 331 131 294 153 311 b 161 413 153 358 160 385 b 151 456 161 428 151 444 b 160 488 151 464 157 475 z m 540 183 b 539 186 540 183 539 186 b 551 164 547 179 551 172 b 550 156 551 161 551 158 b 553 151 550 154 551 151 b 568 199 564 151 568 189 b 558 215 567 204 563 215 b 540 183 547 215 543 197 z m 185 469 l 183 468 b 185 471 183 468 185 471 b 185 469 185 469 185 469 z "},"":{"ha":1011,"x_min":0,"x_max":0,"o":"m 247 196 b 244 192 247 192 247 192 b 254 221 244 192 254 210 b 243 244 254 229 243 236 b 250 272 243 254 250 264 b 240 321 250 289 244 304 l 242 319 b 228 310 236 317 233 310 b 213 344 214 310 213 333 b 218 371 213 354 214 363 b 233 357 222 367 228 357 b 249 442 250 357 249 419 b 247 486 249 457 247 471 b 274 611 247 558 258 572 b 290 588 283 604 290 597 b 289 575 290 583 289 579 b 392 446 289 536 356 456 b 425 439 403 443 413 439 b 529 529 483 439 517 475 b 582 707 543 592 575 644 b 617 789 585 738 585 738 b 626 811 624 796 626 804 b 622 839 626 821 622 831 b 638 864 622 847 625 857 b 646 911 640 881 643 896 b 697 953 672 924 697 953 b 747 793 732 953 747 788 b 746 735 747 775 746 754 b 769 485 746 653 769 567 b 765 454 769 474 765 464 b 796 304 765 404 789 304 b 806 310 800 308 803 310 b 810 296 810 310 810 303 b 808 275 810 289 808 282 b 810 264 808 271 810 268 b 789 211 810 243 789 246 b 810 133 789 171 810 142 b 804 117 810 128 808 122 b 789 54 792 97 793 75 b 793 38 792 49 793 43 b 781 -1 793 24 781 13 b 797 -61 781 -21 793 -42 b 856 -193 806 -104 800 -193 b 914 -107 876 -187 914 -106 b 907 7 910 -69 907 -31 b 911 90 907 35 908 63 b 903 121 911 101 910 121 b 892 97 896 121 903 97 b 871 76 876 97 879 83 b 867 89 868 81 867 85 b 868 103 867 93 868 99 b 867 111 868 106 867 108 b 878 138 867 122 874 131 l 879 138 b 869 156 874 143 869 149 b 879 175 869 161 879 171 b 868 186 879 179 868 183 b 865 219 867 197 865 208 b 875 254 865 232 875 253 b 858 308 875 269 858 286 b 857 351 858 322 857 338 b 858 439 857 381 858 410 b 875 435 864 438 868 436 b 886 479 878 449 886 467 b 882 492 886 483 885 488 b 883 506 883 496 883 501 b 882 533 883 515 882 524 b 888 568 882 546 888 558 b 876 635 888 590 876 613 b 894 726 876 679 894 697 b 892 792 894 749 892 769 b 896 839 892 807 896 824 b 869 876 896 863 869 872 b 867 875 868 875 867 875 b 871 874 867 874 868 874 b 869 883 869 876 869 881 b 883 925 869 899 883 913 b 856 963 883 935 856 943 b 861 983 856 971 861 979 b 768 1065 861 1035 782 1065 b 747 1064 761 1065 754 1064 b 724 1067 739 1064 731 1067 b 663 1015 707 1067 674 1036 b 610 953 651 994 619 964 b 468 711 557 874 504 797 b 419 640 458 690 431 640 b 393 686 403 640 393 674 b 335 844 393 740 335 803 b 281 1033 324 910 281 971 b 236 1057 281 1051 254 1057 b 172 1029 214 1057 192 1040 b 146 964 165 997 146 968 b 157 928 146 956 157 942 b 142 814 157 892 142 851 b 144 797 142 808 144 803 b 143 789 144 794 143 790 b 129 697 133 758 129 728 b 131 669 129 688 129 679 b 128 660 129 665 128 663 b 147 629 128 649 138 640 b 111 578 129 618 111 597 b 124 553 111 569 119 558 b 108 535 117 546 108 543 b 110 522 108 531 110 526 b 101 486 110 510 101 500 b 107 426 101 467 107 446 b 103 381 107 411 103 396 b 104 336 103 365 104 351 b 101 321 103 331 101 325 b 103 310 101 317 103 313 b 97 289 103 303 101 296 b 119 107 100 225 119 168 b 118 82 119 99 118 90 b 183 -31 118 63 150 -31 b 231 14 208 -31 210 13 b 250 58 232 14 250 50 b 243 74 250 63 243 68 b 257 94 243 81 257 88 b 257 125 257 103 257 114 b 247 196 257 151 256 181 z m 828 571 b 831 575 828 572 829 574 b 833 572 831 574 833 574 b 831 568 833 569 832 568 b 828 569 829 568 829 568 b 831 571 829 571 829 571 b 831 568 831 569 831 569 b 828 571 829 569 828 571 z m 139 339 b 146 344 142 339 144 342 b 149 342 147 343 147 342 b 139 339 146 340 142 339 z m 875 -25 b 871 -14 874 -21 871 -18 b 874 4 872 -8 874 -1 b 868 26 874 11 868 18 b 896 60 868 39 882 47 b 901 7 899 39 901 22 b 885 -60 901 -18 885 -42 b 888 -74 885 -64 886 -68 b 890 -72 889 -72 889 -72 b 888 -71 889 -71 889 -71 b 889 -74 888 -72 888 -72 b 875 -25 883 -57 879 -40 z m 221 411 b 203 442 214 421 203 431 b 210 465 203 449 210 456 b 204 528 210 486 204 507 b 219 589 204 553 206 589 b 233 579 224 589 233 586 b 218 564 233 572 228 571 l 218 526 b 238 492 232 517 238 506 b 221 411 238 472 225 436 z m 853 142 b 847 100 853 124 854 100 b 831 161 847 100 831 153 b 847 200 831 188 832 200 b 856 142 856 200 854 157 b 853 142 854 142 854 142 z m 844 390 b 838 365 844 382 843 371 b 825 403 836 365 825 400 b 836 411 825 408 832 411 b 844 390 842 411 844 401 z m 246 121 b 240 146 239 128 240 138 b 246 157 240 150 240 154 b 249 153 246 156 249 154 b 246 121 247 143 247 133 z m 861 574 b 863 547 863 558 863 553 b 861 543 863 546 863 544 b 858 550 860 544 858 547 b 861 574 858 554 860 558 z m 175 269 b 176 275 175 271 175 274 b 181 268 178 272 181 271 b 176 256 179 264 178 260 b 175 269 176 260 175 265 z m 838 504 b 842 494 840 501 842 497 b 829 485 842 488 839 485 b 826 488 828 485 826 486 b 838 504 826 492 833 497 z m 133 490 b 139 476 135 485 138 481 b 132 472 139 476 135 474 b 128 481 131 475 128 478 b 133 490 128 483 131 486 z m 154 388 b 143 372 154 379 149 372 b 136 385 139 372 136 378 b 143 393 136 389 139 393 b 154 388 147 393 151 389 z m 843 324 b 835 313 843 317 839 313 b 826 321 829 315 826 318 b 839 332 826 326 833 329 b 843 324 840 329 842 326 z m 842 750 b 838 746 842 746 840 746 b 835 751 836 746 835 747 b 839 760 835 754 838 757 b 842 750 840 757 842 754 z m 860 606 b 863 604 861 606 863 604 b 861 600 863 603 863 601 b 858 601 860 600 858 601 b 860 606 858 603 860 604 z m 850 232 b 851 228 851 231 851 229 b 849 225 851 226 850 225 b 847 228 847 226 847 228 b 850 232 847 229 849 231 z m 176 410 b 175 414 176 411 175 413 b 179 415 175 415 178 415 b 176 410 179 410 179 410 z m 838 531 b 835 528 836 529 835 528 b 826 531 831 528 829 529 b 829 535 828 532 829 535 b 838 531 832 533 835 532 z m 201 326 l 199 326 l 200 331 z m 850 65 l 851 61 l 849 61 z m 606 811 l 608 811 l 607 807 z m 894 200 b 904 251 903 208 903 236 b 900 254 904 251 900 254 b 878 222 885 244 878 233 b 894 200 878 211 883 211 z m 893 331 b 897 363 897 339 896 351 b 894 367 897 364 894 365 b 889 361 893 364 889 363 b 893 331 890 351 892 340 z m 774 179 b 778 196 776 185 778 190 b 774 207 778 199 776 206 b 768 193 768 207 768 197 b 774 179 768 188 769 183 z m 775 274 b 771 279 775 276 776 279 b 772 269 771 276 772 272 b 775 274 772 271 774 272 z m 872 388 b 874 393 874 389 874 392 b 869 396 872 394 871 396 b 867 392 868 396 867 394 b 869 386 867 388 869 386 b 872 388 871 386 871 388 z m 893 400 b 896 404 896 403 896 403 b 893 410 896 406 894 410 b 890 404 892 410 890 408 b 893 400 890 403 892 401 z m 879 138 l 878 140 b 878 138 878 140 878 139 b 878 138 878 138 878 138 b 879 138 878 138 879 138 z m 242 319 b 239 319 240 319 240 319 b 240 317 239 318 239 317 b 240 321 240 317 240 318 b 242 319 240 321 242 319 z m 607 807 l 606 811 l 608 811 z m 888 -74 b 889 -74 888 -74 889 -74 b 888 -71 888 -72 888 -72 b 890 -72 889 -71 889 -71 b 888 -74 889 -72 889 -72 z m 869 872 b 871 874 869 872 871 874 b 867 875 868 874 867 874 b 869 876 867 875 868 875 b 869 872 869 875 869 874 z m 219 411 l 218 413 b 221 411 218 413 221 411 b 219 411 221 411 219 411 z m 875 -25 l 876 -25 b 874 -24 876 -25 874 -24 b 875 -25 874 -24 875 -25 z "},"":{"ha":892,"x_min":0,"x_max":0,"o":"m 613 563 b 274 511 489 546 390 532 b 267 510 271 510 269 510 b 254 518 264 510 254 514 b 256 558 257 529 256 544 b 264 604 256 574 264 589 b 263 631 264 613 263 621 b 264 653 263 638 264 644 b 256 682 264 663 256 674 b 263 843 256 731 263 790 b 251 946 263 881 251 911 b 253 975 251 956 253 965 b 164 1068 253 1032 231 1068 b 146 1049 154 1067 146 1058 b 150 1010 146 1035 150 1022 b 142 875 150 964 142 918 b 132 792 142 847 132 819 b 136 763 132 782 136 772 b 121 617 136 719 121 661 b 122 588 121 607 122 597 b 111 446 122 542 111 493 b 100 381 111 424 100 403 b 97 297 100 353 97 325 b 108 244 97 279 108 263 b 96 196 108 226 96 208 b 97 179 96 190 97 185 b 88 110 97 157 88 133 b 93 83 88 101 93 92 b 85 56 93 74 85 65 b 92 21 85 44 92 33 b 83 -18 92 8 83 -4 b 138 -114 83 -89 92 -92 b 151 -117 142 -115 146 -117 b 192 -99 165 -117 175 -99 b 211 -104 197 -99 204 -104 b 257 -62 228 -104 242 -62 b 269 -68 261 -62 264 -67 b 272 -31 269 -56 272 -43 b 265 24 272 -12 265 6 b 269 68 265 38 268 53 b 250 92 260 74 250 79 b 253 107 251 97 253 101 b 236 129 253 121 236 118 b 250 182 236 146 250 167 b 240 229 250 197 240 213 b 251 356 240 268 251 293 b 274 414 251 379 254 410 b 576 468 371 431 479 465 b 618 385 594 468 615 406 b 617 354 618 375 617 364 b 619 329 617 346 619 338 b 618 313 619 324 618 318 b 624 293 618 306 619 299 b 614 218 621 267 614 242 b 638 142 614 189 638 161 b 625 106 638 129 625 119 b 638 61 625 90 638 76 b 633 46 638 57 636 51 b 635 25 635 39 635 32 b 631 -36 635 4 631 -15 b 658 -129 631 -75 658 -104 b 688 -165 658 -147 660 -165 b 740 -107 729 -165 735 -107 b 769 -122 750 -111 756 -122 b 808 -87 778 -107 788 -92 b 803 33 804 -47 804 -8 b 793 186 801 85 793 135 b 794 219 793 197 793 208 b 783 407 785 282 796 344 b 774 515 783 443 774 479 b 775 535 774 521 775 529 b 765 590 775 551 765 572 b 767 679 765 619 767 650 b 764 750 767 703 764 726 b 768 838 764 779 768 808 b 765 883 768 853 765 868 b 769 976 765 915 769 947 b 650 1110 769 1057 740 1110 b 633 1001 636 1110 633 1049 b 638 908 633 926 638 939 b 626 829 638 883 626 856 b 613 563 626 738 625 647 z m 172 236 b 169 232 171 235 171 233 b 164 242 168 233 164 239 b 169 246 164 244 167 246 b 172 236 172 246 172 239 z m 782 61 b 772 68 778 63 772 63 b 781 75 772 71 776 75 b 788 68 783 75 788 72 b 782 61 788 65 783 63 z m 782 33 b 778 29 781 31 781 29 b 774 35 778 29 774 29 b 779 38 774 38 778 38 b 782 33 781 38 782 36 z m 167 132 l 169 131 l 168 128 z "},"":{"ha":926,"x_min":0,"x_max":0,"o":"m 844 389 b 853 418 844 399 853 408 b 850 458 853 432 850 444 b 854 489 850 468 854 479 b 835 579 854 514 835 549 b 838 618 835 592 838 604 b 835 617 836 617 835 617 b 836 615 835 615 835 615 b 844 635 843 624 844 626 b 826 697 844 653 829 688 b 813 690 822 696 818 692 b 804 696 811 690 804 694 b 813 703 804 699 810 703 b 826 697 818 701 822 699 b 765 846 810 746 803 818 b 747 899 765 846 747 882 b 753 928 747 904 751 919 b 628 1046 667 1014 661 1031 b 511 1072 589 1058 560 1072 b 404 1050 475 1072 439 1065 b 376 1044 394 1046 386 1044 b 335 1050 360 1044 346 1050 b 222 981 268 1050 226 990 b 144 831 196 931 169 881 b 74 529 93 731 74 561 b 69 461 74 506 69 483 b 75 390 69 438 75 414 b 74 372 74 383 74 378 b 83 286 74 339 83 311 b 79 251 83 275 79 263 b 110 132 79 210 110 175 b 197 -18 150 86 164 26 b 319 -136 211 -47 304 -131 b 461 -171 365 -156 400 -171 b 638 -104 521 -171 596 -147 b 731 3 668 -74 719 -29 b 825 244 757 81 825 171 b 843 342 825 278 843 292 b 857 382 843 357 857 369 b 851 390 857 386 854 390 b 844 389 849 390 846 390 z m 390 -10 b 385 11 389 -3 386 4 b 375 10 381 11 378 10 b 364 21 368 10 364 13 b 367 24 364 24 365 24 b 389 -10 379 24 383 4 b 393 -7 390 -8 392 -8 b 389 -6 392 -6 390 -6 b 390 -10 389 -10 389 -8 z m 783 504 b 788 442 783 488 788 463 b 765 288 788 397 778 318 b 560 -19 721 181 676 35 b 524 -29 549 -25 536 -29 b 315 124 414 -29 335 86 b 264 225 296 151 268 225 b 264 224 264 225 264 224 b 269 246 264 232 269 239 b 242 307 269 271 242 292 b 249 339 242 317 249 328 b 238 450 249 375 238 413 b 265 643 238 517 246 556 b 340 849 282 717 315 782 b 463 1017 358 897 450 1015 b 635 926 560 1017 621 932 b 714 811 674 904 701 835 b 756 731 725 789 756 746 b 754 714 756 725 754 719 b 785 525 754 657 785 585 b 783 504 785 518 785 511 z m 335 49 b 331 44 333 47 332 44 b 322 54 325 44 324 50 b 325 58 322 56 324 57 b 335 49 331 58 335 54 z m 844 389 b 846 390 844 389 846 390 b 844 392 846 390 844 392 z m 838 618 b 835 617 836 617 835 617 b 836 615 835 615 835 615 b 836 617 836 615 836 615 b 838 618 836 617 836 618 z "},"":{"ha":1038,"x_min":0,"x_max":0,"o":"m 968 964 b 971 965 968 964 971 965 l 968 964 b 982 996 972 972 982 985 b 831 1042 982 1039 847 1042 b 785 1039 815 1042 800 1039 b 710 1042 760 1039 735 1042 b 678 1038 699 1042 688 1038 b 635 1040 664 1038 649 1040 b 622 1039 631 1040 626 1039 b 146 1006 468 1015 303 1032 b 15 975 113 1000 18 989 b 14 960 14 969 14 964 b 25 929 14 949 17 939 b 167 876 65 879 39 892 b 178 853 175 872 178 861 b 167 760 178 822 167 790 b 168 722 167 747 168 735 b 163 631 168 690 163 656 b 164 607 163 622 163 615 b 156 539 164 585 156 563 b 160 508 156 529 160 518 b 147 393 160 478 147 436 b 150 354 147 381 150 367 b 144 142 150 283 144 213 b 154 76 144 119 154 97 b 150 47 154 67 150 57 b 160 -19 150 26 160 4 b 157 -58 160 -32 158 -46 b 190 -126 157 -76 183 -126 b 211 -124 197 -126 204 -124 b 235 -128 219 -124 226 -128 b 308 -46 301 -128 290 -72 b 324 96 321 -28 322 57 b 335 538 329 243 335 390 b 333 613 335 563 333 588 b 346 872 338 700 342 786 b 388 888 346 889 371 888 b 535 879 436 888 483 879 b 672 896 582 879 626 896 b 729 889 690 896 710 889 b 757 896 739 889 749 896 b 774 865 772 896 774 876 b 753 663 765 796 753 718 b 740 483 753 601 740 544 b 742 438 740 469 742 453 b 731 356 742 410 731 382 b 739 225 731 313 739 268 b 736 142 739 197 736 169 b 719 85 736 118 719 97 b 739 49 719 71 739 64 b 740 11 739 39 740 25 b 725 -42 740 -31 725 -24 b 728 -71 725 -51 728 -61 b 719 -110 728 -85 719 -99 b 775 -161 719 -135 761 -161 b 878 -114 811 -161 878 -158 b 872 82 878 -51 872 10 b 860 207 872 125 860 169 b 875 288 860 235 875 261 b 868 322 875 299 868 311 b 869 339 868 328 869 333 b 863 388 869 353 863 369 b 872 428 863 401 872 418 b 867 447 872 435 867 440 b 878 467 867 456 878 464 b 876 481 878 472 876 476 b 896 719 876 557 886 649 b 900 753 897 731 900 742 b 897 776 900 761 897 768 b 907 828 897 793 907 810 b 922 899 907 851 913 875 b 968 964 942 913 961 939 z "},"":{"ha":846,"x_min":0,"x_max":0,"o":"m 338 285 b 365 307 349 296 351 307 b 375 306 368 307 371 307 b 382 313 376 306 381 310 b 239 457 254 404 239 436 b 263 567 239 510 263 500 b 275 611 263 582 275 597 b 256 732 275 633 256 683 b 257 747 256 738 257 742 b 256 778 257 757 256 768 b 272 835 256 800 272 813 b 275 939 272 869 275 904 b 219 1013 275 1006 257 1013 b 147 846 143 1013 158 882 b 140 783 142 828 142 797 b 142 771 140 779 142 775 b 129 713 142 754 129 732 b 131 669 129 699 131 685 b 103 538 131 629 103 583 b 106 499 103 525 106 511 b 104 451 106 483 104 467 b 110 404 104 436 110 421 b 97 294 110 369 97 336 b 117 149 97 249 99 190 b 119 119 119 140 119 129 b 118 64 119 90 118 83 b 122 8 118 46 122 26 b 119 -40 122 -7 119 -24 b 157 -87 119 -61 136 -87 b 190 -74 165 -87 182 -74 b 218 -96 199 -74 210 -96 b 231 -79 231 -96 231 -83 b 279 -3 231 -36 279 -54 b 279 58 279 15 279 36 b 265 160 279 96 278 136 b 239 290 247 193 257 272 b 239 288 239 289 239 289 b 240 289 240 288 240 288 b 238 289 240 289 240 289 b 269 306 249 299 253 306 b 311 278 297 306 300 306 b 319 274 313 275 315 274 b 338 285 326 274 332 281 z m 228 613 b 224 614 226 613 225 614 b 196 535 201 614 196 542 b 181 468 196 513 189 489 b 175 521 176 490 175 507 b 211 604 175 540 186 604 b 196 633 211 632 196 613 b 224 650 196 651 208 650 b 222 653 224 651 222 653 b 221 650 221 651 221 651 b 224 651 222 650 222 650 b 208 619 213 644 214 631 b 228 613 215 618 222 615 b 229 615 229 614 229 614 b 226 618 229 617 228 618 b 225 614 225 618 225 617 b 228 613 225 614 226 613 z m 124 388 b 128 376 129 388 128 379 b 125 372 128 375 125 374 b 124 376 124 372 124 374 b 124 388 124 379 124 383 z m 140 444 b 131 432 138 439 140 432 b 124 436 128 432 124 433 b 138 454 124 444 135 451 b 140 444 139 451 140 447 z m 139 526 b 138 517 139 522 138 519 b 133 526 133 518 133 522 b 138 531 135 529 136 531 b 139 526 138 531 139 529 z m 126 285 b 128 282 128 283 128 283 b 125 278 128 281 126 278 b 124 282 125 279 124 281 b 126 285 124 283 126 283 z m 604 421 b 594 429 600 424 594 425 b 606 442 594 436 601 442 b 617 432 613 442 615 436 l 617 433 b 646 465 635 440 646 450 b 642 494 646 474 642 483 b 657 535 642 508 644 535 b 681 472 672 526 669 472 b 694 476 685 472 689 474 b 690 478 693 476 692 478 b 692 481 690 479 692 481 b 693 475 692 481 693 478 b 722 578 707 517 697 550 b 747 626 744 578 740 611 b 763 665 751 639 763 653 b 754 686 763 674 754 679 b 779 771 754 733 779 751 b 790 893 779 786 790 856 b 778 929 790 906 778 915 b 779 938 778 932 778 935 b 711 1026 779 961 725 1026 b 700 1025 707 1026 703 1025 b 668 1054 683 1025 688 1054 b 644 1042 661 1054 651 1046 b 626 1053 638 1046 632 1053 b 603 1042 619 1053 613 1042 b 583 1046 597 1042 590 1046 b 482 979 546 1046 515 983 b 444 940 461 976 460 950 b 392 868 415 921 419 885 b 332 792 369 856 332 811 b 361 779 332 781 350 779 b 422 825 385 779 397 815 b 508 928 451 836 468 904 b 589 963 529 940 585 963 b 649 828 626 963 649 876 b 640 719 649 792 640 757 b 639 708 640 715 640 711 b 575 517 621 643 610 576 b 572 496 572 511 572 503 b 575 492 572 494 574 493 b 588 513 582 492 583 503 b 596 511 590 513 593 511 b 600 514 597 513 599 514 b 588 513 596 514 592 513 b 603 485 589 503 594 485 b 614 488 607 485 611 488 b 624 479 618 488 624 485 b 571 429 624 472 581 446 b 476 364 563 414 476 378 b 492 346 476 358 485 346 b 590 404 494 346 549 404 b 604 421 599 404 604 410 z m 686 526 b 690 525 688 526 690 525 b 689 521 690 524 689 521 b 685 522 686 521 685 521 b 686 526 685 524 685 525 z m 676 590 l 678 593 z m 375 272 b 388 260 376 265 382 260 b 404 274 396 260 404 269 b 392 286 404 279 403 286 b 375 272 382 286 379 282 z m 483 314 b 479 319 482 317 481 318 b 461 303 469 319 464 311 b 469 300 461 301 465 300 b 483 314 478 300 479 308 z m 336 283 b 338 285 336 283 338 285 b 349 275 340 282 346 275 b 357 282 351 275 357 279 b 350 289 357 282 354 289 b 336 283 346 288 340 285 z m 383 342 b 388 349 385 343 388 343 b 381 344 382 349 381 347 b 383 342 381 344 382 343 z m 342 750 b 336 754 342 753 339 754 b 333 749 333 754 333 751 b 336 744 333 746 333 744 b 342 750 340 744 342 746 z m 281 654 b 278 651 279 653 278 651 b 279 647 278 650 279 649 b 282 650 281 649 282 649 b 281 654 282 651 281 653 z m 403 315 b 404 321 404 317 404 319 b 401 324 403 322 401 324 b 397 319 400 324 399 322 b 403 315 397 315 400 315 z m 617 433 b 606 419 611 429 607 426 l 604 421 b 617 433 611 422 614 428 z m 599 375 b 596 376 597 375 596 376 b 594 372 593 374 594 372 b 599 375 596 372 597 374 z m 599 374 b 597 376 599 374 597 375 b 594 375 596 375 594 375 b 596 374 594 374 596 374 b 599 375 596 374 597 375 b 599 374 599 375 599 374 z m 425 282 l 428 283 z m 425 283 b 425 282 425 282 425 282 b 425 283 425 282 425 283 z "},"":{"ha":619,"x_min":0,"x_max":0,"o":"m 200 -68 b 222 -74 207 -69 215 -74 b 238 -72 228 -74 233 -72 b 292 -89 257 -72 275 -81 b 329 -75 304 -81 315 -75 b 363 -60 343 -75 347 -60 b 436 10 401 -57 436 -3 b 433 25 436 15 433 21 b 436 28 433 28 435 28 b 447 25 439 28 443 25 b 525 136 490 25 500 97 b 557 228 535 151 529 179 b 572 194 561 217 565 194 b 582 217 581 194 582 211 b 569 286 582 232 575 286 b 522 224 536 269 547 224 b 469 147 504 224 497 169 b 439 115 460 139 439 129 b 440 100 439 110 440 104 b 394 69 440 83 408 88 b 325 31 381 51 339 31 b 232 132 261 31 232 96 b 215 251 232 171 215 211 b 217 267 215 257 217 261 b 210 289 217 274 210 281 b 214 317 210 299 214 307 b 211 354 214 329 211 343 b 238 553 211 444 238 481 b 236 563 238 556 236 560 b 269 676 236 604 269 653 b 268 690 269 681 268 686 b 349 814 268 694 333 769 b 347 819 347 815 347 818 b 397 900 347 844 381 889 b 458 954 413 910 429 954 b 500 794 488 954 454 794 b 536 861 515 794 518 843 b 539 876 539 863 539 872 b 571 1008 539 911 571 967 b 475 1064 571 1060 533 1032 b 379 1085 449 1078 408 1085 b 297 981 342 1085 314 1018 b 247 913 297 949 254 942 b 208 836 235 882 208 871 b 154 729 208 769 154 765 b 138 694 154 717 138 708 b 144 650 138 682 144 667 b 125 586 144 625 125 610 b 126 565 125 579 126 572 b 111 488 126 539 111 522 b 113 463 111 479 111 471 b 86 399 113 435 86 426 b 88 368 86 389 88 379 b 85 333 88 357 85 344 b 92 283 85 317 92 300 b 83 260 92 274 85 268 b 92 231 86 251 92 239 b 83 208 92 224 83 214 b 103 165 83 199 103 193 b 97 136 103 156 97 146 b 119 39 97 104 119 75 b 190 -40 119 17 169 -26 b 200 -68 193 -49 197 -58 z m 214 518 b 217 514 215 517 217 515 b 214 511 217 513 215 513 b 211 514 213 513 211 514 b 214 518 213 515 214 517 z m 172 326 b 169 325 171 326 169 325 b 168 331 168 325 168 329 b 171 335 168 332 169 333 b 174 332 171 333 174 332 b 172 326 174 331 174 328 z m 460 54 b 457 49 460 49 457 49 b 454 54 454 49 454 51 b 457 58 454 56 457 57 b 460 54 458 57 458 56 z m 718 472 b 758 504 743 479 758 483 b 740 526 758 515 753 526 b 660 425 688 513 697 458 b 658 421 658 424 660 422 b 675 407 668 410 668 407 b 718 472 703 407 718 439 z m 649 315 b 661 358 663 324 661 343 b 657 372 661 365 661 372 b 639 326 644 367 642 340 b 649 315 639 321 643 319 z m 594 308 b 607 296 599 304 603 300 l 606 297 b 618 326 614 306 618 315 b 611 346 618 332 618 346 b 594 317 596 346 594 317 b 594 308 594 314 594 311 z m 606 297 b 593 308 603 300 599 304 l 594 308 b 586 293 589 304 586 299 b 600 260 586 286 593 265 b 606 297 607 264 606 286 z "},"":{"ha":807,"x_min":0,"x_max":0,"o":"m 639 900 b 642 897 640 899 642 899 b 639 900 642 899 640 900 b 653 897 643 900 649 897 b 675 906 660 897 667 906 b 783 921 711 907 744 921 b 876 975 811 921 876 939 b 760 1026 876 1028 786 1026 b 497 988 671 1026 585 996 b 458 981 486 988 471 981 b 386 996 435 981 414 996 b 338 981 369 996 353 992 b 340 963 339 975 340 968 b 81 888 340 938 117 896 b 50 883 69 885 60 883 b 1 894 33 883 18 894 b -28 867 -12 894 -28 879 b 29 794 -28 826 28 794 b 119 764 57 772 88 764 b 281 804 168 764 229 782 b 332 813 293 807 314 813 b 347 765 340 800 347 775 b 340 733 347 753 340 743 b 350 686 340 717 350 701 b 335 636 350 669 335 656 b 336 617 335 629 336 624 b 328 510 336 582 328 543 b 343 450 328 488 343 469 b 328 399 343 443 328 418 b 332 324 328 372 332 344 b 326 275 332 307 326 290 b 369 26 326 189 346 108 b 371 14 371 22 371 18 b 369 -6 371 7 369 1 b 411 -56 369 -21 392 -43 b 479 0 432 -35 479 -56 b 456 53 479 22 474 38 b 457 61 457 56 457 58 b 451 86 457 69 451 78 b 454 121 451 99 454 110 b 450 183 454 142 450 163 b 475 328 463 242 475 297 b 474 349 474 335 474 342 b 478 424 474 372 478 397 b 472 467 478 438 472 453 b 481 618 472 515 474 569 b 478 650 479 629 478 639 b 513 858 478 696 492 858 b 629 901 551 872 604 879 b 631 901 629 901 629 901 b 639 900 632 901 636 900 z "},"":{"ha":778,"x_min":0,"x_max":0,"o":"m 736 1038 b 665 1082 721 1054 686 1082 b 599 969 640 1082 601 976 b 558 844 585 931 563 888 b 551 824 558 838 554 831 b 432 558 513 751 456 558 b 350 692 413 558 350 692 b 324 736 350 699 329 725 b 281 806 313 760 303 786 b 114 1035 224 931 185 1035 b 33 1010 93 1035 33 1026 b 35 1007 33 1008 35 1007 b 124 814 64 944 103 881 b 193 685 156 782 157 717 b 217 636 196 667 213 654 b 268 515 225 592 251 556 b 350 389 282 464 350 422 b 294 261 350 358 324 296 b 221 158 267 228 251 190 b 161 89 200 136 179 113 b 50 36 108 74 50 42 b 51 36 50 36 50 36 b 40 38 49 36 44 38 b -21 15 17 38 -21 32 b -17 -4 -19 8 -17 1 b -28 -35 -17 -14 -28 -25 b -17 -65 -28 -46 -26 -65 b 14 -42 -6 -65 3 -42 b 107 -125 49 -42 31 -125 b 211 -61 139 -125 182 -81 b 233 -67 222 -65 228 -67 b 269 -25 242 -67 269 -42 b 268 -17 269 -22 268 -18 b 271 -14 268 -15 268 -15 b 272 -17 271 -14 272 -15 b 269 -32 272 -22 269 -26 b 379 90 308 -3 368 90 b 392 86 383 90 388 89 b 397 93 392 86 397 92 b 392 115 396 100 393 107 b 411 146 397 125 411 133 b 410 156 411 149 410 153 b 431 192 410 160 425 185 b 432 157 431 178 432 167 b 431 139 432 150 431 144 b 435 126 431 135 431 131 b 450 211 438 129 450 207 b 449 222 450 214 449 218 b 467 242 449 233 458 242 b 479 238 472 242 476 238 b 503 321 486 238 499 319 b 518 296 508 313 513 304 b 528 307 522 299 528 308 l 529 306 b 528 307 529 306 528 307 b 531 310 528 307 531 310 l 529 306 b 519 293 524 306 519 297 b 518 296 519 293 518 294 b 506 269 510 288 506 279 b 517 257 506 264 507 257 b 572 354 539 257 550 328 b 574 360 572 356 574 357 b 569 374 574 365 569 369 b 601 425 569 392 599 404 b 626 508 606 454 626 478 b 622 535 626 518 622 528 b 653 611 622 554 649 582 b 696 778 653 643 696 728 b 750 1003 696 861 750 929 b 736 1038 750 1015 746 1028 z "},"":{"ha":1183,"x_min":0,"x_max":0,"o":"m 625 315 b 644 290 629 310 644 296 b 636 281 644 286 640 282 b 625 300 628 281 625 290 b 626 315 625 306 626 311 b 611 249 615 294 611 268 b 628 221 611 236 618 228 b 626 228 626 222 626 225 b 629 233 626 229 626 232 b 632 231 629 233 632 232 b 611 194 624 214 613 211 b 624 156 611 178 624 175 b 601 103 624 138 601 143 b 603 72 601 94 601 83 l 601 72 b 624 99 619 72 614 99 b 640 117 638 99 640 108 b 639 140 640 124 639 132 b 651 257 639 176 639 238 b 657 274 654 261 657 267 b 638 333 657 290 638 325 b 654 383 638 367 654 328 b 704 465 654 424 664 444 b 678 497 681 465 678 476 b 751 556 678 546 751 514 b 747 560 750 558 749 560 b 718 549 738 560 726 549 b 672 635 679 549 672 597 b 724 800 672 731 710 742 b 781 867 726 813 771 858 b 844 913 806 882 828 913 b 911 950 864 913 893 950 b 922 949 915 950 918 949 b 960 951 935 949 947 951 b 1026 839 1022 951 1026 881 b 964 726 1026 793 994 761 b 950 674 951 713 953 696 b 985 654 964 669 985 669 b 946 613 979 626 956 632 b 890 571 933 586 890 600 b 893 568 890 569 892 568 b 954 590 915 568 938 574 l 961 594 b 958 588 961 590 960 588 b 953 592 957 588 954 590 b 956 581 956 588 956 585 b 917 533 956 565 922 551 b 933 532 922 533 928 532 b 1007 568 996 532 988 568 b 1039 583 1017 568 1039 572 b 1036 597 1039 588 1036 593 b 1094 683 1036 615 1082 649 b 1135 803 1110 726 1135 747 b 1142 846 1135 818 1142 832 b 1133 869 1142 856 1133 861 b 1136 894 1133 878 1136 886 b 1114 910 1129 900 1121 904 b 1067 1013 1107 958 1111 974 b 958 1051 1040 1035 992 1051 b 908 1043 942 1051 925 1043 b 890 1047 903 1043 896 1047 b 832 1018 868 1047 850 1018 b 703 949 801 1018 749 949 b 692 965 697 949 692 958 b 693 982 692 971 693 976 b 629 1103 693 1050 674 1103 b 579 1092 615 1103 599 1092 b 560 1094 574 1092 567 1094 b 533 1013 532 1094 533 1036 b 542 968 533 997 542 982 b 533 946 542 967 540 946 b 461 992 506 960 488 981 b 296 1038 413 1011 347 1038 b 178 972 257 1038 178 1014 b 118 921 178 965 133 921 b 122 900 118 917 122 907 b 86 849 122 882 86 863 b 76 813 86 835 76 824 b 79 801 76 810 78 806 b 75 801 78 801 76 801 b 78 803 76 801 76 803 b 69 788 74 799 69 793 b 81 758 69 781 81 769 b 71 704 81 743 71 722 b 108 610 71 674 101 615 b 182 533 139 582 143 543 b 247 514 207 526 228 514 b 381 563 296 514 350 560 b 460 656 394 563 453 632 b 481 688 464 667 471 681 b 529 738 503 704 490 729 b 549 692 551 714 549 717 b 521 604 549 660 540 629 b 554 513 536 571 554 518 b 549 438 554 488 549 461 b 550 407 549 428 549 417 b 538 349 550 386 538 368 b 549 332 538 340 539 332 b 563 347 556 332 563 342 b 558 411 563 368 558 390 b 574 458 558 431 560 449 b 594 444 576 458 588 449 b 594 447 594 446 594 447 b 592 446 593 446 592 446 b 593 444 592 444 593 444 b 596 446 593 444 594 446 b 583 422 585 442 583 426 b 600 410 583 415 589 413 l 599 411 b 613 417 600 411 608 417 b 625 379 624 417 625 392 b 619 340 625 367 619 353 b 625 315 619 331 622 324 z m 521 892 b 426 751 507 840 463 796 b 239 604 354 643 256 604 b 171 756 181 604 171 704 b 200 853 171 786 178 831 b 371 964 260 914 224 951 b 521 892 421 964 478 911 z m 635 619 b 647 649 636 629 633 649 b 653 615 653 649 653 626 b 643 594 653 608 651 594 b 635 604 635 594 635 601 b 638 619 635 610 636 614 b 635 619 636 619 636 619 z m 615 642 b 622 636 619 642 622 640 b 617 622 622 631 622 625 b 606 628 613 622 606 622 b 615 642 606 629 613 638 z m 599 564 b 601 561 600 564 601 561 b 597 553 600 558 599 556 b 594 561 596 556 594 558 b 599 564 594 563 597 564 z m 642 454 b 644 450 643 453 644 451 b 642 449 643 450 643 449 b 639 451 640 449 639 450 b 642 454 640 451 640 453 z m 529 160 b 507 107 522 133 507 131 b 521 -71 507 50 521 -18 b 511 -108 521 -83 517 -96 l 514 -107 b 507 -118 510 -112 507 -111 b 567 -217 510 -175 549 -217 b 621 -150 594 -217 594 -160 b 663 -118 635 -150 663 -121 b 642 -49 650 -97 651 -72 b 625 -72 636 -58 633 -72 b 585 -29 615 -72 592 -29 b 567 -58 579 -29 576 -58 b 542 -36 561 -58 553 -44 b 554 -14 547 -25 554 -24 b 535 50 554 -4 536 26 b 536 72 535 58 536 65 b 529 160 536 101 535 131 z m 896 624 b 911 665 901 642 906 651 b 903 671 911 671 906 671 b 869 650 894 671 878 656 b 896 624 876 642 886 633 z m 565 292 b 549 264 558 281 550 269 b 560 246 549 258 549 246 b 569 257 565 246 569 251 b 565 292 568 268 567 279 z m 603 40 b 593 31 600 39 593 36 b 606 0 597 17 597 0 b 617 24 613 0 617 19 b 603 40 617 31 613 36 z m 1126 943 b 1124 940 1125 942 1124 940 b 1125 935 1124 939 1125 936 b 1128 939 1126 936 1128 938 b 1126 943 1128 940 1126 942 z m 564 225 b 554 218 560 224 554 222 b 561 213 554 215 557 213 b 568 219 564 213 568 217 b 564 225 568 221 567 224 z m 519 253 b 518 249 519 251 518 250 b 522 246 518 247 521 247 b 524 251 522 247 524 250 b 519 253 524 251 521 251 z m 601 72 b 603 71 601 72 601 71 b 601 72 603 72 603 72 z m 599 411 b 601 410 599 410 600 410 b 599 411 601 411 600 411 z m 531 160 l 525 160 b 531 160 526 160 528 160 z m 79 801 b 78 803 79 801 78 803 b 75 801 76 803 76 801 b 79 801 76 801 78 801 z m 511 -108 b 513 -110 511 -108 513 -110 b 513 -108 513 -110 513 -110 b 511 -108 511 -108 511 -108 z "},"":{"ha":893,"x_min":0,"x_max":0,"o":"m 360 350 b 531 136 415 274 460 176 b 576 90 543 126 563 104 b 763 13 607 60 696 19 b 804 -7 779 10 792 -7 b 860 40 822 -7 860 19 b 858 47 860 43 858 44 b 863 90 861 61 863 76 b 858 146 863 110 861 128 b 828 167 849 153 833 154 b 792 189 819 182 800 176 b 761 213 783 200 774 207 b 667 282 717 225 697 271 b 657 261 665 276 661 261 b 619 306 658 261 619 307 b 579 386 617 340 579 353 b 554 457 579 408 556 422 b 503 586 549 500 506 526 b 542 649 503 597 542 643 b 540 649 540 649 540 649 b 618 711 594 682 599 706 b 629 725 625 714 629 719 b 628 735 629 728 628 732 b 699 801 628 764 692 771 b 811 900 707 840 811 881 b 921 1032 822 931 921 979 b 863 1097 921 1063 894 1097 b 747 994 835 1097 771 1011 b 707 958 732 983 717 972 b 558 822 667 904 558 835 b 465 729 558 821 485 729 b 425 771 453 729 425 754 b 429 790 425 776 429 785 b 415 817 429 799 419 817 b 404 811 411 817 407 811 b 393 860 397 811 397 846 b 350 922 382 883 357 904 b 343 960 346 935 346 947 b 243 1068 329 1021 257 1056 b 225 1067 236 1068 229 1067 b 213 1068 221 1067 217 1068 b 88 978 178 1068 88 1022 b 140 872 88 957 129 915 b 176 793 147 843 172 817 b 221 676 192 754 206 715 b 260 574 235 642 254 610 b 281 506 260 561 281 529 b 194 347 281 456 211 357 b 150 279 171 333 161 303 b 115 231 140 261 125 247 b 50 99 99 201 63 106 b 28 32 32 82 28 56 b 53 -10 28 10 40 -10 b 90 8 65 -10 65 8 b 106 0 96 8 101 0 b 125 8 111 0 119 8 b 150 -22 136 8 133 -22 b 192 74 189 -22 189 46 b 288 278 226 113 288 214 b 318 319 299 292 308 306 b 360 350 338 321 350 332 z m 306 429 b 288 419 303 421 294 422 b 282 421 286 419 283 421 b 278 417 279 421 278 419 b 281 414 278 415 281 414 b 306 432 290 424 297 425 b 303 429 306 431 304 429 b 301 431 303 429 301 431 b 303 432 301 432 303 432 b 306 429 304 432 304 432 z m 286 296 b 268 314 279 301 274 308 b 288 363 272 336 269 363 b 303 357 292 363 303 361 b 276 250 299 322 283 293 b 161 104 249 226 201 119 b 154 110 158 104 154 107 b 204 186 163 147 194 154 b 225 247 211 207 225 224 b 275 299 225 285 253 292 b 286 296 278 299 282 296 z m 506 508 b 497 504 501 507 499 504 b 488 515 490 504 488 510 b 490 525 488 518 489 522 b 506 508 503 525 501 515 z m 164 4 b 157 0 161 3 158 0 b 151 3 154 0 151 1 b 161 8 151 8 157 8 b 164 4 163 8 163 6 z m 240 357 b 236 350 240 353 239 350 b 229 358 232 350 231 356 b 236 361 229 360 235 361 b 240 357 239 361 240 360 z m 481 692 b 483 693 482 693 483 693 b 489 690 488 693 489 690 b 485 686 489 689 486 686 b 481 692 483 686 481 689 z m 200 282 b 196 279 199 281 197 279 b 192 282 193 279 192 281 b 194 286 192 283 193 285 b 200 282 194 286 200 285 z m 765 186 l 765 182 l 761 185 z m 228 331 b 231 326 229 329 231 328 b 228 324 229 325 228 324 b 225 328 226 324 225 325 b 228 331 225 328 226 329 z m 639 306 b 638 310 639 307 639 308 b 635 308 638 310 635 308 b 636 304 635 307 635 306 b 639 306 636 304 638 306 z "},"":{"ha":1075,"x_min":0,"x_max":0,"o":"m 651 508 b 656 507 653 508 654 508 b 653 506 654 506 654 506 b 653 510 653 506 653 507 b 538 346 606 472 539 364 b 497 303 535 329 510 317 b 331 153 458 258 375 153 b 274 213 314 153 274 185 b 276 233 274 219 276 226 b 256 293 276 253 256 269 b 246 399 251 332 246 369 b 231 540 246 442 231 476 b 221 635 231 574 221 603 b 233 788 221 685 233 732 b 229 878 233 818 229 847 b 231 903 229 886 229 894 b 225 944 231 918 225 931 b 232 1011 225 965 232 988 b 161 1051 228 1049 204 1051 b 139 1019 138 1051 139 1040 b 92 663 139 883 92 781 b 96 619 92 649 96 633 b 83 428 96 554 83 485 b 97 386 83 414 97 401 b 96 365 97 379 96 372 b 100 333 96 354 100 343 b 94 315 100 326 94 321 b 125 208 94 281 125 235 b 124 189 125 203 124 196 b 169 107 124 178 140 118 b 189 68 178 104 182 81 b 265 15 206 31 228 15 b 439 99 329 15 439 31 b 447 104 439 100 442 104 b 458 101 451 104 454 101 b 515 178 478 101 508 157 b 631 385 539 251 631 300 b 628 406 631 392 628 399 b 647 458 628 429 633 458 b 649 456 649 457 649 457 b 646 426 649 446 646 436 b 658 403 646 415 651 403 b 667 429 664 403 663 419 b 686 474 672 444 681 458 b 710 531 690 488 689 531 b 726 549 721 531 725 539 b 725 568 726 556 725 561 b 767 628 725 594 746 628 b 774 626 769 628 771 626 b 788 628 778 626 783 628 b 790 618 789 624 790 621 b 788 599 790 611 788 604 b 821 582 788 589 796 585 b 781 426 775 533 806 458 b 774 381 771 415 774 396 b 783 326 774 358 774 331 b 801 340 792 326 792 331 b 811 294 806 324 811 307 b 786 253 811 278 786 268 b 799 235 786 244 792 240 b 769 158 792 208 769 190 b 683 71 769 146 704 106 b 571 -93 638 38 571 -51 b 650 -171 571 -153 618 -171 b 671 -147 664 -171 661 -147 b 701 -178 689 -147 688 -172 b 719 -167 708 -171 715 -167 b 753 -197 732 -167 718 -197 b 775 -190 760 -197 769 -190 b 785 -192 778 -192 781 -192 b 831 -162 808 -192 817 -167 b 871 -128 857 -160 847 -132 b 888 -99 889 -125 888 -124 b 906 -62 888 -86 903 -76 b 915 0 910 -43 915 -21 b 911 29 915 10 911 19 b 918 58 911 39 918 47 b 915 138 918 85 915 111 b 1033 261 915 199 1033 231 b 1017 272 1033 267 1031 272 b 936 256 990 272 957 256 b 921 261 931 256 925 257 b 925 288 922 269 925 279 b 919 308 925 294 919 301 b 925 347 919 321 925 333 b 922 393 925 363 922 378 b 926 453 922 414 926 433 b 922 481 926 463 922 472 b 938 556 922 507 938 536 b 929 601 938 571 929 586 b 932 624 929 608 932 615 b 928 642 932 628 928 635 b 950 719 928 658 944 694 b 940 754 950 736 940 744 b 960 849 940 779 960 808 b 914 975 960 890 953 975 b 879 969 901 974 890 969 b 865 972 874 969 869 971 b 797 907 853 968 797 935 b 799 819 797 878 799 849 b 772 743 799 788 775 772 b 751 713 772 722 756 726 b 708 603 735 657 711 614 b 682 571 706 583 710 571 b 651 508 661 571 658 531 z m 199 565 b 194 544 197 558 196 551 b 213 525 204 543 213 538 b 197 468 213 508 203 468 b 185 479 189 468 185 472 b 207 492 185 492 200 489 b 194 546 193 507 206 529 b 207 581 199 560 201 571 b 210 572 208 578 210 575 b 199 565 210 564 201 565 z m 604 394 b 601 390 603 393 601 392 b 606 386 601 389 603 388 b 607 390 606 388 607 389 b 604 394 607 392 604 393 b 613 404 606 396 613 401 b 615 400 614 404 615 403 b 604 394 615 396 610 396 z m 764 -12 b 764 -19 764 -15 764 -18 b 708 -106 764 -33 717 -106 b 692 -64 693 -106 692 -76 b 749 24 692 -35 724 24 b 764 -12 761 24 761 -1 z m 188 376 b 176 351 185 365 189 358 b 174 354 176 351 174 354 b 183 397 175 365 175 397 b 188 376 188 397 188 383 z m 886 529 b 894 557 886 543 885 547 b 899 543 897 551 899 550 b 886 529 899 538 896 531 z m 851 296 b 836 274 849 286 847 279 b 832 282 835 276 832 281 b 844 306 836 292 838 299 b 851 296 846 303 849 300 z m 871 418 b 865 411 869 414 869 411 b 858 414 864 411 860 413 b 867 424 860 418 863 424 b 871 418 869 424 871 422 z m 832 -93 b 829 -96 831 -93 829 -96 b 825 -94 828 -96 826 -96 b 826 -92 825 -94 826 -92 b 832 -93 828 -92 829 -92 z m 840 350 b 835 343 839 347 838 344 b 829 349 833 344 832 346 b 832 351 829 349 832 351 b 840 350 835 351 838 350 z m 926 689 b 919 685 924 688 921 685 b 911 690 917 685 914 689 b 919 694 914 692 917 694 b 926 689 922 694 924 692 z m 872 449 b 868 446 871 447 869 446 b 863 450 865 446 863 447 b 868 457 863 453 867 456 b 872 449 869 454 871 451 z m 204 425 b 208 421 208 425 208 422 b 206 418 207 419 206 418 b 203 422 204 419 203 421 b 204 425 203 422 204 424 z m 779 -11 b 776 -8 778 -10 776 -10 b 778 -6 776 -7 778 -6 b 781 -7 781 -6 781 -6 b 779 -11 781 -8 781 -10 z m 871 -69 b 867 -72 869 -69 867 -72 b 863 -67 864 -71 863 -69 b 867 -61 863 -65 865 -61 b 871 -69 868 -64 869 -67 z m 226 211 l 226 215 z m 835 211 l 833 215 z "},"":{"ha":875,"x_min":0,"x_max":0,"o":"m 743 732 b 742 738 743 735 742 736 b 763 811 742 735 750 794 b 760 829 763 817 760 824 b 765 863 760 840 765 851 b 764 879 764 868 764 874 b 778 976 764 914 778 944 b 660 1069 778 1044 771 1057 b 596 1036 638 1056 601 1063 b 553 899 586 993 576 907 b 390 729 513 885 444 779 b 258 643 365 693 299 643 b 199 749 211 643 217 713 b 156 1067 182 797 219 1050 b 83 996 114 1060 83 1065 b 103 847 83 951 83 860 b 103 835 103 843 103 839 b 103 847 103 839 103 843 b 86 810 92 838 86 826 b 103 688 86 772 86 701 b 140 606 124 669 115 633 b 210 567 169 571 193 579 b 251 554 215 561 254 554 b 278 567 261 554 269 567 b 288 565 281 567 285 565 b 446 668 342 565 428 618 b 467 693 450 679 458 688 b 563 829 525 740 522 829 b 590 793 588 829 590 811 b 588 719 590 768 588 743 b 589 703 588 714 589 708 b 578 665 589 690 582 676 b 590 647 581 660 590 657 b 589 635 590 644 589 639 b 601 590 589 622 599 604 b 574 543 593 565 574 553 b 603 519 574 526 603 531 b 575 451 603 501 575 472 b 592 407 575 436 592 424 b 571 193 583 336 582 264 b 569 189 571 192 569 190 b 590 169 569 175 590 181 b 585 106 590 151 585 133 b 593 57 585 89 593 74 b 585 32 593 47 585 40 b 593 8 585 25 593 18 b 578 -35 593 -4 586 -35 b 561 -28 572 -35 567 -28 b 540 -49 551 -28 540 -33 b 561 -89 540 -67 561 -71 b 556 -118 561 -99 556 -107 b 600 -169 556 -144 576 -153 b 656 -108 615 -156 643 -108 b 683 -133 665 -108 676 -133 b 733 -53 718 -133 733 -76 b 731 -29 733 -46 731 -37 b 744 -14 731 -24 738 -18 l 743 -15 b 725 18 732 -6 725 4 b 731 44 725 26 731 36 b 719 85 731 57 719 76 b 738 118 719 97 738 103 b 736 133 738 122 736 128 b 744 154 736 143 744 149 b 736 175 744 161 738 168 b 746 194 739 181 746 188 b 733 215 746 203 738 207 b 736 213 733 214 735 214 b 735 233 735 213 735 222 b 735 264 735 244 735 257 b 719 304 735 283 719 292 b 733 343 719 317 733 325 b 732 351 732 346 732 349 b 747 392 732 367 747 376 b 729 468 747 417 729 444 b 739 506 729 481 739 493 b 719 526 739 513 726 518 l 722 522 b 719 525 722 522 719 525 b 754 650 746 543 754 638 b 743 732 754 676 750 706 z m 704 -96 b 700 -101 703 -97 701 -100 b 708 -89 700 -100 706 -94 b 711 -94 710 -92 711 -93 b 704 -96 711 -97 703 -96 z m 699 88 l 696 85 b 693 88 694 85 693 86 b 696 90 693 89 694 90 b 699 89 696 90 697 90 b 694 88 696 86 694 88 b 696 90 694 88 696 89 b 699 88 697 90 697 89 z m 690 143 b 678 172 686 153 681 163 b 693 193 678 179 679 193 b 699 179 696 190 699 183 b 689 143 696 167 692 156 z m 688 476 b 693 449 692 465 693 456 b 681 406 693 432 681 419 b 694 360 681 393 694 376 b 697 267 694 326 697 297 b 685 239 697 260 694 239 b 656 321 674 239 671 313 b 650 358 650 324 650 347 b 688 476 650 393 665 429 z m 657 283 b 663 233 658 263 663 249 b 644 75 657 150 650 126 b 646 64 644 71 646 67 b 642 54 646 60 644 57 b 639 61 640 57 639 58 b 642 74 639 65 642 69 b 635 117 639 85 642 108 b 626 140 629 125 626 133 b 644 182 626 156 644 172 b 617 219 644 194 617 201 b 657 283 617 233 643 250 z m 683 563 b 674 543 683 553 679 543 b 663 561 665 543 663 554 b 676 585 663 565 665 585 b 683 563 682 585 683 568 z m 651 14 b 661 10 654 13 658 11 b 650 3 661 4 653 3 b 646 7 649 3 647 6 b 651 14 646 11 647 14 z m 611 563 b 617 557 613 560 615 558 b 610 553 614 556 613 554 b 606 556 608 553 607 554 b 611 563 606 560 607 561 z m 563 79 b 557 117 563 125 563 117 b 546 92 550 117 546 97 b 557 68 546 88 550 68 b 563 81 563 68 561 81 b 563 79 563 81 563 81 z m 565 11 b 569 29 571 17 569 22 b 565 31 569 29 567 31 b 563 21 563 29 563 25 b 565 11 563 17 563 13 z m 579 579 b 578 583 579 582 579 583 b 575 581 578 583 576 582 b 576 576 575 579 576 578 b 579 579 578 578 579 578 z m 743 -15 b 744 -14 743 -15 744 -14 b 743 -15 743 -14 743 -15 b 743 -15 743 -15 743 -15 z m 744 733 b 743 732 744 733 743 732 b 746 731 744 732 744 731 b 744 733 746 732 744 733 z m 103 847 b 103 835 103 843 103 839 b 103 847 103 839 103 843 z m 733 215 b 736 213 733 214 735 214 b 733 215 735 213 733 215 z m 722 522 b 719 525 722 522 719 525 b 721 526 719 526 721 526 z m 710 793 l 711 790 z "},"":{"ha":1531,"x_min":0,"x_max":0,"o":"m 826 779 b 811 778 821 779 817 778 b 806 782 807 778 806 781 b 810 785 806 783 807 785 b 828 779 814 785 821 781 b 833 906 828 822 833 864 b 808 1000 833 933 818 1000 b 793 1001 804 1000 799 1001 b 781 1000 789 1001 785 1000 b 753 1013 768 1000 765 1013 b 685 969 717 1013 706 972 b 665 925 664 967 665 944 b 649 879 665 906 649 893 b 650 864 649 874 650 869 b 631 785 650 843 631 814 b 632 768 631 779 632 774 b 586 704 632 747 596 732 b 469 396 536 564 517 528 b 440 328 458 374 440 346 b 443 306 440 321 442 313 b 347 157 404 286 389 233 b 308 106 338 139 322 106 b 250 197 264 106 286 185 b 243 178 246 193 244 185 b 240 192 242 182 240 188 b 254 228 240 204 254 217 b 228 276 254 254 228 274 b 225 321 228 292 225 307 b 238 365 225 336 238 351 b 214 407 238 378 214 382 b 188 463 214 431 188 449 b 203 476 188 471 194 472 b 183 507 203 482 183 492 b 214 586 183 539 214 544 b 203 675 214 615 217 650 l 204 674 b 168 626 178 674 190 626 b 154 640 160 626 154 633 b 221 740 154 696 221 731 b 197 786 221 753 197 775 b 213 810 197 796 213 799 b 203 847 213 824 203 835 b 213 878 203 857 213 865 b 213 915 213 890 213 904 b 228 993 213 944 228 967 b 169 1042 228 1021 204 1042 b 106 828 113 1042 142 1040 b 104 808 104 821 104 814 b 110 778 104 799 110 788 b 99 749 110 768 99 763 b 97 713 97 736 97 725 b 106 644 97 690 106 667 b 100 629 106 639 104 633 b 83 563 85 611 83 582 b 103 524 83 540 103 532 b 90 499 103 517 90 507 b 97 482 90 493 93 488 l 94 486 b 97 483 94 486 97 483 b 83 435 88 474 83 449 b 110 422 83 422 110 433 b 94 390 110 415 94 397 b 128 361 94 375 128 383 b 111 315 128 343 117 331 b 119 240 114 290 118 265 b 111 228 119 236 114 232 b 140 188 133 222 140 210 b 138 161 139 179 138 169 b 153 61 138 138 146 93 b 188 25 169 56 185 46 b 251 -18 188 1 238 -18 b 368 28 299 -18 328 18 b 419 92 389 32 421 89 b 429 90 422 92 426 90 b 451 156 433 90 444 143 b 453 163 453 157 453 160 b 449 183 453 171 449 178 b 496 263 449 204 492 239 b 508 332 499 288 492 332 b 519 324 510 332 514 326 b 524 339 522 329 524 326 b 546 417 524 368 546 397 b 557 475 546 436 554 456 b 578 536 560 497 557 519 b 611 626 583 540 610 622 b 610 649 611 633 610 640 b 628 686 610 664 613 679 b 657 592 643 671 657 597 b 654 561 657 582 654 572 b 658 538 654 554 658 546 b 651 521 658 535 651 528 b 672 478 651 507 672 485 b 667 456 672 471 667 463 b 671 364 667 425 671 396 b 669 333 671 353 669 343 b 678 279 669 315 678 294 b 650 239 678 267 668 257 l 650 240 b 672 232 657 238 664 235 b 669 236 671 233 669 235 b 668 232 667 233 668 232 b 672 235 669 232 671 233 b 661 213 667 226 661 225 b 665 192 661 204 665 197 b 650 167 665 181 650 175 b 685 121 650 161 685 125 b 665 101 685 108 665 115 b 735 8 672 42 728 8 b 781 -6 754 8 761 0 b 869 75 800 25 850 24 b 919 157 885 106 903 157 b 958 143 929 157 936 147 b 956 146 957 144 957 146 b 954 143 956 144 954 144 b 958 144 954 144 954 140 b 939 114 947 139 940 114 b 939 115 939 114 939 115 b 943 107 939 111 939 107 b 981 174 978 107 963 156 b 992 215 990 183 992 200 b 985 324 992 251 985 288 b 1006 364 985 339 985 364 b 1025 296 1015 342 1006 304 b 1017 343 1018 311 1017 326 b 1018 386 1018 357 1018 371 b 1053 449 1018 417 1053 421 b 1051 457 1051 451 1051 454 b 1075 483 1051 468 1075 472 b 1061 524 1074 499 1071 513 b 1063 522 1061 524 1063 522 b 1025 454 1039 503 1047 476 b 1014 481 1021 464 1018 472 l 1017 482 b 971 403 1006 450 976 440 b 929 328 967 372 938 356 b 811 147 918 289 838 147 b 767 186 783 147 788 186 b 754 204 758 186 754 193 b 796 265 754 219 785 243 b 793 318 796 283 793 300 b 757 258 785 301 796 258 b 746 276 750 258 746 272 b 754 304 746 286 754 294 b 753 311 754 307 753 308 l 754 310 b 753 317 753 311 753 314 b 756 324 753 319 753 321 l 753 322 b 749 335 751 326 749 331 b 763 403 749 357 763 393 b 731 482 763 446 731 422 b 740 522 731 496 740 508 b 732 547 740 531 732 539 b 754 600 732 563 743 600 b 769 564 768 600 769 575 b 758 506 769 547 758 511 b 782 469 758 506 775 481 b 804 518 789 485 804 504 b 792 549 804 529 796 539 b 797 538 793 544 797 542 b 794 533 797 536 794 533 b 792 538 793 533 792 535 b 813 611 792 557 813 596 b 799 646 813 624 799 635 b 818 700 799 664 818 681 b 806 742 818 725 806 743 b 828 771 806 753 828 753 b 826 779 828 774 826 776 z m 767 685 b 747 647 767 664 765 647 b 742 672 743 647 742 665 b 757 713 742 682 743 713 b 767 685 763 713 765 686 z m 701 458 b 724 432 724 456 724 446 b 713 396 724 422 719 396 b 701 435 703 399 701 417 b 701 458 701 443 701 453 z m 115 579 b 108 568 115 575 113 568 b 100 579 101 569 100 575 b 107 589 100 583 104 589 b 115 579 110 589 114 585 z m 219 194 b 207 179 217 190 217 179 b 197 201 201 179 197 200 b 208 210 197 204 203 210 b 219 194 217 210 217 203 z m 199 238 b 194 265 196 256 194 261 b 197 275 194 269 196 272 b 200 261 199 271 200 267 b 199 238 200 257 200 250 z m 188 411 b 190 386 189 396 190 392 b 188 376 190 383 189 381 b 183 386 186 381 183 383 b 188 411 183 392 185 396 z m 953 275 b 946 264 953 268 949 264 b 939 275 943 264 939 272 b 947 285 939 279 944 285 b 953 275 950 285 951 278 z m 174 94 b 179 85 176 90 179 88 b 174 78 179 82 176 78 b 161 85 171 78 164 82 b 174 94 165 89 169 92 z m 806 829 b 813 824 810 829 813 825 b 804 815 813 819 807 815 b 803 818 803 815 803 817 b 806 829 803 822 806 825 z m 167 474 b 171 460 168 468 171 464 b 165 451 171 457 167 454 b 161 469 160 457 161 463 b 167 474 163 471 164 471 z m 118 475 b 119 482 118 479 118 482 b 125 471 122 482 125 476 b 121 465 125 467 122 465 b 118 475 118 465 118 465 z m 108 719 b 111 717 110 718 111 717 b 108 713 111 715 110 714 b 107 717 108 714 107 715 b 108 719 107 718 108 718 z m 131 636 l 126 635 l 126 638 z m 181 567 b 176 563 179 564 178 563 b 172 567 174 563 172 564 b 176 574 172 569 172 572 b 181 567 181 574 181 571 z m 164 299 b 168 299 165 299 168 299 b 167 294 168 297 167 296 b 164 296 164 294 164 294 b 164 299 164 296 164 297 z m 208 346 b 211 344 210 346 211 344 b 208 340 211 342 211 340 b 206 342 207 340 206 340 b 208 346 206 342 207 344 z m 231 229 b 229 235 229 231 229 233 b 233 236 229 235 232 235 b 233 232 233 235 233 233 b 231 229 233 231 233 229 z m 1250 -368 b 1325 -283 1290 -333 1325 -315 b 1240 -200 1325 -224 1247 -204 b 1214 -192 1232 -194 1224 -192 b 1175 -196 1203 -192 1188 -196 b 1151 -182 1167 -196 1161 -187 b 969 -208 1143 -206 1040 -208 b 922 -208 951 -208 933 -208 b 879 -214 908 -208 894 -210 b 865 -212 875 -212 869 -212 b 778 -226 838 -212 801 -226 b 733 -211 760 -226 747 -211 b 675 -240 724 -211 700 -237 b 369 -274 535 -254 513 -274 b 257 -257 333 -274 274 -272 b 208 -218 239 -240 219 -219 b 172 -282 192 -218 172 -258 b 254 -433 172 -326 224 -392 b 411 -508 292 -483 347 -508 b 635 -474 486 -508 558 -479 b 792 -433 694 -469 750 -433 b 810 -436 797 -433 804 -436 b 951 -400 844 -436 933 -400 b 972 -401 958 -400 965 -401 b 1064 -385 1000 -401 1033 -389 b 1204 -367 1111 -379 1158 -372 b 1219 -362 1210 -364 1214 -362 b 1250 -368 1229 -362 1239 -367 z m 1200 828 b 1182 797 1186 819 1182 822 b 1144 760 1182 767 1154 785 b 1125 654 1131 725 1126 689 b 1106 635 1117 647 1106 639 b 1111 624 1106 631 1108 625 b 1176 717 1153 624 1160 717 b 1188 685 1188 717 1188 696 b 1183 646 1188 672 1183 658 b 1192 629 1183 640 1185 635 b 1208 700 1200 653 1208 675 b 1203 743 1208 715 1203 729 b 1213 764 1203 750 1207 764 b 1221 761 1217 761 1218 761 b 1235 792 1232 761 1222 792 b 1253 731 1240 792 1239 739 b 1261 714 1258 725 1261 719 b 1250 654 1261 694 1250 675 b 1251 635 1250 647 1251 642 b 1242 565 1251 614 1242 588 b 1221 503 1242 538 1221 524 b 1219 469 1221 492 1219 481 b 1229 411 1219 453 1225 429 l 1228 413 b 1292 500 1279 413 1264 500 b 1300 497 1296 500 1300 500 b 1292 467 1300 485 1292 474 b 1297 451 1292 461 1294 456 b 1296 453 1297 451 1297 453 b 1250 393 1281 453 1276 404 b 1228 314 1233 386 1228 332 b 1275 240 1228 296 1272 240 b 1275 221 1275 233 1275 226 b 1246 178 1275 199 1246 197 b 1214 82 1246 143 1232 82 b 1194 93 1204 82 1203 93 b 1185 88 1190 93 1185 92 b 1189 67 1186 79 1189 72 b 1165 40 1189 57 1165 53 b 1199 -17 1165 28 1199 14 b 1229 -61 1199 -36 1204 -61 b 1294 -17 1258 -61 1264 -24 b 1331 15 1326 -10 1307 11 b 1368 58 1344 19 1368 39 b 1351 115 1368 71 1351 92 b 1349 183 1351 138 1349 160 b 1358 303 1349 221 1358 258 b 1389 421 1358 350 1389 388 b 1388 438 1389 426 1388 432 b 1404 513 1388 460 1404 482 b 1422 594 1404 540 1422 565 b 1421 625 1422 604 1421 614 b 1436 690 1421 649 1436 669 b 1433 713 1436 697 1433 706 b 1446 747 1433 725 1446 736 b 1439 783 1446 760 1439 772 b 1447 822 1439 796 1447 807 b 1446 857 1447 833 1446 846 b 1461 1019 1446 910 1458 965 b 1431 1040 1461 1032 1442 1040 b 1410 1036 1425 1040 1418 1036 b 1383 1047 1401 1036 1390 1047 b 1322 1040 1368 1047 1339 1043 b 1258 975 1299 1017 1267 1000 b 1210 821 1249 949 1210 821 b 1200 828 1208 821 1204 824 z m 1328 358 b 1338 339 1333 353 1338 346 b 1326 325 1338 332 1333 325 b 1322 329 1324 325 1322 326 b 1329 357 1322 338 1326 350 b 1326 358 1328 357 1328 358 b 1326 356 1326 357 1326 356 b 1328 358 1328 356 1328 357 z m 1251 486 b 1242 469 1250 481 1247 469 b 1236 478 1239 469 1236 471 b 1247 486 1239 482 1242 486 b 1253 485 1249 486 1250 486 b 1243 507 1247 490 1243 499 b 1281 596 1243 524 1271 596 b 1283 589 1283 596 1283 592 b 1251 486 1283 558 1264 508 z m 1304 396 b 1250 319 1304 368 1269 319 b 1242 333 1243 319 1242 329 b 1283 403 1242 388 1283 374 b 1290 413 1283 404 1288 413 b 1304 396 1301 413 1304 406 z m 1354 565 b 1353 576 1354 569 1353 574 b 1365 615 1353 589 1365 599 b 1379 583 1371 604 1375 594 b 1354 565 1376 571 1364 571 z m 1311 618 b 1318 599 1318 610 1318 607 b 1313 549 1318 582 1318 561 b 1306 581 1307 561 1306 565 b 1311 618 1306 589 1308 601 z m 1226 42 b 1222 36 1226 39 1225 36 b 1219 46 1219 36 1219 43 b 1222 49 1219 47 1222 49 b 1226 42 1224 47 1225 44 z m 1118 585 b 1100 543 1097 578 1100 576 b 1089 536 1099 539 1093 536 b 1074 543 1083 536 1079 543 b 1061 529 1067 543 1061 538 b 1063 522 1061 526 1063 525 b 1061 524 1063 522 1061 524 b 1101 508 1071 519 1089 508 b 1125 554 1114 508 1125 549 b 1118 585 1125 565 1118 575 z m 1228 413 b 1229 411 1228 413 1229 411 b 1208 367 1215 400 1208 383 b 1213 361 1208 364 1208 361 b 1228 413 1224 361 1228 404 z m 753 322 b 754 310 756 319 753 310 l 753 311 b 769 306 758 310 764 306 b 775 317 774 306 775 310 b 768 324 775 322 774 324 b 753 322 764 324 760 322 z m 1025 296 b 1013 256 1021 286 1013 267 b 1014 253 1013 254 1014 253 b 1026 271 1022 253 1026 265 b 1024 290 1026 276 1024 283 b 1025 296 1024 292 1025 294 z m 204 674 b 219 690 213 674 219 682 b 211 694 219 692 214 694 b 203 685 206 692 203 690 b 204 674 203 681 204 678 z m 757 461 b 760 465 758 463 758 464 b 753 463 754 465 754 464 b 757 461 754 461 756 461 z m 1224 715 b 1224 713 1224 714 1224 713 b 1226 710 1224 711 1224 710 b 1231 714 1229 710 1231 714 b 1228 717 1231 715 1229 715 b 1224 715 1226 717 1225 715 z m 785 428 b 782 432 783 429 783 431 b 779 429 781 432 779 431 b 781 425 779 428 781 426 b 785 428 782 426 783 428 z m 100 257 l 96 258 l 97 253 z m 650 240 b 649 239 650 240 649 240 b 653 236 649 239 650 238 z m 111 228 b 114 224 111 228 111 225 z m 1119 583 b 1118 586 1119 583 1118 586 b 1119 583 1118 585 1119 583 z m 1017 482 b 1015 478 1017 481 1015 479 b 1018 479 1017 478 1018 479 b 1014 481 1018 481 1017 481 b 1017 482 1014 481 1017 482 z m 203 476 l 206 475 b 203 476 206 475 203 476 z m 1200 825 b 1199 829 1199 826 1199 828 b 1197 826 1197 828 1197 828 b 1200 825 1201 826 1199 825 z m 958 143 b 956 146 957 144 957 146 b 954 143 956 144 954 144 b 958 144 954 144 954 140 b 958 143 958 144 958 143 z m 672 232 b 672 235 672 232 672 235 b 668 232 671 233 669 232 b 669 236 669 232 665 232 b 672 232 669 235 671 233 z m 97 482 l 94 486 b 97 482 96 485 97 483 z m 1329 357 b 1328 358 1329 357 1328 358 b 1326 356 1328 357 1328 356 b 1326 358 1326 356 1326 357 b 1329 357 1328 358 1328 357 z m 1297 451 b 1296 453 1297 451 1296 453 b 1297 451 1297 453 1297 451 z m 1379 769 l 1376 768 z "},"":{"ha":1546,"x_min":0,"x_max":0,"o":"m 272 265 b 274 279 274 269 274 275 l 272 278 b 268 326 272 292 268 311 b 276 367 268 340 276 351 b 251 503 276 457 251 449 b 261 564 251 526 261 560 b 253 583 261 571 253 575 b 268 607 253 594 268 603 b 251 621 268 611 251 617 b 272 642 251 628 272 633 b 265 668 272 647 265 661 b 272 729 265 688 272 708 b 271 783 272 747 271 765 b 275 833 271 800 275 817 b 274 856 275 840 274 847 b 289 935 275 883 275 910 b 292 949 292 939 292 944 b 176 1019 292 986 213 1019 b 122 865 122 997 122 918 b 108 692 122 804 108 747 b 83 650 108 672 83 668 b 104 590 83 632 104 604 b 86 557 104 578 86 569 b 94 525 86 547 94 536 b 90 482 94 511 90 497 b 99 319 90 428 99 374 b 110 250 99 296 110 274 b 107 225 110 242 107 233 b 263 25 107 132 214 31 b 379 85 304 25 375 61 b 440 190 432 85 394 190 b 464 253 451 190 464 235 b 463 271 464 258 463 265 b 494 343 463 286 494 329 b 503 390 496 357 503 378 b 496 450 503 408 496 425 b 499 454 496 451 497 454 b 519 439 513 454 510 439 b 529 447 522 439 529 443 b 526 492 528 463 526 476 b 529 529 526 504 528 517 b 526 546 528 535 526 540 b 544 608 526 567 536 586 b 547 581 546 599 547 589 b 536 521 547 558 536 543 b 550 507 536 513 546 507 b 571 536 563 507 557 536 b 596 444 592 536 596 463 b 594 415 596 435 594 425 b 606 310 594 381 606 346 b 596 263 606 293 596 279 b 604 229 596 251 604 240 b 603 208 603 222 603 215 b 638 89 603 168 614 108 b 682 35 656 74 661 42 b 733 0 704 26 704 1 b 750 1 739 0 744 1 b 767 -1 756 1 761 -1 b 825 32 789 -1 804 32 b 865 51 838 32 865 46 b 863 64 865 56 863 60 b 879 106 863 79 879 106 b 904 90 889 106 894 90 b 917 118 911 90 913 107 l 939 118 b 978 192 974 165 978 182 b 969 225 978 204 978 215 b 971 250 971 233 971 242 b 968 303 971 267 968 285 b 996 361 968 332 979 321 b 999 346 997 354 999 350 b 969 225 999 303 996 261 b 1019 264 993 225 1019 222 b 1013 340 1019 289 1013 315 b 1029 358 1013 354 1029 343 b 1013 404 1029 372 1013 388 b 1022 475 1013 429 1022 451 b 1019 524 1022 492 1019 508 b 1022 546 1019 531 1021 539 b 1018 549 1022 546 1019 549 b 990 489 988 549 990 506 b 938 397 990 449 950 435 b 890 318 926 365 906 347 b 778 167 869 279 814 167 b 747 256 757 167 753 228 l 749 254 b 726 364 728 274 726 321 b 736 489 726 406 736 440 b 732 526 736 501 732 514 b 735 565 732 540 735 553 b 733 597 735 576 733 586 b 761 883 733 690 761 794 b 707 926 761 897 707 922 b 708 926 707 926 707 926 b 683 915 704 926 693 915 b 676 917 682 915 679 917 b 663 914 672 917 667 914 b 654 922 660 914 656 915 b 618 889 629 897 654 889 b 604 883 613 889 608 888 b 571 803 579 858 571 867 b 547 776 568 788 551 790 b 504 675 531 746 508 708 b 418 486 497 624 446 542 b 311 240 389 399 322 238 b 301 261 307 240 306 243 b 288 233 297 249 294 233 b 272 265 276 233 274 256 z m 667 322 b 661 350 664 336 661 344 b 671 378 661 358 664 364 b 678 361 679 378 678 367 b 667 322 678 347 671 335 z m 564 594 b 574 568 574 594 574 578 b 569 564 574 565 572 564 b 560 586 564 564 561 579 b 564 594 560 589 563 592 z m 457 474 b 450 482 450 474 450 478 b 457 493 450 488 451 493 b 467 490 461 493 467 493 b 457 474 467 483 463 475 z m 656 528 b 665 515 660 524 665 524 b 653 504 665 510 661 504 b 650 519 651 510 650 515 b 656 528 650 522 654 525 z m 631 175 b 638 161 636 169 638 168 b 631 146 638 156 638 153 b 626 160 628 150 626 156 b 631 175 626 164 626 171 z m 490 563 b 488 554 490 560 489 557 b 485 561 488 557 485 558 b 489 567 485 564 486 564 b 490 563 489 565 490 564 z m 1257 -171 b 1331 -57 1261 -132 1331 -108 b 1329 -31 1331 -49 1329 -39 b 1354 43 1329 -4 1354 13 b 1367 68 1354 51 1367 60 b 1354 89 1367 75 1354 82 b 1358 132 1356 103 1357 117 b 1399 194 1378 149 1371 182 b 1433 242 1404 196 1414 228 b 1504 313 1454 256 1504 290 b 1493 325 1504 319 1499 325 b 1474 321 1485 321 1483 321 b 1378 292 1438 321 1410 292 b 1338 418 1356 292 1338 404 b 1346 457 1338 431 1346 449 b 1324 546 1346 468 1324 510 b 1340 594 1324 569 1340 581 b 1338 614 1340 600 1338 607 b 1343 643 1338 624 1339 633 b 1358 735 1356 672 1344 706 b 1354 800 1358 753 1354 778 b 1369 874 1363 815 1369 858 b 1357 910 1369 886 1357 897 b 1360 933 1357 917 1360 926 b 1319 968 1360 954 1339 958 b 1269 957 1301 964 1283 957 b 1253 961 1264 957 1258 961 b 1225 938 1242 961 1240 938 b 1207 958 1214 938 1208 946 b 1182 931 1196 958 1207 931 b 1149 789 1163 931 1153 821 b 1110 689 1143 747 1135 732 b 1079 603 1099 660 1079 635 b 1089 593 1079 597 1083 593 b 1104 608 1099 593 1103 600 b 1103 624 1104 613 1104 618 b 1139 643 1118 625 1124 642 b 1158 542 1143 607 1136 560 b 1189 349 1179 525 1181 397 b 1194 283 1192 328 1192 307 b 1219 174 1218 267 1201 213 b 1221 167 1219 171 1221 168 b 1140 36 1221 115 1168 82 b 1086 -69 1119 1 1099 -25 b 1092 -111 1086 -85 1092 -97 b 1085 -185 1092 -129 1086 -157 b 1133 -208 1103 -193 1118 -201 b 1174 -207 1147 -208 1161 -207 b 1226 -214 1192 -207 1208 -214 b 1257 -171 1253 -214 1256 -181 z m 1239 3 b 1244 -28 1240 -10 1243 -18 b 1221 -53 1239 -36 1228 -53 b 1214 -46 1218 -51 1214 -49 b 1239 3 1215 -28 1218 -11 z m 1214 -104 b 1203 -117 1213 -108 1207 -117 b 1197 -107 1197 -117 1197 -111 b 1204 -96 1197 -103 1197 -96 b 1214 -104 1210 -96 1211 -100 z m 1064 442 b 1086 479 1076 449 1085 479 b 1069 490 1086 483 1081 486 b 1064 442 1068 474 1067 458 z m 1056 617 b 1047 611 1053 615 1049 614 b 1054 600 1047 607 1051 600 b 1063 608 1058 600 1063 604 b 1056 617 1063 611 1058 614 z m 269 501 b 268 504 269 501 268 503 b 264 501 267 503 265 503 b 267 496 264 499 264 496 b 269 501 268 496 269 499 z m 749 254 l 747 257 b 749 254 747 256 747 254 z m 272 278 b 272 265 272 274 272 269 l 274 265 b 272 278 274 269 274 275 z m 274 279 b 274 265 274 275 274 269 b 274 279 274 269 274 275 z "},"":{"ha":714,"x_min":0,"x_max":0,"o":"m 438 642 b 443 701 439 661 442 681 b 440 719 440 707 440 714 b 481 897 440 769 481 853 b 478 908 481 900 479 904 b 336 1008 446 968 428 983 b 311 1013 328 1011 319 1013 b 192 988 283 1013 239 988 b 108 1000 163 988 136 1000 b 69 971 85 1000 81 993 b 214 882 93 906 168 899 b 224 847 221 871 224 860 b 217 756 224 819 217 792 b 185 640 217 707 185 639 b 189 622 185 635 189 628 b 181 596 189 613 186 604 b 169 542 171 579 176 560 b 172 513 172 532 172 522 b 164 399 172 474 164 436 b 172 368 164 388 172 378 b 160 343 172 361 167 354 b 179 263 174 318 179 290 b 176 221 179 249 176 235 b 214 97 176 181 181 104 b 243 54 242 97 238 81 b 339 -25 249 29 329 -12 b 400 -40 356 -42 379 -40 b 454 -29 418 -40 436 -37 b 461 -31 457 -29 458 -31 b 506 -6 481 -31 496 -6 b 547 33 533 -3 528 33 b 560 31 550 33 556 31 b 628 161 583 31 628 156 b 621 308 626 210 621 260 b 653 326 635 311 653 315 b 614 397 642 347 625 397 b 593 392 606 397 600 392 b 551 433 574 392 596 433 b 515 453 533 433 524 453 b 482 425 501 453 500 425 b 461 431 475 425 467 431 b 433 422 451 431 440 422 b 406 457 424 422 406 444 b 407 467 406 460 407 464 b 383 506 407 479 383 476 b 415 597 383 543 415 576 b 414 613 415 601 414 607 b 438 642 415 626 424 635 z m 581 333 b 564 357 575 340 564 351 b 574 367 564 361 567 367 b 588 351 582 367 588 358 b 579 332 588 344 582 339 b 600 326 585 332 600 332 b 590 315 600 321 594 315 b 581 333 583 315 588 329 z m 381 240 b 372 289 381 260 372 272 b 404 317 372 308 383 317 b 507 171 456 317 507 200 b 458 138 507 150 471 138 b 378 233 418 138 378 208 b 381 240 378 236 379 238 z m 222 156 b 238 133 233 156 238 143 b 229 122 238 125 236 122 b 218 142 221 122 218 138 b 222 156 218 146 218 151 z m 401 350 b 394 347 400 347 397 347 b 388 356 388 347 388 350 b 393 358 389 357 392 358 b 401 350 399 358 401 354 z m 433 351 l 429 351 l 429 354 z m 658 222 b 656 238 658 228 657 238 b 651 222 653 238 651 228 b 654 217 651 219 653 217 b 658 222 657 217 658 218 z m 471 461 b 467 464 469 463 468 464 b 464 461 465 464 464 463 b 467 456 464 458 464 456 b 471 461 469 456 468 458 z "},"":{"ha":1139,"x_min":0,"x_max":0,"o":"m 147 192 b 146 201 147 196 146 199 b 149 206 146 206 147 206 b 153 201 151 206 153 204 b 142 181 153 196 142 193 b 176 161 142 163 169 178 b 221 118 185 139 192 119 b 263 88 233 118 239 88 b 328 85 285 88 306 85 b 372 101 346 85 358 101 b 383 97 375 101 379 100 b 522 213 454 121 465 186 b 574 306 551 226 547 285 b 619 372 590 318 606 349 b 596 413 617 393 624 407 b 600 414 597 413 599 414 b 615 411 606 414 610 411 b 590 464 611 431 600 447 b 583 506 582 476 588 492 l 585 507 b 582 506 583 507 583 506 b 536 565 553 506 536 565 b 499 596 525 578 518 593 b 489 607 496 596 490 603 b 568 671 489 621 550 658 b 857 844 661 732 764 789 b 876 763 874 840 876 793 b 876 735 876 746 876 733 b 849 511 860 663 854 582 b 842 475 847 499 842 488 b 847 456 842 469 847 463 b 836 424 847 444 836 435 b 838 410 836 419 838 414 b 835 392 838 403 835 397 b 850 347 835 376 850 364 b 840 308 850 333 840 321 b 843 294 840 304 843 299 b 819 219 843 281 819 235 b 838 156 819 200 838 178 b 832 124 838 144 832 135 b 835 96 832 114 835 106 b 826 36 835 76 826 56 b 847 -43 826 4 847 -28 b 894 -103 847 -71 863 -103 b 960 -53 907 -103 939 -60 b 975 -32 969 -47 975 -42 b 974 -18 975 -28 974 -22 b 986 13 974 -7 986 3 b 983 24 986 17 986 19 b 965 136 964 60 978 99 b 961 158 963 143 961 151 b 972 213 961 176 972 194 b 971 235 972 221 971 228 b 983 294 971 286 983 265 b 990 319 983 306 990 313 b 983 340 990 325 983 333 b 990 378 983 353 990 364 b 1013 508 990 442 1008 492 b 1050 706 1026 579 1046 646 b 1069 847 1054 754 1069 797 b 965 957 1069 915 1054 957 b 867 918 924 957 899 935 b 807 888 854 894 832 901 b 724 839 750 856 731 839 b 638 789 696 839 678 789 b 553 739 614 789 582 750 b 321 629 474 708 407 654 b 310 628 317 628 314 628 b 288 639 301 628 288 632 b 321 769 290 685 294 724 b 324 785 324 775 324 779 b 321 804 324 792 321 797 b 340 913 321 818 340 888 b 224 1003 340 976 275 1003 b 179 892 196 1003 179 907 b 142 761 179 847 150 806 b 106 618 132 713 133 654 b 93 576 96 606 93 592 b 94 533 93 563 94 547 b 89 413 94 493 89 453 b 90 388 89 404 90 396 b 83 361 90 378 83 369 b 121 274 83 314 117 274 b 113 247 121 265 113 254 b 147 192 113 228 135 211 z m 367 235 b 261 451 256 235 288 407 b 247 468 257 457 247 461 b 346 526 247 500 313 517 b 476 406 403 526 476 454 b 486 346 476 385 486 365 b 367 235 486 306 390 235 z m 926 300 b 917 288 925 294 921 288 b 910 296 915 288 910 293 b 922 310 910 301 913 304 b 926 300 924 306 925 303 z m 539 508 b 535 504 538 506 536 504 b 528 508 532 504 528 506 b 536 513 531 510 533 511 b 539 508 538 513 538 510 z m 997 44 b 996 40 996 43 996 42 b 999 35 996 38 997 36 b 1001 39 999 36 1001 38 b 997 44 1001 42 1001 44 z m 585 507 b 583 506 585 507 583 506 b 585 507 585 506 585 504 z "},"":{"ha":732,"x_min":0,"x_max":0,"o":"m 124 242 b 122 243 122 243 122 243 b 121 233 122 243 121 233 b 150 150 121 208 150 171 b 143 128 150 140 143 136 b 144 122 143 126 143 124 l 143 124 b 182 61 163 104 182 89 b 232 6 182 50 218 19 b 364 -50 269 -33 339 -50 b 404 -42 378 -50 390 -42 b 486 11 440 -42 489 13 b 550 61 508 22 551 61 b 672 285 589 74 672 258 b 669 324 672 299 669 311 b 676 360 669 336 676 347 b 574 479 676 404 589 474 b 510 508 553 488 526 508 b 490 504 503 508 499 504 b 429 525 478 517 426 525 b 404 515 421 525 413 515 b 379 524 396 515 388 524 b 358 521 372 524 365 521 b 293 561 301 521 301 547 b 301 615 300 579 293 599 b 317 657 307 629 311 643 b 290 722 308 679 300 700 b 317 775 301 740 317 756 b 300 846 317 803 300 831 b 304 871 300 854 304 864 b 278 961 304 894 286 931 b 194 1008 267 997 233 1008 b 133 879 129 1008 149 918 b 115 797 124 854 115 824 b 128 765 115 783 128 778 b 100 726 108 746 100 746 b 118 692 100 707 118 718 b 99 625 118 679 110 638 b 83 490 94 565 83 510 b 110 436 83 450 110 454 b 88 358 110 425 88 400 b 93 278 88 332 93 304 b 124 242 93 260 114 249 z m 296 389 b 308 417 297 400 297 417 b 390 394 335 417 383 394 b 400 399 393 394 396 394 b 442 358 414 394 425 369 b 507 276 472 338 507 317 b 529 221 507 256 529 239 b 424 125 529 190 447 125 b 321 243 368 125 324 243 b 303 319 321 272 321 296 b 301 322 303 321 301 321 b 303 331 301 325 303 328 b 296 389 300 350 297 369 z m 526 475 b 538 464 532 472 538 472 b 526 451 538 460 533 451 b 519 463 522 451 519 458 b 526 475 519 469 521 469 z m 307 268 b 303 267 306 268 304 267 b 301 271 301 267 301 271 b 303 272 301 272 301 272 b 307 268 307 272 304 271 z m 143 124 b 139 119 143 122 139 121 b 140 119 139 119 139 119 b 143 124 143 119 143 121 z m 124 242 b 122 243 122 243 122 243 b 124 242 122 243 124 242 z "},"":{"ha":810,"x_min":0,"x_max":0,"o":"m 232 -39 b 239 -39 235 -39 236 -39 b 235 -40 238 -40 236 -40 b 231 -37 233 -40 232 -39 b 247 -60 235 -46 240 -60 b 318 -21 265 -60 272 -21 b 347 -3 335 -18 338 -3 b 406 13 368 -3 386 8 b 439 43 414 29 415 43 b 497 71 456 51 488 71 b 529 49 511 71 521 49 b 560 93 553 49 531 93 b 586 85 568 93 572 92 b 608 118 594 94 608 106 b 607 126 608 121 608 124 l 608 125 b 603 124 607 125 604 124 b 586 140 596 125 586 125 b 678 247 586 175 678 217 b 678 258 678 251 678 256 b 731 363 678 290 731 340 b 725 389 731 371 725 381 b 740 440 725 399 739 440 b 732 469 740 449 732 460 b 739 499 732 479 739 489 b 728 522 739 507 728 514 b 740 564 728 532 740 550 b 710 657 740 596 710 618 b 647 769 710 690 658 743 b 615 806 642 783 621 793 b 443 942 594 860 479 935 b 374 971 417 946 399 965 b 261 992 332 979 301 992 b 226 990 251 992 239 990 b 160 1008 201 990 176 993 b 143 1014 156 1013 150 1014 b 63 978 128 1014 67 989 b 61 961 61 974 61 967 b 154 817 64 897 99 817 b 224 829 176 817 200 829 b 457 788 292 829 426 824 b 481 774 463 781 472 776 b 606 618 538 756 606 658 b 531 575 606 597 563 575 b 499 576 519 575 508 576 b 396 553 458 576 428 568 b 350 571 393 553 367 571 b 278 535 325 571 349 535 b 256 538 271 535 263 538 b 228 532 246 538 238 532 b 201 544 218 532 211 544 b 106 507 165 544 119 513 b 100 481 101 497 100 489 b 169 381 100 426 160 381 b 189 382 175 381 182 382 b 211 378 196 382 204 378 b 253 393 224 378 238 393 b 292 389 264 393 278 389 b 338 397 308 389 324 397 b 376 392 350 397 364 392 b 414 408 392 392 406 392 b 422 414 415 413 419 414 b 433 413 426 414 431 413 b 456 419 440 413 449 419 b 486 415 467 419 475 415 b 589 450 513 440 553 450 b 593 440 592 450 593 442 b 508 294 574 397 532 307 b 438 235 478 279 467 251 b 306 179 392 208 356 196 b 299 172 303 178 300 175 b 240 126 294 131 269 142 b 236 125 239 125 238 125 b 207 139 226 125 218 139 b 175 126 197 139 186 126 b 124 151 150 126 126 126 b 125 169 124 157 125 164 b 121 185 125 175 124 179 b 42 103 78 174 56 143 b 69 22 50 74 69 51 b 149 -44 69 -14 122 -32 b 181 -8 172 -44 169 -8 b 232 -39 186 -8 218 -32 z m 129 21 b 113 17 124 15 119 17 b 119 26 115 21 113 26 b 129 21 122 26 126 24 z m 361 19 b 360 25 361 21 360 24 b 365 29 360 28 361 29 b 369 26 368 29 369 28 b 361 19 369 24 365 22 z m 217 19 b 208 14 214 18 211 14 b 200 19 206 14 203 17 b 208 25 203 21 206 24 b 217 19 211 25 214 21 z m 325 15 b 319 19 322 18 319 15 b 325 22 319 21 322 22 b 329 18 326 21 328 19 b 325 15 328 18 326 17 z m 608 125 b 607 126 608 125 607 126 b 617 125 610 125 614 125 b 621 128 619 125 621 126 b 615 132 621 131 617 132 b 608 125 613 129 610 126 z m 232 -39 b 231 -37 232 -39 231 -37 b 235 -40 232 -39 233 -40 b 239 -39 236 -40 238 -40 b 232 -39 236 -39 235 -39 z "}}}
